/* XPM */
static char *D31709484075[] = {
/* columns rows colors chars-per-pixel */
"64 64 53 1 ",
"  c #5C350E",
". c #5D3712",
"X c #5D3B16",
"o c #5C371A",
"O c #5E3D19",
"+ c #613716",
"@ c #633B16",
"# c #693F17",
"$ c #643D1A",
"% c #693E1B",
"& c #653F20",
"* c #5E411A",
"= c #64421D",
"- c #69421D",
"; c #72451E",
": c #664320",
"> c #6C4522",
", c #664822",
"< c #6D4A25",
"1 c #6B4629",
"2 c #6E4B29",
"3 c #724623",
"4 c #734A26",
"5 c #7A4D27",
"6 c #744D2A",
"7 c #7A4E2A",
"8 c #75512C",
"9 c #7C522D",
"0 c #734E31",
"q c #765431",
"w c #7D5431",
"e c #7D5933",
"r c #7F5B39",
"t c #804C25",
"y c #814F2C",
"u c #885327",
"i c #83532E",
"p c #8A562E",
"a c #83582E",
"s c #8D582E",
"d c #825531",
"f c #8A5732",
"g c #855934",
"h c #8A5A34",
"j c #845B39",
"k c #8A5D39",
"l c #925D35",
"z c #8E613B",
"x c #94633C",
"c c #98653D",
"v c #8D6642",
"b c #936641",
"n c #976D47",
/* pixels */
"535iyffyyyf774%699=;a59azttsxxlsuppiia998e9e99dfyy9999q989--9353",
"745iyffyydk776#689*;a9aau9thllssupuyua95-;4;%$++&%%%$#==58=-7345",
"947difkiddfy54#6e9=-aaaziahcxlpspfuyez9;-;6966456337264668=49777",
"i7idyffidyky94-889-4aezaizcclspffffpzxa;-<9wddjjydd79w9w89-6dydd",
"g9idiffdiis995=99w>7gdgdhzxzaaaupffgxnz<46qewwwdyddw9wq9wd>3dwkk",
"giddiffyiah995-eww>6gwddzxxsiuta7afhznz;66wd0w77y0dy70899q%1w7jk",
"h9ddydfyhhl955-89w>4dqdkzxzzfsau5feazve-&3363577333&423466%3y7dd",
"jiddyifykhze54=59q%>d7kkggz9hhh9igzerzr<70wd779wdddww9qw>6&1d7w7",
"kjddyyydhkk7d6 9w1&&dzkjkiaaaaauddjdeeq8<66677ddkggww9898=@<9wyd",
"kfdyffyfhkk7i5 wkd73wkkf9a99959576768262<66677ydkjdw99ee8-#4997d",
"kgdydyyyhhk794#wy&%%&%%%-%-----*31>&>>1:><4679ddjdgww8w89>=-999y",
"jdydfyfikkfy94=9f&%%%77&44;;5;;;1&$$=:=O><6979dddgd9q98w9-=47w79",
"dd9iiiiyfhid9-;9d00&7wwwiw9waeee61&$O&O$268wwddddjyw798993%2d7y7",
"dd9yidffdf9i5-48dwy0777798898989061&oO*:289wwdfdddy989q991%3wwwy",
"idiidffdfd5i;=88djddrwwede9w9999001&Oo:188999ddfddw9988ww<$2wwwy",
"ww7wdddddd6a5@8470wwdw99d9998996702&oO:689e999ddd99989989-&3wdwy",
"4o:@>$3-$$=$$=<89i9aaaiiigha5aa5qq1=>==49999999dq9999u598,***-;;",
"2@:O:o>&:16226695iattiataaat5ti5qq>=:=>8999599ad99e999999<**;<4<",
"6:>$1O::26qqq08qii9aiaagihfi9ia9eq1*=><989959idde8999u99e,**8e85",
"q22:8&>>2qeeeqqq9ii99igfigg95ai9eq>o=:<q985999iw589u9u99e,**8ee5",
"q86>w-><9wqeq989997799ddwdd979q9eq,*$=<988999iid9999u9u98,*<eeee",
"6w9-q==4ee9888eewdw79wwdwddww79wqq:X==>966599iwi88999u9a8=*<885e",
"6w9=e-$688888998www9qq99wwwq779w80:X=><e5659i9d9859uua99e==<889a",
"8eq>j>=8426488446666444<3666323602:O-<8j466999ii99995ua9a,*<e89a",
"we8684=.@=--=-==$$@@@$$%$$$$%$$$**OOo6j86458a7id999iypy79,*<8999",
"9w6485------;;;4%$$%%>31%----->>,*::X2e66659999i999iffy79,=,8999",
"984458<44<;58eea66644544365634692,,:O2w<465559i9597upyiy9,=<8e9u",
"985-88595598eeaadddi7775ddjd9999qq2,=2w6<9845id555tyypy7a<,;9e99",
"994;898a95555eeaggiii955idkkhai9qq8:<886685;6di4555uppyy9<=<9d9g",
"5e54955e98855599iiaiiia957iahga92q2=<66669545di5555eypyya;=6e9id",
";9549559955585559aiiaaiut5tuasia2e<*>6<698459i99959upiu99<=<qdwy",
"59558949588888e9iiaaia95ai99akg92r2=28<6d8;5999uea9adii9e;-1w99w",
"46e-e88-,88<<6qqwwwwwddjd07ew616,1::61>6995;9e5697iid77682.;e99d",
"468-e<<=*****=>&111312246>>41%$>==O$26<6894;ee559iw9dw9686@<e699",
"368-q,=***=*O*&&$%&&&>&>1>%11%>1$:$:42488884aa5;dyydd76688=<e7w9",
"-3<-q<=O<2<1>270313242266116666w28::<6694845e945di7wdq7688=4d9w7",
"$>$>2-*O888<yw00669qqw7q666667qwqe1$-468884499;49dywd06689-<e9w7",
"%3=428*=888<&dyy67979qq7766687wqqe1o=48w4844a545dydwyw52q9=>wqw7",
"66-888=>888<yff0666q9907q7wwwwwqqe2O>68889459549ddydd9748e$-79d7",
"46=6>6O-6866&dyy56wwwww97qwwwq99qr8:>9889948i94adydww06288$=66dw",
"8>>=-2==q<87757734yww7w777777w99eq6&>896w659954a7igd9986e<==8899",
"4=>->2@O8889dwyd3577790d777q7wwwwq6:>8q6w6499569yddd99948<=-ea9d",
"616688==<<<ew9yy355777yy5599d9dwqq6:-6q89588968idddwdw868<=<eg99",
"6>6426OX<<8ew6644437777w47iididdwq0:=6999845559addw9de9<e<-;9w79",
"968624=*228q886854557797359iadegqq6:&<9q8884859addywde9682==897d",
"w696<8=,,=,,<<><54557y555459ddddwq2:$69q8848599addy09d9696@=6w9g",
"%+-@*=X*,****==-6759i95595459g99dq1$$6q65644999addfy99989<@@3614",
"$@>-=>**<==***O=97999963i5;69gi9ee>O:6q766555ea9ydjy9988e<@@>-+@",
"981-64698866>2X<<4698844e5;asa9aww1o&0w&16666iiidw7yyfyd00O=88q6",
"88<<36994636-8*<88ww8644e<;9a959dd0&&00006679iuidwyyyffywwO*8672",
"8<4<%6g43446-4X4899943<4954aa99e700oo&0&60w7idpiwd7yfydyw0O*q004",
"q;8<+6g%4765<6*<88964>595549aeuadjd1&00060w9idiidwyyyyddj0o=q703",
"e<8<=5d%4798;4X<9q96<49i5;5555450y0&&&0030d7yddid97yipydeqO*q003",
"e<4<-47%3589<8*8q96>--444<;;;;;;&%&+++&+&6wd9yi9d9iypyddgq*:6662",
"e<<<;543579d48X4q73-3333;445;;;;3453007&&6wwydiddi9yypydee:*6163",
"8<-;96477ddd<4X4e64367w755955uaayy7ywdw0+1wydddde99yyiydwe::6166",
"607377&0ddwdw1%6&y&3wdkg99ifahiihhggkgq2%7ywdwygyyyyfyyweq<*2226",
"674&&yyy9dwdw3$67j75ddkka9iaddsifhfhkky2&0dwdyydw0yfyydywq,*2217",
"3q7%yyyy9dwdi1%67d33wdjgiiigaaifffsfkkd4+7wwdwwfw7yyyfydwq:*1667",
"37730y0dydddw3%47d%%77ddgddsiiisllfpfkd6&0d9dw7dw7yfyydye8=*1607",
"4672ydydyddww3-4wy&7wdkhghiiiffhclpudgd3+7dwdw7g7wydfyydw8*O126q",
"49740yydyd9dd3=477&%ddggddpdpffhcliydfy4%7dwddidywiiypfdw8*X<867",
"6w75ddyfdddd93%477@3d9ididiffhhllsyufhd3%7d9dwig7dydiidwe2*O1062",
"6w76ddydydwdd3-6dy%6gwdiidafhhhluuyukkd3%0w9dw7g9wyfpfdwe8=O6036"
};
