/* XPM */
static char *D11709484076[] = {
/* columns rows colors chars-per-pixel */
"64 64 42 1 ",
"  c #4E3310",
". c #543314",
"X c #5B3715",
"o c #5F3A15",
"O c #573519",
"+ c #563C19",
"@ c #5D3C1C",
"# c #643D17",
"$ c #623E1D",
"% c #693F19",
"& c #5E3C20",
"* c #633E21",
"= c #693E21",
"- c #5E401D",
"; c #64411D",
": c #654222",
"> c #6C4625",
", c #654826",
"< c #6D4926",
"1 c #69462A",
"2 c #6D4A2A",
"3 c #744625",
"4 c #734A25",
"5 c #7B4B27",
"6 c #714629",
"7 c #734C2B",
"8 c #7B4E2C",
"9 c #7D5027",
"0 c #75502E",
"q c #7C512D",
"w c #734E31",
"e c #7C4F30",
"r c #765231",
"t c #7C5231",
"y c #7C5836",
"u c #814E2D",
"i c #82522E",
"p c #824F30",
"a c #835432",
"s c #895533",
"d c #835936",
"f c #855A38",
/* pixels */
".--@;;o;;o--;;--$17ttasuu8847w2:@276ttaa55afttw@;>4559ii9999qq<#",
"@2<<00;444<<4<--:<00taaiuu8qty6::277daii85it7r2@$4q8qidi999404>#",
";200q0459q0yr0<-:17waaau5uiayy2;@2reaa8uau88776@$<0qqtyq9iiq87<;",
"@200yq0899q000<;*2qetaai588tty2$;27eaa5usppu777:$17779q90qdy87<1",
":7wedt8q8itty07::2rr8uaiui88tr2$*6778p8usupa8e7*:1w670qq7qt0722:",
"*7eeadq848d8qq7::2tt8uausst88r2:*763euupsusu772@12w740qt9tq7721:",
"$778tp8i3iaeee6$:6tt88asaiq8wr6:*677uspspupp776@$:21<2467722121:",
"$786aapa5istet7;:2rt78aauu84702:*68pssussupp7e6$.O::$;$#;;*@::&O",
"=68easauiu857e6*:276tais55dftyw$:1475uasuuu3tt2$.:*@;;#;#oX$::&O",
"=18etasi5up8pt7=*277dauiu58t702@*2e88asauuu5871$&12277<44<<7r21&",
"=67epaai5iuadd7=$200da8ua588672$$<wttaaauape77<;*ww7y047tq0rrr1:",
"=6ee8aai588qep6**770ti8usatq702;@17779q98aae072,&200yt09qit0rr2&",
"*6et8taiiie8ee6*$2768iuusiaa707$:20220995it07<<,:7rtdd9q9qtttt2:",
"=6ew8qaidat8eww*:27688uiauat702@,202479u89q702,,$700ydq97qiqtt6;",
":7tt7qqaaie7wt6:$276tduii8aq772$+:2<;494444><2,-@<74qi994ii97q6;",
":2tw89yaq985772*@7rqfaiisutq777$ +-;;;;;%;##--- ;575ii9i9idtqq4;",
"*276ttiau5ifttw$$>4759ai9999q04$.--+;;#;;oo;::+.;179tasiuu57772$",
";2w7daii85qqwr2@$40q8idi898787;$-<<<09;<44;<02<$:17ttaai8uq8ty6:",
"@2rtaa8uaue8776@$>9qyqqi9qqq87<:;200y9549900r01$;20taasi55iayy7:",
"*278aa5uspp8777;$1774qq99ddq072:@700y078qqy0002*:27w8aau5u8tty2@",
"*676ep8ususa877$:277049q8qt0721:;wttdaqq9iyqwtw::27t8taiiit8tr2$",
"*7768uupsupper6@:2w240qy7qq0w62:$7w8da8q4qiqee6::2re8qussst8er2:",
"$678pppsuupp776@&12114<44761221**675aq8i5id9ee6**7tr88aaai887r2:",
"$78pssussupp876$.@::;;;;;;:@*:&.*687tiii5aftep6*:2rt88aauu87702$",
"*>775uasuuu5te2$.&*&;;$#$oX@,*&O*67epsdpuu85786*:276taus55afttr$",
"*28e8asauu55871$&12200>45<<2r21&=68eeasuu8u8atw=$2r7tauau5qtw02@",
"$<wtqaaauppe072;*wwwt070tqqrtr2:*68epaap5upadd6=$27taauuiu88276-",
"@17778q9uade772,&2r7yt59qqt0r01$*6ee8aai588tpy6=*2r8ta5usia8672:",
":22200995qtq2<,,:7rtdtqq9tqyqq7::68t8taiiqq8tt6$:276qq8usiat007@",
":202479u8qq702,,@790adq95qdqq06::2ew8taafaq87r6:$2768quuauda702@",
"-,,<<444444<<2,-@475t99949i9904$=7tt7qaidi88er6:$207taiiiutq706@",
" +-;;;;#%###-;- ;774idqi5idqqt7$:2rt89ta8978772:@20qfsiiiutq777;",
" --+;;#;;oo;,;@.;17qaasiiu57772@:276ttaa55afttw$$>4489ii99q09q4$",
";<<<09;<44;422,$:27rtaaiu8e8ty2::277daii85itwr2@;4q8qtdi999977;$",
";200y9549900r02$*<7taaau58eady7*@2reaa8uau88776@$<qqqqiq9qqq874;",
";200y078qqy0t01**27t8asu5u8qyy2$$27eduu8sppu777$@17709qq9ydq87<1",
":7ttdaqq9qyqetw::27t8tauui98tr2$*w778u8usupa8t6$:2w777qq7tt072<:",
"$7ewda8q4qiqee6*:2rr8taasst80t2:$6738pupsusuw72$:2w740qt9qt7721:",
"$677aq8i5id9ew6*:2te58assi88w02:$677uspspupp876@*111<2467422121:",
"*778tiii5aftep7=>2tw88iiu887702:*68pssussupe876$.O::$;$#;;$&::&O",
"==6epdspiu55786=$277qaiau5afdy7@*>675uasuuu5tt2$O-*@;;#;#oX$::+O",
"=38epdsu8uu8pt6=$2w7aaua858q777@*2ee8asauu55871$&21277><7<<2rw1&",
"=6eepapp5u8afdw=$2rtdauua888672@$27tqaaiuupe772;*ww0tt50it0rrr1:",
"=6ee8aap58etye6**277aa58siaq772:@1777qq98afe072,&200yt70qqqqtr1*",
":2we8taiii98tr6$:2768q8usiat707@:20207995qqq2<,,*7rtdd999qtttt2:",
"=6te8taaddt8et6::2768euiiuaa772@,,02479u8qq702,,$7q0diqq59dqtr6:",
":7tr7qtaaie77r6:$277aauaiuit70<@-:2,;445454<<2,-$<74iq9949q9qq4#",
":2rq89di88857r2;@27qdaiiaqit777$ +-;;;;;%;#o-;- ;475yi9i5ddqqt6;",
":276tapa85dfttr$#36479ii99909t<$ ---;;#;;oo;::+.;170taaiuu87772;",
"$270aaua85ut7w2@$4qqqadi999977>$;<<,40;<44;402<$*27qaasiu88qtt2:",
"&70taauuiu88672$$>0tqtiq9itq872:;200y9759900r01$$27ttasi55iady7:",
"$777uu5usia8772:$17079q9qqdt872:;200qy57qqy0002*:27t8iau5u8ttr2$",
":275euuusapa8w7$*17647qq0qq0722:;7rtddqq9qdqtww::20e8tpsiit8tr2$",
":6768pupsppa872$12w270qq9qq0022:$7wetaqi4qqqee6::2qw8qaisat8rr2:",
"$677pppppupp786@&122<<472521221&$678ai8i59d9ee6=:2tt88aasi887r2:",
"$6rtfssssupe876*.+*:*;;#;;$@$:&O*687taua5sfteew=:2tr78asu887872*",
"*>775ussuuu8ee2*O&-*::$###X$1:@X=68eedspiu5578==:277tausu5afty7@",
"*28e8psauu85871@@12177<46<17w21**67epasuu8u8atw=:677aaua85qte02@",
"$2wteaaiuuuqq72*:ww7y077qq00rr1**68euapp5uuadd6=$2t7da5uiu88622*",
"@17778q9uuiiw62:&2r0tt79qtt0rw2*=6eeeaaa888tey6=*277atuusii8702*",
";22249qq9qq072<:;7rqdd9q9qtttr2::67e8taiii88tt6$:276tq8uaiat707@",
":20249q9qqqq22,,-50qidqq5qiqqq7:12tt8qaaddq8wt6*$276888uauaa702@",
"-,,,;455444;,2,-o<74qq9999qq8q4$$6rt7qtaaqq87t2::207aauiiuat722$",
" -;,#;#;;;;-;;- ;097id999ifqqq6#17tt79aiq887772;@27tfaisiitt707$"
};
