/* XPM */
static char *D41709484075[] = {
/* columns rows colors chars-per-pixel */
"64 64 62 1 ",
"  c gray24",
". c gray26",
"X c #444444",
"o c gray27",
"O c #464646",
"+ c gray28",
"@ c #484848",
"# c gray29",
"$ c #4B4B4B",
"% c gray30",
"& c #4E4E4E",
"* c gray31",
"= c #505050",
"- c #515151",
"; c gray32",
": c #535353",
"> c gray33",
", c #555555",
"< c #565656",
"1 c gray34",
"2 c #585858",
"3 c gray35",
"4 c #5A5A5A",
"5 c #5B5B5B",
"6 c gray36",
"7 c #5D5D5D",
"8 c gray37",
"9 c #5F5F5F",
"0 c #606060",
"q c gray38",
"w c #626262",
"e c gray39",
"r c #646464",
"t c #656565",
"y c gray40",
"u c #676767",
"i c #686868",
"p c DimGray",
"a c #6A6A6A",
"s c gray42",
"d c #6C6C6C",
"f c #6D6D6D",
"g c gray43",
"h c #6F6F6F",
"j c gray44",
"k c #717171",
"l c #727272",
"z c gray45",
"x c #747474",
"c c gray46",
"v c #767676",
"b c #777777",
"n c gray47",
"m c #797979",
"M c gray48",
"N c #7B7B7B",
"B c #7C7C7C",
"V c gray49",
"C c #7E7E7E",
"Z c gray50",
"A c #808080",
"S c #848484",
/* pixels */
"818idii0iiidy11804:40yy0j0yidbb808yiydd480y810i800y00iy0y44:i411",
"810yidjijddy01:1y4:4yiiyd0yiijd8y80iydy81144:14:4414144:41::i084",
"48yy0dbdiii04884y414yiddi0yi0ii8dyydiy01418y888884414444111%dii0",
"10iy8dbi0ddy848481:40djbiiiiyyy8i0ybbdy481yjdiidyyy00yy0004%dddy",
"40di0ijyybMd4:1:04118yddyddyyyyy44iMVVbi810jdiddyy080yy0iy0%idji",
"8yji0id0yjbd4111041188000dd0y00i80dMMVM0818y08y0y0814800i08#iijj",
"yyddyyiidiiy8118081444888dy4y080yyjddMj8840088y8008148y0084:y8id",
"d0idyyddMd008:1841:184804i8108404yiyyMM088y840i0004440yy0484i80i",
"Vyydiidijbjy4444y844484448888y0480440iyy184y4y0iy808804080814080",
"by0ddidijjdi884808444444488880840y84yiyy181y4y0y08y8804880418088",
"d00iiidididd04800811144448444841481%18441410488yy8y0801480410y88",
"d00iiidibiidi48i841:1:11441:144::4%#:1%%1448888008y0804448410y00",
"i00i0ijdMdidi44d008411144841444:8y1:441114840800y4y880488041840i",
"i0yiyijibiiiy18i0y0044480y0888840y414844440404yyy8084y404044448d",
"y0yy0yi8iyyy044y80y08880yyy00y84004%14114404y400y40840804444814y",
"88iiyyy400yiy848180088000yy00881yy4:444481y4y4y00804408y44480414",
"84884111111114808848idiyiSi8i088yi4:48441888440y84881481111111:1",
"84484111444444888484000yiVi4y844yi4:44448888480i8488140144411111",
"84441::188088444008800iiiV040848yy4%14488888480y8888148444411114",
"84141::40y088444880880ib0b040800yy4:1848888444808484480448414444",
"84441::4yy884444448444yd0i8808y0ii81444488844480840848y444414444",
"84441::4y08448448884148y0y8000diii8:48148888880y8400880844444484",
"44484:1184444884880848800y8iy8i0004:4814884888y0480080y444144444",
"84884111111188441444444444104101441:44448414800y440y800411141444",
"0844811:444444441488::18%1:%:881:%..:440y84110d0140iiy8481:40848",
"044884114141444444441444:111444144:%481404444yi8480yy08481:80814",
"844800484411448884114444888y084480410411048880y44480088484180411",
"844800008844800y8884444100ijj080yy4:148084488yy44400004404:40848",
"4148000y888880yy0000841180dMMi00iy4:148i04844yy1480yy04104:4000y",
"4118008800008yyy0000844444yjbd040i84448iy8444004440yy081y1:4000i",
"81180848000000yy888800084480idi88y084410y44440014880884101:40000",
"41148444000000008414yyy88884ydi84081114y0848800:8888884481180848",
"144484:14484008114448000yy0848yi08#X1880081488488880044844488884",
"484481#:1111441:X#%:14414441:1481:XX1448081484488880844441448088",
"44148:%:1111441::%:1444444411144:4::4480y44488448800844844488884",
"141181:144844841488884848888880080848880044888440000844444448888",
"141484:41444144184411111480008008y81411008480444880y844844448888",
"484181:14884144144444844440000800y4:444yy8400844088y084884148888",
"481141%4800844844880y008880yy00yyy818440y88000410000044844144888",
"11:1411840841144480y081:48000000ii84881408800844080y088888448888",
"14411111444848444480yy048:8i800180841441yyiy81484yi04484181140i8",
"41411111448884448480y088y14i0yy480811881yyy044884yi0888444%484y4",
"444444118448844444480000i88iidi088411484y08888880yy8888408:8y8y0",
"44844444448448844444000yi880yijj0841484808488888y008008401X40:80",
"44444411448444444414880y008400dVy011148408448800yy88y088i4.18:8y",
"11111::14441444444444400808188iAd011448888888800y0800088d8X184yy",
"1:1:1::141111114448444804041840bd01144444888488yyy8008808: #1%11",
"1441111111:1:111444414808y41y88djy1144484000840yi08y088004#:4481",
"8414000848480:%8144848804yy84408Vi1:4448484y108yi0y0888i40114184",
"84448000441804:8444444488yi04808b01:1114104y4y8iiy00088048%14101",
"4444480084480814444444448yy88008dy411144488y4y0iiy000y8888%18801",
"8844480y0014y8148844844848448y08iy844148180000yii00yy08800:48401",
"4884140yyy88y011084444448444800008411111148800iiyy0y088y0y444184",
"88884480yi00y81104::14144111481:111::11:110808ii00yy080i0y484184",
"88084484yiy0y0140411144441111111444148411108i8ddy880080i0y148184",
"008884440dyy0848y8148008848888808008yiy811y4i0ddy848yyyi88%18401",
"888148000yyii814dy840idy1y1yyd0idjjiidy440000iid84yi00iii01:4411",
"884140008yiii018i044yiiy404yydydiddidji840y00iidy8yiyydii0144448",
"488448000iiii014i4:40yyi0i0iydyiiddddbd848y0yiiii0yiyyiiy8841140",
"484448y00iyid014i4:8y00dyd0iyd0iddiijbdy800yyididyydiidi08444488",
"484440000yyyd044j080yyyjyi0iydyijjiidjji40yyyddii0yiiidi01:14444",
"14848000yyyydy44i848000i8y8yybdbbjiiiddi80iyiddii0ydyyddy1::8841",
"184440000yyyd011y81480y08i4iiMjMjdddiiid80iiidddi0ydyydd04114444",
"144880y00y0yd01100848yiiyd0iiMdMiddddiij80iiiddidydjyyii88484114"
};
