/* XPM */
static char *D21709484075[] = {
/* columns rows colors chars-per-pixel */
"64 64 77 1 ",
"  c #4F3A27",
". c #543D26",
"X c #593F23",
"o c #533E2A",
"O c #593F2C",
"+ c #5A4027",
"@ c #56422D",
"# c #5B442D",
"$ c #5C482F",
"% c #574531",
"& c #5B4632",
"* c #5E4934",
"= c #5C4638",
"- c #5E4C3A",
"; c #654326",
": c #6B4725",
"> c #62462C",
", c #66482C",
"< c #6A492B",
"1 c #714D2A",
"2 c #73522E",
"3 c #7A542F",
"4 c #604733",
"5 c #634B34",
"6 c #6A4E35",
"7 c #634D3A",
"8 c #694F3B",
"9 c #645037",
"0 c #6C5136",
"q c #66513D",
"w c #6B533D",
"e c #6F5A3D",
"r c #745335",
"t c #7A5634",
"y c #7C5933",
"u c #72553C",
"i c #7C573A",
"p c #75593E",
"a c #7B5C3D",
"s c #644E40",
"d c #6D4F41",
"f c #665441",
"g c #6B5442",
"h c #6E5945",
"j c #65574D",
"k c #6C5648",
"l c #6C5A4B",
"z c #715643",
"x c #735B45",
"c c #7A5D43",
"v c #715748",
"b c #735D4A",
"n c #795E4A",
"m c #6D5F54",
"M c #766144",
"N c #7C6245",
"B c #76614C",
"V c #7B634C",
"C c #746352",
"Z c #7C6451",
"A c #7E6953",
"S c #815B34",
"D c #825C3A",
"F c #84603B",
"G c #8B643E",
"H c #91673F",
"J c #815F43",
"K c #816245",
"L c #8B6541",
"P c #81654C",
"I c #86694D",
"U c #896B4F",
"Y c #816751",
"T c #836A53",
"R c #8A6E52",
"E c #886F59",
"W c #867058",
/* pixels */
"g45bAMMVMMAehq@-Vh@wTMM+UpKFatLuxnciDSiurbBlflBABMBBBNZVVN+@w8zu",
"q7qbCMMVVMAhee*qCg+qVVb>IiKaJtKtpcaaDSir0hkf-%5*$*$*5$*$wg@#uw85",
"qgpxMBVVMMMewq$wB959MNepKpPaDrDrxcciDDt1>8ggffq5q99q9q99qw+6zzz8",
"9hBMMMMNMMMqwq&wB7w9wx0nxiIaKrDrucKDDDSr,8vmCAAAAVAVZZNCbN44dzcc",
"qnVnxNVNNVVpeh4wC9e96h6VpaIiNrapupKDDHGS6uvbmZJnMMMMlMMhxc4#88nP",
"hVZNxNNMNNVeew4hZwwww00NeNUuKpap0aDSDHJD6gzgddd8qeqeqqwqqz44u8nn",
"xnVVbNNNMMNwww>hMw$wx6wx0KReNrparMD3SHLS<uvgddddqeqeeewe8x56z8nJ",
"VVVVNMMNNMx66w6xwq.qp*z05NI0c0raraDSSHDt<dbkd8u8qqq9qqqwun5486bn",
"ncxNINNNMNMeuw5qxw9weeweecex0x09eM22SS3i<ugdddzcMqqMqVwBg5#6z88T",
"nxxMVNNNNNaep050h6590w0eubuN0ceeee22y31200ggddvnCehAwMwB86&>wu8z",
"VcxMNNNKNNaMc65xxq>>#$>4+$#>@>++$9$<11:<68dkgvccVeMAwx9x7z6#znc8",
"PcpNNNNKNNaIJ65cNw9$####*>#*>55&$$+X<<:<68sggzcVVhAZqw9w8xw48ncw",
"PczcNNNKNNNKn65nVbpwwwwebhqwMhhqmh$+,<;>67fggvnVAhAMwqqw88548uzc",
"nnccNNNNaNNNn66PTVVxeew9Nww9Bweqmm*@$,;5qqfkhbbNAeAMewwww855u8dZ",
"nczcKNNMuNNar58PVVVxhww5VhMhBqggjj-@>,,uwqffhMBVAqAqwwxwuw55uzuc",
"nccVNKMNuNVp86wn6xNbnNBxVBVex&wgjml-$+$wgggfhlBNM9M-w7hwqw44gzs8",
"h4@&4444@@#5*%gZq88nYYnzPbwwVNAqllf%*57q7sggddnZe9fhfqg77q7*&&4s",
"g7&&-****&4fq47bzzzvZnz8Vnu8VxV6bl-%-77f8ggsdkZZlqff7qhqfq7**47f",
"gf777*-7gqgbbffhbnvvbZnvMbp9xqVwBB-@*qqfsgggdknZBggq7flfg7**7ggg",
"gggf7-7qCblBbhgggbvdznYcxxe9u6MqCC*@--qf8ggsdvnZBhgfqhbgq7-7qghl",
"qgq77%*7ZBhfggfg7hv74hnVMCMwx9BeAB-@*-qqsgg8dbZZhqgggbBg7-77gghb",
"g7ff7&-7Zbgq77gh7bbg7gbZVAVeM9BqBB%@=-qfggg7dvnCfqgggCZg777ff7gb",
"gffgg77flvggfgggvblhwwhBMCMhB9x9ej-@*77hsgs8dnZCq7gghZZfg7*7gffh",
"g77qf77777fgfff7gqqqfqqgqfe9x9M9-q-@-7gzggggvvYZgfgffBCqh*%7gg7f",
"Bl7gf7-&7o7o7%*&&%**&#&*+@$5$$5#*%%%-flqAdgsgZZC77gCAAbgf7 &s7b7",
"bgf7gf7&7%7%*-&*-*=7&&&*$@$9$$9$--%%$qfqn7gsdYZbgghbAAbhs7O*f7hf",
"v7g7B7g7g7s77k7g7gg75*479*9w9ww9ff9$-fhfbgbssYndgfghmbhfg%*-gl7g",
"h*h-AqvfbhglfZgngvvh778wq9wMxbMhhlf-9fhlbvb78Ynsg7fkbbgqb%7*hZql",
"g-b7AfCghfqgqZgC7vvz88wg0qxVVVVheCf-felCg7k4dTZzsghbZBhfZ&%*hAgb",
"g7h7Cfbgg7qffbgb8gg88gz8q6pVVNNwqmq%ffqCv7h77ZngggvbCbhgA*o*bZll",
"gqgghgggbqh7fhgh8dd88vv8w8ucbbp99Cq*fq9Mb8vsdbg7gglbbhg7b-o7bhbh",
"gf7fq77gCqv*f7fggzg88cz7nuhxxxx59Cf-fe-lk4ggkbgqblbxlhgff7 qBqvh",
"qv7g7g=-fffgqggw9wwwwe9qBw9eqCqx-9&%qgfgqhgf7fgqhvxAhxqeq*-@Melh",
"qlshgh*7&&&&****5*>*$$$#9$%-$q%-%-%%ggqffgg7qghqhuuVxhqwq59@lehe",
"7g7ggg%-*&-&*&-*$$$$*5-99*-q%e@q%q-*ggqq7gfghvhqvzxvBew9q9*@efff",
"*q*g7fO&f7g7gqgqqqq09qwwfqfx-x7x9hq-fhgggfqglvgqbwMxVqeqe9*$fe99",
"&7&g7gO*g7h7v7hqewwwq99qq9qe4e5Bgbg&7gggf7qglbgqVuVxVqwqe9$$9f99",
"7f=hgf%-7-h&l=gq7qwwgwwwhwww4xqVhCg&*ffqgqqhbhgqVbVVVwww9e%99f-e",
"fg-hgf%7f7v*b-hf-9qhxMxvxehbwVuVgbg&*ff7f7fhhqfqxVnVhw9g9f%$-e9l",
"fg*hg7%7g7b-B7bgwwhxhgwqhwwcwVwnqCh*7hghg7fhgq9gvVbIww5e9e@9-l9M",
"gh%ogfO*7fffgggfgqhfZqgq8088uxu8gbh77gfggChqhfqZ9AMC9f9f9f$@9Ce$",
"qg*@gfo*777gfghgfqghBghwzur8zcp6zbg-7hqggbf7gfqbeAMC9e9ee9%$eCef",
"-g77lfO&7f7ggghhqf-khvgzvz8ucJc8hb7&qlgfhh77ghglhVMMeC9ef9%$elfe",
"7gfqh7%=gggfgfgg--=k7z7hduduuvcchv7%7khghhf7ghhBNAMlMMe9e9@%je9l",
"fgggg7&%ggggfgggss=l7v7g8uduurcPqbq&-ghbggkgqfBVAZNhMCe9M9 $e99C",
"7fq77-**fff77sfgffskghd888uu66uJwvq#&qhbs7gg7fBCZVnwCMe9C9@$999M",
"-%=7-74&77747-77jfkkngzgdr66rrucvbq@*fghg7fg7gZVVVVwC9e9Me%@99%f",
"OoO7=-7O774%&&==f-jdZqz8d4>6udanVBq@*qqfb7ghqbACnVV8C9e9e9%@%%%%",
"g777v87gv787vgOsgffgghu0wcb4bqwzPPe+*ewqffgqhBZVVnxuebnVqv@9-gqq",
"nvvvvddvd8zgvdO8fffgw888wczwqq-qxN6X$qwqfqqqwBNNPVVupMVVwx@67gqq",
"87dd47v8s8vdzs=ggghhwq0wxczV9bfgra0+>wwhfq99hBVBVPn0wbnhxB@4qhgf",
"d5vg=dn7nds8dd4bhvxvzuwu558x#qg48p0#>9whhfqqMVAVnPnq0nnuBB@&fghq",
"Zddd4dvOZvdsgg7vhhhgu886u6cnhwCg6r6#495qffqfMVZNVPnuxTTbAV&%gfg7",
"n877=ddOndvdcvO8gf7555<5>>8O4+q+,6,>59**9qqhMZVMVVczNVYVAB6#h7g7",
"nkddvvbvvvnbbdOdv74456656rz6wqqw5r00ew99%qhxMBVMVz0xbNVVZb7#h-lq",
"bd47g87dvvZbvsOvnh558uu68VwzzVhVuapxAZhf%qMCVVVVPxubVVbVbbq%v7hg",
"dssdddvYZnvnvs=dVZqwx0ccrczVnEZnKIVaVTAq%qCMZMVMVTVVVVbYZBw5qgqg",
"ddsdddvYnYnnvd4sVV48zuccpccPVEYnVKNnVWVq-qCBVBAZVPYVVVVPZBq*qgfh",
"dddddkvYZZnZbs4dnxO4urxccJxPnRVVNNVNTWZq-hMCMVVIPnVRNNVbZB7*qggl",
"kdddkvvYZZnnv84dZb>5cuarcJcKVTVVNKKNIWVq%ffBqCMVY0bTxVTqMh-#qggh",
"dsgddvYvYZnnv8=dYV5uPcKiccpPnTVYIPNNVTBg%ffBwBbVT0zVxVT6gw4&qgqf",
"sd8gvvYYZZZvb84dnn40PNKJcirIPTVPUKcMVTBg%fxBxVNVTzxnVRVwqw4*gg7f",
"s8dgvYYZnZnZns48cvO,cpKccczRPTVKPKNNTABg*fBBNBVVPncVVVNVqw**ggqg",
"8gddvmYYvZZYYd48Yc55cpKKKJcRIYbVNNMVTWBw-qZxABTVVIPnVBBVhg4*fgfh"
};
