/* XPM */
static char *F11709485635[] = {
/* columns rows colors chars-per-pixel */
"43 87 110 2 ",
"   c #4D0000",
".  c #540000",
"X  c #5C0000",
"o  c #650100",
"O  c #6B0303",
"+  c #640B07",
"@  c #6D0907",
"#  c #6E0708",
"$  c #6E0A09",
"%  c #700807",
"&  c #730C0C",
"*  c #790F0F",
"=  c #6C110E",
"-  c #74110F",
";  c #760F10",
":  c #780E10",
">  c #761312",
",  c #7B1414",
"<  c #771917",
"1  c #7D1816",
"2  c #7E1718",
"3  c #7E1919",
"4  c #7F201E",
"5  c #811717",
"6  c #801817",
"7  c #811719",
"8  c #831B1B",
"9  c #891F1F",
"0  c #85201E",
"q  c #88201F",
"w  c #861F20",
"e  c #891F21",
"r  c #852222",
"t  c #8C2423",
"y  c #872826",
"u  c #8D2927",
"i  c #8F2728",
"p  c #8F2A29",
"a  c #902626",
"s  c #902827",
"d  c #922629",
"f  c #942B2B",
"g  c #992F2F",
"h  c #95312F",
"j  c #98302F",
"k  c #972F30",
"l  c #9A2F31",
"z  c #963131",
"x  c #9C3333",
"c  c #9E3937",
"v  c #9F3738",
"b  c #9E3A3A",
"n  c #A03636",
"m  c #A03837",
"M  c #A23639",
"N  c #A43B3B",
"B  c #A93E3F",
"V  c #A5413F",
"C  c #A8403F",
"Z  c #A63F40",
"A  c #AC3F42",
"S  c #A74241",
"D  c #AC4343",
"F  c #AE4947",
"G  c #AE4748",
"H  c #AE4A49",
"J  c #B14747",
"K  c #B04847",
"L  c #B5474A",
"P  c #B44B4B",
"I  c #B84E4E",
"U  c #AF514F",
"Y  c #B5504E",
"T  c #B8504F",
"R  c #B64F50",
"E  c #B65151",
"W  c #BB5353",
"Q  c #BF5957",
"!  c #BE5758",
"~  c #BE5959",
"^  c #C05656",
"/  c #C05857",
"(  c #C35B5B",
")  c #C95F5F",
"_  c #C6615F",
"`  c #C8605F",
"'  c #C65F60",
"]  c #C76161",
"[  c #CB6363",
"{  c #CD6967",
"}  c #CE6768",
"|  c #CF6969",
" . c #D16767",
".. c #D06867",
"X. c #D36C6C",
"o. c #D86E6E",
"O. c #D4706E",
"+. c #D8706F",
"@. c #D66F70",
"#. c #D77372",
"$. c #DB7473",
"%. c #DF7778",
"&. c #DF7D7C",
"*. c #E17777",
"=. c #E37B7B",
"-. c #E78584",
";. c #EB8484",
":. c #F18A8B",
">. c #F68F90",
",. c #FFA8A7",
/* pixels */
"G P P ~ R ! A ' A b G z Z b v z h c Y h U h V u c V s T n D g n n g g n n g g n B n x ",
"G ~ W R R } G G ! G ! b Z b b Z V V Q c Q c Y V V C C C g C n C n C C n C J J n B C B ",
"G E ] } ~ ~ G ' ! ' | A v Z R ~ V U h Y h Y c V ) C C C n I C ^ N C n C J L D n n B D ",
"R ! } | ' R P #.~ } %.G z M ! ' U V V F V V V V +.C C C L L C ^ ) C N I ^ L J L B B B ",
"' } } G E | ' ! } } | A Z A E E V c F V C C V Y ..m W C P C g L ) C g J I J B I B B B ",
"] } } G ( #.@.} ' E ~ A ' @.} E V V F Y C { C { T P o.C C n n C N n g g n C J J B n n ",
"] ' ] G ' @.@.X.R A ~ ~ $.&.@.' _ Y #.C { _ _ { C / ` C C C C C g n n g g C J J n B B ",
"} X.' k ' ;.X.v b Z X.' @.' ' ' _ _ _ Y c { V C ` / C P J C C n 9 9 9 a 9 9 g N J I ) ",
"[ ! ! , A @.$.! ! | ' ~ } } R } Y O.{ Y Y U Y Q C ( ) C I n ^ n g n n a g n N J B n n ",
"} ' ( y Z ' &.:.~ G Z | %.! R M _ O.O._ _ Y C Y P ^ ) L ^ I  .^ B I L C g g n ^ L n n ",
"A R A 4 d ~ | } Z k ' ~ G | ' R #.O._ _ O.{ Y Y W ^ I I ^ I ^ C ^ J g n B B n N I B n ",
"%.A 2 w y i A >.| E Z } G e ~ @.{ { { _ Q V Y / C C C I I I I L N J n n n g n J L n g ",
"k A A z w d U } @.~ R y v ' ! } O._ _ _ _ C C C C I I P C L C L g I L n g n B J D x g ",
"i k y < , ; Z } ' ~ w b | R ! @.{ Q Y / ` ` ..I +.) ) C C n n n N ^ I g g B J n B g n ",
": k l w z y b d ' $.| Z U E v A V C ..O./ W  ...( C ( n C C C N g ^ ^ N a a n J n g n ",
"d y l b Z X 2 v } &.| R A k k b C V T _ ` O. .C P n W g L C n a n J J n g n N B N x N ",
"Z Z Z M 2 w y l U #.#.&.b = z Z G R I o.o.J J ' L C C C C L L L I ^ J B J L B N L J N ",
"A Z d l 2 4 4 4 U | -.,.S < e i Z W W ( ( L J L ^ C C ^ I ^ ^ I J ^ I B n n B I J B N ",
"Z l d l w r 2 = b b &.&.-.k z w L } } ( P A W ( L C C ^ I ^ L C ^ ) I J J B J ) I D B ",
"Z l d l 2 4 4 k U ~ S S %.' y Z ' ( A L W I I I I C I ^ I C C C ^ I B B J B n J I J B ",
"M b b A p p y p # S S ' ;.;.f f J T J J I P W ^ ^ L ^ ^ C ^ ^ C N D J B B x n J D N N ",
"A b l A z v 4 < < 3 z b ' %.@.v 9 L T L I W ( W L I I L C C C L g n n B J J B J I B N ",
"R z 2 4 : y y y z k w R A #.@.l d n d n I ( ^ g C C C C B L C C g n g g B B n n I J B ",
"; < 4 z r r ; # b Z v k R G ;.@.f C J P J n L ) ^ L L C I ^ ) L J ) ^ J N B D I L B x ",
"z p < y z z p = G R A , R } Z %.C ^ +.n N n ;.^  .^ C N L B ^ ^ ^  .*. .B  .x J L B N ",
"4 = X = w b ! H k k e ; l Z l =.*.) N a C g M C ) P L B L n n n J n g D n B g J J J B ",
"X X + 4 p k v e d l d w e e Z %.*.x 5 B C J N L C N C B ^ M N g n B g n n B P P n n g ",
"  . . > 3 4 p e 2 l d e , 2 G ! ) f j L g P n g N n B n C N N f a n n n g a N B n n x ",
". . . < < < v v : d d l e e P A g B B g g B 9 a C C C n B n n a N a g n g 9 9 C n n g ",
"  . + 4 4 2 e e d e d A l 7 l l N x n g x B B N ^ ^ B g N g M x C a a a a g a B g g g ",
". . X < < < k v k e k l 7 # , w o.B n J g n ^ B ^ B N g B n N N g n 5 a 5 n x g N n n ",
"= = < y w 3 p d k l A e : : e d ) ^ a M n M C P ^ B N n B g M B g L 9 J a 9 n n n g g ",
"0 6 6 q s 6 q j s j C s q s C q  .^ N C f ^ L ) x L N B N g B x n g n g n g 9 g n n x ",
"6 q q q s s s q j s C j j s C j I C g B f I B L C x L N g x a N C g n n n n a g g x x ",
"q h s q s V g 6 j s j m j q j m B n g n g L g N n a B x 5 a a N N a g g a 9 5 5 x x n ",
"q V j q q j s 6 j j V j q 6 q s C N n B n L g n 5 x x x 9 9 C f n g N n g g 9 9 g g x ",
"s V g q q g s q j C C m q q q s L L C n B L g N a n n B g 9 N f 9 5 a a a g a g 9 a a ",
"q c j q s s s s j C C j q j s q L L C x B B a x n 9 n B n 9 5 f 5 % 5 % 5 5 5 g 5 9 9 ",
"q j j q q s s q s T C j q m s q C C n g B N 9 a n a g g n f 5 N a a 5 5 9 9 5 C a a a ",
"q c c q q q 9 5 j C C C s m q q N C n g B N 9 a g ^ g a L C C L a M a 5 x x 9 L x g g ",
"* s C & 6 x t q q o.C s C 6 s j J J C n g n n n a g a g f C B B N C n a g N g a n n f ",
"6 j s % t j t 6 q C C x C 6 q c N N N x g n g g a g n g 9 f n B n M g a n B g a n n n ",
"s x V 5 c 6 x q x j x m C q x T C n a 9 9 a g n B n g f n n n n n B N g n n g g f n g ",
"6 C s C * j s C C 6 j m c q j T J n a 5 5 a g n g a n g n 9 f n N B N g n n n n a a f ",
"1 * C * t s V j j 9 C C C g n C C n g g n n g g N g n g B f n n N g a a n n n g a f a ",
"j * j * s C t % j s C I C x I C N n n n N n n N C n g g C B n a g n g f a 9 9 n n g a ",
"m 6 C 6 C q t O g s x C f a L g N n n n n n N A f N N n 9 9 a g g N N g a 5 5 g n g a ",
"6 t j ^ t 0 0 q x C n C C g I a n n C L A N n N N C n M a n g n C g 9 f B B g f a x B ",
"s q N N n g 9 N n 9 ^  .C C n g C N ( g N ^ B ^ n n C B n a n g B n x x n n x g n f n ",
"f m P N g n n N g n n N L N 9 B B C L B C N N ^ ) ^ B C ^ C n C a N B a 9 a x N N a x ",
"n ^ I C M M C B n B g g ^ L a C C C x P ^ N C ^  .B C ) g g N n I A g a a f g f B a f ",
"^ ) C ^ B a ^ ^ M B C C C ^ L g C C g I L I C C ^  .^ C n C n ^ L C N x a 9 g N B a a ",
"` ) C ^ N a ^ ^ x n N C ^ L C g n C L I C P m C ) C ^ ^ n C ^ x g n N x x N J A g a n ",
"^ ) ^ n g n C C g n 9 x ^ n a C x C ( P N C j C ^ ^ C n ^ g g N n L B g N ) ^ g g g I ",
"L C C g a B C C N N 5 f L N n B V K T T ^ m C T C M ^ ) C n C C g ^ ) N f C I A n x L ",
"C a g f g C B ^ B n g g a C ) 9 P P c ^ *.K ` W N ^ B C C ^ ^ n n C C n g g N A N g B ",
"5 5 g n B C L  .B 9 x % % n *.*.;.` _ T V _ _ c O.V C _ _ ( h V o.) ^ C J ) J n g C ^ ",
"5 a N C C B C ^ L x N L B ) ^ ^ c K c C ;.P q / h _ C C _ V V V  .) ) A C I N a f N L ",
"5 g n ^ ^ g C ^ x 5 n ^ ) C n g V m P ..+ C =.u 0 6 q V C V V T N B J B D ) I L B L ^ ",
"9 C x ^ ^ f C ^ L 9 N n C 9 C ) F K W V C F =.u h 6 * Y x q O.C n B B C B I L L g n N ",
"n ) g ^ L f B L 9 g g ^ f 9 9 g h 0 X + - Y $.= h + c 0 - C C h n N N n n n C N n n n ",
"B  .a ^ L n C ^ C C g B f g n C x + p Y O.h C - { V 6 0 V _ _ h 9 a a a a a n C x a a ",
"C  .a B ^ ^ B C f n g g B f n a x V Y _ u u u 0 -.h 1 y C C 9 9 9 g 9 a 9 9 g g x a a ",
"^  .a n C ^ g g f ^ n ^ N C g n h p h U h 1 @ C 1 @ 1 Y C g C 9 9 g 9 a g a n n n a 9 ",
"n B n g C ) 9 g C  .^ I x C C N C % % q o o i t & , f e d v 3 e i d t 8 7 2 e v t 3 , ",
"B g B 9 B ^ g C ^ ^ n B N L L C t 5 O O O ; i # ; w w i k p i k w i w 2 7 , 7 k t e w ",
"g 9 L a C C n C ^ L x I I C N a , & O * 2 2 p t y k 3 y e & 2 4 2 7 , : 7 2 2 t , , : ",
"n 9 ^ B L L B L C L C ^ I g a 5 t ; s x i z b Z : e 2 3 4 # 3 e , ; ; ; 8 2 8 i 7 2 w ",
"L x C I B ^ L ^ C ^ L C x 9 g a D w ~ G k } Z ; & w d 2 & , : i w , # ; 7 2 8 i e w w ",
"L x N ^ C ) C C C ^ L n x g C n G t @.' D ' k , , i b 2 & : o , t w ; ; 2 , 2 k w 2 2 ",
"N a x L I ^ L C B C C n C n C g Z z E ! R b 7 p # , w , 2 , ; 4 t 2 ; : 2 , 2 k k i t ",
"L g n n ^ ^ ^ ) L ^ C n N f B g M E k w b k 2 2 ; 2 # 4 e & , : 7 , ; : 7 , 7 v v d i ",
"N g N L P L C ^ P L C C g C f B d e 2 y z z w , ; & : 2 2 , : , k f , ; 2 2 , i f f a ",
"9 9 N n n M n C C C ^ M B C C g i 2 w r w i p : 2 & # , i e 2 # t k t w k d 2 , q f j ",
"9 g C n f n n C ^ C B M g B L n l 4 d l , y M 2 2 = & 2 i d 2 = ; d x k v v i 7 * q g ",
"x g n a 9 a g N C I N =.C C g 9 l 2 d k 2 2 d 2 , , 2 4 4 2 w 2 # i M b v k k i , s N ",
"L g 9 9 a x M ^ ^ ^ C ;.N B M g k w 2 d i 4 2 y ; 2 2 2 , 2 2 w w e l Z M v l k 6 t x ",
"C 5 5 9 g B L ) ) ( C n 5 n ^ C w 4 2 e k w 2 d 2 2 2 ; , 2 2 : p 8 i S R R D z 6 9 t ",
"5 O * 8 x J L ) ^ ^ ^ f f B C N 2 : 2 2 : 2 4 ; ; 2 2 2 , , , : e w f v b D J v 8 w t ",
"O % a x J ) )  .o. .^ n g ^ B C k y b l : y M < # 2 d 4 : # : , 2 e v i ; 8 z f % , 2 ",
"6 % f V T =.....` T C ( C / V / l y k 4 p p p q @ - 1 0 0 o 8 - * q N N 5 % 5 g 9 9 9 ",
"q 5 j ^ O.*.` o.T / ..` / T x x i , i w h y 4 1 > - 4 0 1 @ > & 9 a n g 5 * 9 x g g g ",
"j T ` ` +.=...C C ( ..C C C C V p < i p c 0 < 0 > @ & > & 1 - - a a g x a 9 t f x x M ",
"+..._ +.+.^ C _ C / ` C C C / C Z p b p c h q q q - - 0 - h 1 0 q f n n n a 5 5 g x N ",
"+.+./ / C C / *.^ C / / _ C C C R Z F f c z s 8 f > > 1 & f * - * a n C C f 6 q a g n ",
"C +.=.C j / { C C C C / ..C / T W R W c V N s > q > * 1 > q 1 % 5 g n n n f a x a g g ",
"( C *.=.( T C / C C f C / Y ( _ W H ! Z H S z 0 q q q u f f c q 5 g C x x f f C g g g "
};
