/* XPM */
static char *F21709485635[] = {
/* columns rows colors chars-per-pixel */
"43 87 62 1 ",
"  c #5D0000",
". c #640000",
"X c #6B0403",
"o c #6E0A08",
"O c #700807",
"+ c #720C0B",
"@ c #790F0F",
"# c #77110F",
"$ c #7B1413",
"% c #7E1917",
"& c #7F1718",
"* c #7F1B19",
"= c #801616",
"- c #801817",
"; c #831C1C",
": c #891F1F",
"> c #86211F",
", c #88201F",
"< c #871F20",
"1 c #872321",
"2 c #8C2423",
"3 c #8D2927",
"4 c #8F2728",
"5 c #912727",
"6 c #902827",
"7 c #942C2B",
"8 c #982E2E",
"9 c #95312F",
"0 c #98302F",
"q c #972F30",
"w c #9C3433",
"e c #9E3836",
"r c #9F3738",
"t c #A03636",
"y c #A03837",
"u c #A43B3B",
"i c #A83E3E",
"p c #A7413F",
"a c #A8403F",
"s c #A73F40",
"d c #AC4443",
"f c #AE4846",
"g c #B04646",
"h c #B04847",
"j c #B44C4B",
"k c #B94F4F",
"l c #B8504F",
"z c #BC5453",
"x c #C05656",
"c c #C05857",
"v c #C45C5B",
"b c #C85E5E",
"n c #C8605F",
"m c #CB6362",
"M c #D06867",
"N c #D36B6A",
"B c #D8706F",
"V c #DB7372",
"C c #E07877",
"Z c #E47C7B",
"A c #ED8584",
"S c #F28A89",
/* pixels */
"z6wmf6zkucufd07du0httptpahj77aptluxtia8wgi8",
"w6uhzzlpizwdduuly0auufahaapyuhaavaj8wgijiix",
"llzfvVpufz0upuelcpaajlhlhupaplhjiiklxmiutxx",
"zfidkzpcdjufjzzBnftalzhpuhlapvlhgaagibgjgxx",
"khpvpizMlzjzfjjMjaalljpaajlphvlpiiixgviuxix",
"uvzVfjmmzzzvdduzhnBBnhjhljzzccjzxgiutgggit8",
"$fdvkNMBzlvMzNmZnZZCnlclclvvczjvuigggiiuigg",
"wzdjzZlZnjvMzMnNnBnccvNcalvjaljjgxi8u8xxxxb",
"hhddvSzMljfmnBmmvBvzllncncljvanzgigigixxxiu",
"f0nyjjNZnnzlmVmBZZncjlMClcclltccxxxxxggigit",
"7uuezvemzpzllmnlnhzncnBBnmncnlvlvxggixxx88i",
"jyVNjhlwlflwzzelMuhapnnzmnllzjjaiggbxxisitu",
"ujhMpVlgNyljfdljcaljhNMlzlzlhaplxggbgxiiiw7",
"2j0XSMdlflffcpwh6pnnzNNzczznlncnxgiiwtgxsti",
"ufjzzdjxpzhvpulyhnchpaclnljzlMjlttiiitixx85",
"y27zfjNZcAzluhNmjnpjlhlpnnnnjzthgixii5ixuti",
"6wulphpufhvlNhMalnhhacllNnzlnnjpiiiigixxiii",
"yp7wucp6a0tNNZBAnnljhnvcjncjhhhjxxxxxxixggg",
"yhw0wf0whaazhClMllauycllMnlpznjagxxgggxiggg",
"plfjfw5ljjzalNmnlzphhMMnnncllhplixgxiiixxgi",
"llilncyjhhhhNjMBfjahjnnnvclzchpvxxxiiiiiiig",
"flahcMfwulyph0fhjllnnBMmNvlcnzhjtixgxii8iii",
"7fpfuju7,ju0ehpuuffllnccpnnzhuuhiixiggititi",
"yytfwu077007ah6htahclncvazcjlnlhgxxgixxgxxi",
"g0wfuyuwywatp0upfa0vlnlBllvncmlltixxixxbbxx",
"yuaytay2w000t70070uluNNnljllhlahxitxiiiiiit",
"7yyyaju0e600u000u70jfZBymnnjhhajxitiit8ittt",
"607ilftp0900u0t067tcuappnjctuuaattiii8tgttt",
"007yhu0y7600y0ee0uylje6jhuh0uuahtiii8888875",
"6e00ufuw7600y6typp0ynnyhlplphlhhiiitiit:755",
"80weyhf000e0p0tt,0wtjhahjhhhalaagiitigi8855",
"u60fuww6t000u0e0t60hzzjfaapjhnfaittiiiti75:",
"8tttitt8titit5tiiittixxxiitxxxiigi8itxt5iit",
"iiit85:5tt5tgit:8ggt8iiixiixiitiit878tiittt",
"iiit85558ttii8t8:ix88iitiiiit78it7t7i8tittt",
"t88ttitt:tii85ti5tt8iiitiiiit78ii57tgi88itt",
":558ttit:8:88ti8itttitttttiittwtxt:5885i887",
":5ii858i55:5tit5tttit77ittttt855ti:5:5:i:::",
"8tii88tt588tt8t8858tt88t875558885i87t8:t555",
"tt8tttt8tt8it8igt888ii8:75555wig8it5xi8t588",
"t8ii88t8ii5itit857g:t5gt882twt55i87igititt8",
"t88t88888t8gtttt88i8t8t88wtwt885tttttttg88t",
"ttt88t8888tit8it7888t88888u:85ii888tt8ti88t",
"txt8tt58t588iti5855t8t8t8w8=:5ax88858iitt88",
"5it8tt58t558i8t5it5iti7ttu85:iaa8t88tit8588",
"5titttt8588tt5t8gi5itittti8iivaa8iit8888888",
"t8iiiii8888i88tttt8ttiitaiaajxxj8tit88tit85",
"ittiiii8ii5giit8gitiiiitbajaaijat8588tiitti",
"8ti8p0pkapp0yallxplyyapcaaaxajwaaatpaatya8t",
"xg8xay7jNxajaywayaplcnaapahpanlpha7y0aap8:8",
"aatxwajMnxj0ypajanywapxaxaplaclyaaapaaap8,8",
"tibaaancZpccla0canVNSzjanayclaxaaaapaatay58",
"aavaxmMamynNcptxjjcznjylajapajmala87yayyu8a",
"axamvNczxpxlaaplnzxBxNyaajayayapyyaty0apt0h",
"bbxvkkaxApava0aMncnNazaynxlalw6a7ylaa7ahayj",
"xji2jxxanayptpxalnZnayCjcnmyxlwpjaptataaaya",
"kapwaap0apvyjlyazSnaACBMlllyacpwat07wjMCjxj",
"aalazaptaaajavpcyjyplllapaptalpy7wyapalzaia",
"jap70,70yaaaaaaja07jypawaaayypyayaaaapahaxx",
"0wpapatwwaaaa2ayxaaxpplaayppyy0yppyt0ypatuu",
"ay0waaakapjaa2pwcpayaapyutapyw7wwwyaa000iii",
"atyaap75apanwwaaaaj5aaaaw0aape60w0yaw6,7555",
"ty0paaaaaatp5aayayayapayyyaaww67aw007,60558",
"2tyayaw0k0pw0wa0a7ajta07aaau0w66pwww067y775",
"72yppw6waapt80yyauuutii7aitatu88srq44qqq<<&",
",,wyyw7apaau0aaptuaawtiauiaa888tqqq44q4<&<<",
"07ppw0,0pywaaapawiga88uuiuwt8tt5qq<&&4<&$&&",
">-200ywaawwpaytyittt8wt7it888iu5rq&$&&&&&<<",
";#,20atpa0yppyaat888wii7tiaw28ttr4<44&$@&&<",
"6>226070aw0yywya8waa8wutiia855twr4444&&&@&&",
"#=267wwpy00tywty8uaa88twatt58:5=4rq4<444<44",
"=;00707wytyppp077waawtuti7t75==O&qsrrss444q",
"#;wwp7t6awp=aptt9ee9ee9327p>>#>o&<4qr44q066",
"77a00,t7p77=7000eppp97>#72w,-o$o&&+&rsq4ue0",
"==0677aapw2->>w69ppjpp938>2,>+##o<&@<qsseew",
"072pyaayppww77a,pp7p3e*37>,6>$$$<4<&4rrr7wy",
"-+#;7yayt0-,==,Xp9#3#1#*3>>>;>>#+$$@$$&48wu",
"p,a>a;a0wp67,6,+o..999%****>#>*%@<qq<$2jrue",
"2=72w,aa0y076a,,  oee*oo1>%3#*%*&&+o$&*<q43",
"ap0pya060ppapp0pe*>99%*e3*%9*%#><7<o+&<<&$$",
":==tt:5iiittutwiee9fae>76,6t7=##>266-=-6#->",
"==:8ttti78wigiuipp9e06$,,6>>,#X=880t080y68w",
":8ittiguiuw8ttta0pep00,,>t,%6-X-227taa0wwya",
"iist8iiuuiiiau776atpupwt,yt66;#@->7apa07wwt",
"tuiw8uigiaiuaauiplp07pah00a0-;;O:;5wut5:wtw",
"78tiiuixbxi80ijxhzaaaljjhtaa$-7$5::65555yyw",
"57ixitixxxxiaaaaalajlnlgjaha,,7,tt8888uxaw0"
};
