/* XPM */
static char *F31709485635[] = {
/* columns rows colors chars-per-pixel */
"43 87 75 1 ",
"  c #650000",
". c #6C0504",
"X c #6E0907",
"o c #6F0B09",
"O c #730D0B",
"+ c #790F0F",
"@ c #75110F",
"# c #78100F",
"$ c #771311",
"% c #7C1513",
"& c #7E1816",
"* c #7E1A18",
"= c #811717",
"- c #801817",
"; c #841C1B",
": c #881E1E",
"> c #86201E",
", c #88201F",
"< c #862220",
"1 c #8C2423",
"2 c #8E2927",
"3 c #912727",
"4 c #902827",
"5 c #942C2B",
"6 c #992F2F",
"7 c #97312F",
"8 c #98302F",
"9 c #963230",
"0 c #9C3433",
"q c #9E3836",
"w c #9F3B39",
"e c #A13737",
"r c #A03837",
"t c #A43B3B",
"y c #A83E3E",
"u c #A5403E",
"i c #A8403F",
"p c #A64341",
"a c #AC4443",
"s c #AE4947",
"d c #AE4C49",
"f c #B04646",
"g c #B04847",
"h c #B44C4B",
"j c #B84E4E",
"k c #B5504E",
"l c #B8504F",
"z c #B65451",
"x c #BB5353",
"c c #BC5856",
"v c #BE5B58",
"b c #C05656",
"n c #C05857",
"m c #C35B5A",
"M c #C85E5E",
"N c #C4615F",
"B c #C8605F",
"V c #C76361",
"C c #CB6463",
"Z c #CB6966",
"A c #CE6B68",
"S c #D06666",
"D c #D06867",
"F c #D26B6A",
"G c #D4716F",
"H c #D8706F",
"J c #D67471",
"K c #DA7473",
"L c #DC7977",
"P c #DF7B79",
"I c #E37B7A",
"U c #E8807F",
"Y c #EC8684",
"T c #EE8A88",
"R c #F08887",
/* pixels */
"6fafyfeeytyfayyt8igr7ui0igiiiiiiuNNkzvzcksg",
"rth0f0yefyfateeair0ughi8gnBBiihlkBZcczzzhuu",
"0yeh0jyffybytyfMitgnhtijiiNniuiuuzvNNckchii",
"eeafbhjfbabyybbSxuixblhilgngBlxiwukZAvzzsil",
"feffjfbfbfbyyfybliighnnhilirBbiicddAGNzzakD",
"ye6bebjbfbfyaaye0rii0inmiHjBnFiBZddZFNNNukZ",
"y:fahebbybybftfer5358gliilbBhNlncwdAFBBN70u",
"a0aMyyyyyMyba5f63378,5tgltHBBnUndwzUJZNc077",
":6fjtey6ftyebfbetrr8ruilhtBHgF0mdwcAJLVJw1#",
"e6fbyettyyfyfffbinhrtrtnthHBgUlezzNNGLNvsq7",
"jyfbfyyjyyfbfbbfnittubnggiBBthblckvZJUZvkau",
"bffbjjjbbbfbbbbfrli5iiiBUlglhybicudGYUZVlsu",
"yfjffbfajbyjybffigli37gixlBlbMHezkzUTJZvhuq",
"yjfyabayabbftyyygBg7ii7t;hHlhhSjdNZJUJGd070",
"ybfeffyjybbtyeyetlmg35tihglhbfyywZGANVVp777",
"ffeeyyybfybefyy5slg8rt77rthnHSbIwVZZcudw004",
"fetyfjjagiiighhglmhf0y63beefyybtnnlnniiu8i5",
"6fSSjfjbnnxlllhgfhffyfiyf3yb36b3BlilNht,4t,",
"6fMSchjjiashhgiibljhftteyyeeyyfyju1rie5=;1=",
"yeyfffatiiglllhghihibeyfyb61ffybli0tu8r0>31",
"rqtt69yfgahllhisytfyhtfhbbbyeybylgrit0ig;;5",
"e8rt96tfrtihhfiayyyyyeyyebbbf6ebu030u8e8#O1",
"045rrqtrrriklhkn6teytyyh:byef31yu01rire8;#5",
"626tq0rtitihhaflbbbhey00be6y63e3ur50r7te;O4",
"8057hftut0uffhlhbHIb6fb6yf6ee6yegru4t801#X,",
"i544xaahlgasiasrfeeyfe6eeyeye6e6u0115t5;-O>",
"0,0rBtifhfaaiai8y66eeye6efyfe6e600,41r1;-#,",
"11thmtuhiiiiihi4eyf63ee3eyffe66655,5,117-#4",
"470srsslkaittit1e36631366efy66662%;,5;1u-#5",
"561frmhfmftt0tiry1:66366eeyye636r==-8;,1>-,",
">-1jfxfinittrtasye313ey3eeyeee365,=>4,;=>%1",
"%O1st0sxliuai0ruy6633ey6e6ye6e:1.#O>=1>;;%5",
"==1eyy6yfbebye6b88ii54r8i>rilg=>.&@@%@2**>5",
"::ee666byyyy6e3el88iuuiir=;1r8=;O@XoO@*%*>9",
"6==3yfybeeyy:e6e05ri4;8ji5>,75=#%oooo$@%&20",
"636336eyy5yy:eyy0r0058841>#;54>X%.@o@%o*$>7",
"666666eeb6yb355y1454441,0e48081X@.%@@*X%#>3",
"66:6ybf6e55b3::3O#=>=X=rr08411=.>&>&%*%%=;,",
"6feye6e35y1y636e4;O=541i85u0ui5525>&>22*==;",
"6e36yye:eb6yt6bi4u0,448ir5gr00=;20%*>7w*++=",
"yyyeyyee36ee50yttr8er55u5065eb46uur506t==X=",
"eeeeeyeee6606tye150uit8e5uu60i4usz7,he6t:=#",
"e6666ee6e66550t6ru05680u7ur05i7ini3ty66e1==",
"e666666e66e0330eriuer04300345i76f01f6606;:=",
"eeeeeeyy00yy66ee8tr0rr88u01510511f50yt3y1t0",
"e6eeeeyyy0eteee6ii050ruiri0u,3756hteeee6;31",
"eeeeyeyyieete005rrtiiu60ruui55u0yyfitey:e65",
"yyffyyyyiyii638eir8tiruiq03i0ui06iiySfy5i:;",
"byb6ljiBiuibi0ui8iir05uuir0iijm0lnlxngggrtr",
"yyfthkhFhiiiruirii530rirhjir0iClhhgBBiilhlx",
"biyfiirbliii0iiiih0115ui6irujCFiilhxnggligg",
"iyebhBijBueiieub8ii8,10iihriDKKngNhighbhllg",
"ibibibitSiiii88ruir8uiiijbimBbllBnugnjhlDnh",
"yfjburu0iiiirir5bii8inbbruinnlbimBjbBBxiNli",
"yeibjehi8uiiuii8iilruiinbjiilFUbuBBnNBBiljh",
"IbhCStiiiriiiir8rijrririiCFCiBC07lBBBllnhll",
"IBbiliggmr8ur80bBIBull8ii00illhiFBBDFFBbxll",
"jiiuir00ir0erreibjbiibhiFburiiiibmBBnbljggg",
"iururiigiiruiiiiiliuxBuh148rhnbhinSnhjxxhgi",
"ifti8iti0068r0r0eli0li5iiigiggu4rnDbgknnBBn",
"bbgluu1>85>45,6601ii50rriu5,4ikbulBlihxhhsi",
"jjggur,=44=,>O13e6ut855eir514rihijliijguclh",
"0qr551,-#,##X.-#uii0i0,u0ruihhhhjghggkgilhs",
"8rjii51=#0,>#O3=i,qieuirir0088ujjiigkljiiuu",
"0u6yt6e:o$>,>$$>00u6y50ty6536eeeijbiDjj0ii8",
"8e16e34+XO>>%oo*uui0y0e0ee5e6eeyuiu0iiiuii0",
"11=1651#OO%>*oo*60610ete06yey6yy6biiiii5585",
"=;=133,=%oO>>*O*363;3eet3e6i5yee7kijii3--;;",
":15111;=%XX>2>$%3te65e661:e3y6y35757r-,5155",
";16313;,&OO>72>%;etitt603e3e5fe611317#1e->-",
"==6116,1*$**>>*&=35ytityyey3yey6,00601rr002",
"==3,13==@%*$$**$151eeitiyye63ee5;iru6rii002",
"=O====;1====o@$O33:ybbeeyye36ye6riu0ijiiinu",
"====:33==#--@@**:3ebeyeyby6ee66eikirinCDii5",
"13:=365=O$>>@O&*:13eeb636666636frbCBBlu5hi5",
"e63:153=XO->@X@%:6eyeeyy=3636eyf5iihjhu0qu,",
"61155:;:.X->$ooO:6yeeey6eeeeeyyeibiiiiiiuui",
"==:00:=:%#>2>*$@e553yye1beeffe6e5iijjbij51u",
"313et5:=,@%>>>**56bey3efe66ffeebuhlir50ir8i",
"fyeeyy5=>..%%$*@3:63e3eeeeeyyffb1iliu0uii0i",
"u7i3b8,1>==125,=3t1b54g0iriiihblbbfbybbeijt",
"iiirii6i45651rr1:by0,1iuiirkuBbiiibibSSbff4",
"inibiBuiluuiu0ui3ii317iiihliCBH05yibMSbeihu",
"ubibibuimuiii80iiey1iiilil0jlnB5ife:0yyy0ur",
"0iijiiueriir0ii,bti5jbgbbi4BBilj0iy0ihr8hku",
"ruibjriieriiiii1yib6rjiiiFKulDUrbi05eir6bbu",
"rubCBubii8tjiitr0ije1iirhhiFlBxneetiit1X55&"
};
