/* XPM */
static char *F41709485634[] = {
/* columns rows colors chars-per-pixel */
"43 87 115 2 ",
"   c #4D0000",
".  c #550000",
"X  c #5C0000",
"o  c #640201",
"O  c #6B0504",
"+  c #650907",
"@  c #6C0807",
"#  c #6E0708",
"$  c #660B08",
"%  c #6D0B0A",
"&  c #700807",
"*  c #730D0D",
"=  c #790F0F",
"-  c #6F110F",
";  c #75100F",
":  c #78100F",
">  c #760F10",
",  c #6E1310",
"<  c #751212",
"1  c #7B1414",
"2  c #751816",
"3  c #7C1817",
"4  c #7F1718",
"5  c #771C19",
"6  c #7D1A19",
"7  c #7F201E",
"8  c #801616",
"9  c #801817",
"0  c #841C1C",
"q  c #881E1E",
"w  c #85201F",
"e  c #88201F",
"r  c #861F20",
"t  c #891F21",
"y  c #852221",
"u  c #8B2423",
"i  c #8C2927",
"p  c #8E2728",
"a  c #8E2A2A",
"s  c #902626",
"d  c #902827",
"f  c #912729",
"g  c #942C2C",
"h  c #992E2F",
"j  c #96312F",
"k  c #98302F",
"l  c #962F30",
"z  c #992F31",
"x  c #963131",
"c  c #9C3333",
"v  c #9D3836",
"b  c #9E3738",
"n  c #973E3A",
"m  c #9D3A39",
"M  c #A13637",
"N  c #A03837",
"B  c #A23739",
"V  c #A33B3B",
"C  c #A93E3F",
"Z  c #9F413F",
"A  c #A5403F",
"S  c #A8403F",
"D  c #A63F40",
"F  c #A93E40",
"G  c #A64242",
"H  c #AB4443",
"J  c #A34845",
"K  c #AE4947",
"L  c #AE4748",
"P  c #AE4A4A",
"I  c #B14647",
"U  c #B04847",
"Y  c #B24749",
"T  c #B34C4B",
"R  c #B84B4E",
"E  c #AF504E",
"W  c #B5504F",
"Q  c #B8504F",
"!  c #B64F50",
"~  c #B94F51",
"^  c #B65251",
"/  c #BB5453",
"(  c #BE5957",
")  c #BE5758",
"_  c #BD5959",
"`  c #C05656",
"'  c #C05857",
"]  c #C35C5B",
"[  c #C6615F",
"{  c #C8605F",
"}  c #C65F60",
"|  c #C56261",
" . c #CB6463",
".. c #C36865",
"X. c #CC6967",
"o. c #CE6768",
"O. c #CD6A6A",
"+. c #D06867",
"@. c #D36C6B",
"#. c #D5716F",
"$. c #D8706F",
"%. c #D66F70",
"&. c #D57272",
"*. c #DB7474",
"=. c #DD7A7A",
"-. c #E27B7B",
";. c #E4807F",
":. c #E48281",
">. c #EA8483",
",. c #F48D8C",
"<. c #F49090",
"1. c #F99595",
"2. c #FFA09F",
"3. c #FFA9A8",
"4. c #FFB0AF",
/* pixels */
"p h V V c M k e Q S T [ M S T N S A M k d u S S M q A S { S S S S S S S W S '  .X.[ ' ",
"K S S V k M A k / U { S T N Q d M s N S s S S u ` h S ` @.S S ` S S (  .X.[ ' ' [ [ [ ",
"N M S T Q T Q S S ] { U S S U k S S Q g S ] ` S S S ] S ' ' S ` ` S ' [ X.X.( W ' [ X.",
"S V U ] ' Q S k S U +.d @.S ' M k S S S ' ;.e A s `  .S S { { { Q S S S S S W W [ ' ' ",
"T V S U T T Q T S S V h +.' U c ' c { ` ' ' U S S ` ` S { ` S $.[ [ [ S A A S ( [ W S ",
"N h k N S Q { { ' -.S ;.` -.U @. .Q k ` s ` V { *.{ Q S { { ' { ( [ [ S A v A A [ W ( ",
"k k k c k S U U S ` @.{ [ V Q +. . .[ +.@.+.{ *.;.@. .S ` @.+.S W ( ' W A A j j A ( [ ",
"e e e e e k I S ` S @.Q $.S +.+.' U S *.S +.$.{  .` +.Q ` ' { { W ( ( ( Q W A v i S X.",
"N k N k c S N [ S S *.+. . .M S Q U -.{ @.+.` {  .R  .U ' R ' H ( +.S S S [ A k j : Q ",
"S S N M A S T ' S S +.$. .;.` S ' Q -.+.-.;.$.@.' $.k ' $.S X H $.[ ( ( A j A A A 9 Q ",
"S ' c M A N ` T M ' ` Q S $.N S T N [ ` ] $.{ ` ' U ' ,.[ e g M ;.e v  .$.A c A A d ] ",
"S Q c M M k S ` *.S N @.S S S { Q S Q Q U { ` S S U +.$.-.: V S ;.A j S +.S A Z j A [ ",
"S A S S A N S $.@.;.` S *.@.` S / U Q Q U ' Q S T ' Q { 3.8 8 M Q ( A Z S +.Q S S S [ ",
"A N ` ` Q Q S $.Q $.*.] ` ]  .8 N S N S S S M N Q S +. .-.1 g 1 9 d 9 c Q X.Q X.[  .( ",
"S S Q ` [ / A N S  .` $.{ e u M c S c U Q U k A g U +.I ^ 1 r a [ 9 $ ; j Z A +.[ [ S ",
"c ' T S ' S d o u ` A ` d e M M S / N ' { Q d N S Q k @.c m > | ;.j 3 + ; e S S S S d ",
"N N U ]  .@ o 6 B G r > 1 r z b T F / ) R T b f F _ E P Z B r x Z ^ y * % < P ^ ) P 3 ",
"h  .T ] ; q o P y ..r $ 4 4 f f ) ) ) ~ ) ) F D &.F E L r x z 5 y ..E n 6 X ..} L + 3 ",
"d Q @.u 3 % T G y ^ > + r l l l L / ^ F ) ~ m D %.x _ O.x E &.X +  .O.O.< 7 _ O.x 2 P ",
"S S Q ` _ ^ =.. E m o * r F z b ! ) } T %.^ l F ..D _ } a ^ 4.5 o E X.:.o | G X.< ^ ) ",
"V F ^ b x 6 P 3 O...< % l D z B T T ^ ! =.L f ) } Z } P 5 G :.D O m ) =.> -.D ) D o.) ",
"b D f T &.1.% X ) 3.l o D t z D b z D b } b p ) ..a &.D a E p } O D L o.D ~ ~ D ) l ) ",
"V l m r <.&.x X E >.) * z f z z z b L b ) l f ) O.D O.x m _ % } p F D Y Y z ! V | B } ",
"~ ~ L D | P =.% ..x =.r 7 B t > z D ) B ^ f t b m _ | P ^ _ + 5 ~ Y F D L F V ! Y ) b ",
"~ } ] u _ E O.6 _ 3 >.r r l D * L D b F } 4 # D l } E z _ E i c Y Y B F F B F R U U U ",
"B T c c y &.J b m 5 ^ ^ 4 p z t p l p b L * > b u P l E m > 5 p B V z F F F F F G V x ",
"H D t O   y % > 7 7 x O.f l z z > u t D m o r z f Z l J 2 - a 6 z F B B B z F z p q 9 ",
"B F D t x > y X > 7 a P D F D r 4 z f D B o l y J f a y o a 7 > f F B B z z B f ; @ o ",
"r l r r 6 # 2 o < 2 a p F ! z > t z p B c % B p *.b r 5 < r $ r t z f z D F F l v a 2 ",
"D p t o X < , y 6 < y a D ) 4 z z c p l z 6 L B O._ l > < + % * 1 z D D f r t 1 w 2 $ ",
"f r t O < y 7 r y 6 6 a H ) > F b c z z c r b b x D Z % + o 2 X t B D c 3 o o o + + , ",
"D F 8 r 1 t l 7 a r < 6 ! ^ r z l c m b D 4 r t f - ! r t y y 7 B z > 6 r 6 2 # + $ $ ",
"q S h S h 8 h M M h h R S M s h C c h h N s S S T v i & : + ; w B D t o o o X + , , $ ",
"S h s M M s S M M h h M M M c M c M h C k d S ' ( ' i 9 o ; + @ r z a < 3 2 o X 2 2 $ ",
"M q S M s 8 S M M h h q M M C h c S h S s s M S S ( j ; O o 3 @ * x y o o O + O 7 6 - ",
"M q h h h s h q M s M h S M M s M M s M d h k k S Q A 0 w X ; @ X p l 7 2 % + 6 y r , ",
"s s q h h h q h M h h S S M q s h h h h V h S c N K j ( A j 3 3 2 y r t r > % y p y < ",
"& q 8 s 8 8 8 S M h s ` C h 8 M s c S M A d S c c d c X.;.( j v m 7 o o 6 > > a l f t ",
"q q & 8 q q M h M h M R S s s S h S S M k s N d A w W / O.Z w A x y > 7 l r * 6 z D D ",
"M h h M h 8 S h M h S S I q h I h S h M h S N d w w A S w w $ [ y x 6 > > O # u b F R ",
"M S h h M h M M M h C M S M C s S C h S h s 8 s w w 9 w 3 @ w [ G ) p # 1 6 > > D F Y ",
"M S h s M h M h M M S M h s h q h h q C C C q 8 : w : @ @ : j W 6 J X n 6 . 8 > D F R ",
"M C s h M M M h M M C M s s h s h h q h s M s q w w e w - 3 S $.c ! b l r z > f D D F ",
"q h s M S M M h h h s h s C M h h C h h 8 s e s e 9 w i ; ; Z / !   t 3 t l r H D b z ",
"q h h h M h c M M M s M s M h s s S S S s s 8 8 d e w 1 ; i d @ ! o.t t ] r z c ~ F z ",
"s M s s s q h C M M C M s s s s h M s h s h 8 8 j e e j Z Z d 8 > ! o.> D ;.p _ D t , ",
"h C h h s q s C M M C M h s M h M s 8 q u k u 8 : : e A S j d S F t Y %.f p } ! E l * ",
"h C h M M h h M S h C c M M C s s s q c c A s 9 ; w d Z S S A S H t D c c > F } ! a # ",
"h C c N g s A d S N k d S A S N h e N k e { 8 u 9 : s c S ] +.S / P F ~ t g ~ ) ! F > ",
"` S q e g A S S k S d A ` `  .N Q S S c u ] 8 e q 9 s A S ] +.{ / ) :.} Z } L D D p % ",
"N S c s d e g M S S S S Q *.` S S g A k k +.u h 0 9 e A Q { { +.>.) %.O.F ^ F %.z # # ",
"g S N s d h S $.S ` d +. . .@.+.S A N h g S 8 u 0 s 0 s Q { ] +.} %.} O.L R ) ~ z o > ",
"N S s 8 c S S ` ' Q ` $.` ;.S +.@.T c e c T 8 s 0 k u q S +.{  .) %.%.=.) E F D c # 7 ",
"' S S N ' { S S ` *.' +.S { Q S ' N e s [ { s s 9 A u 8 A ' ] { =.) %.*._ / D o.F f c ",
"S N M s c ` Q ] S S ] Q S ;.Q Q S k d k +.[ w w q k d 9 u A S ' ) } -.o.} *.F E } } ) ",
"] S S A k S M A Q S R ] ] $.S S A c d h ` S s S d N k q 9 e S ` } } ~ %.O.! B D ) @.^ ",
"$.$.' S S S S ' S k S c S T S S ` e S M { A S S e k @.T = w c c ^ ~ P P o.| D P ) P E ",
"Q Q S S ' S k S S S S k S T Q { S e U S  .S S k 1 M d S N = k U t b Y ~ F ~ ) > z D D ",
"` ` S S { ' S S M k A g S S S S [ S U N N s e 9 9 : & : g g 0 u Y F y z l r F D 4 F D ",
"S U S S S U S S k M S S Q S S T ` S S s 8 8 w d N & 9 & O M c p p b 7 t r r a < 4 _ P ",
"q k k c A S A S S S S S Q Q Q { Q S S N 9 9 9 g k d 9 d o o H R b 4 m ^ z b z X r } L ",
"d k d d d A A k S S S S Q S Q ' ' S Q N w 8 : e : M M e > O 1 g | p p l 7 > > t t ! ! ",
"M d e q q s k h c S S T ` S Q ' T d d e 9 9 e g e k Q g l b # + B } F 6 6 p p g l ! } ",
"d s k c d d g h M S s S S A T { S w e w s 9 9 9 S d d T z > p > # z z D t < D l b L %.",
"k k q 8 8 q e h k Z g S j @.;.[ A d w j D 4 a > 6 D p r ^ B B m O # H 7 E o x _ | ..%.",
"e e 8 8 9 q e d S A k : k Z X.[ j d d W L f u r r D l z D b B l P y H | 7 %.m | ..O.%.",
"9 8 8 8 9 q q q Z S j w Z d A S e e e g 6 p r l 4 p t D r l l r D x % x O _ G | O.O.O.",
"8 8 8 8 e q 8 q d A e k d 9 3 9 % w A j r D t l % r r D l l r a o < > y p c m H O.O.O.",
"8 8 8 8 9 8 8 q e 3 ; 9 ; + 3 $ 3 y ! c b V a L * r p D ^ m 6 D x % E _ a P n ^ O.#.O.",
"8 8 = 8 9 8 8 e w O & w & w 9 - 1 O u > t % > L - t r z ^ B > m E y x y y b n | O.O.O.",
"8 8 8 8 9 8 8 e 3 ; ; j e E 9 : e u V D L l r ! > t 4 r t Z > y 2 i X X v y y Z O.O.#.",
"8 8 8 8 e q 9 e w & d @ K S 5 3 O q 3 * # 3 # l r f < 4 o R y r a 3 - o 2 ^ i E &.&.=.",
"d e q 8 u 8 d M & A e 9 [ i w ; > r p 4 m z t > 1 r t p . 4 } m 5 , 3 5 a 7 O.*.%.=._ ",
"h S q 8 M q 9 S k N 9 { W A j j 7 t p l c l p > 6 a l % % > r ^ $ X 2 % Z 2 y O.O.o.E ",
"s M h e S e = M S e 9 ;.A Z i w z Z l P b L L r # D > t # O o E Z , X . J n u O.| P l ",
"M s S S S k s h A d S ;.S A A 5 > 1 # r 4 D ^ % r 4 ^ t f o * * &.x X X a ..O.=.| G x ",
"h 8 s M h M q 9 9 1 Q [ S Z S j t > 1 p b L o.D . # 4 z ! > } p 7 J 2 $ . P .._ ^ m l ",
"h c C S ` ] s s 1 0 ' [ S S S ..b 4 f b L a B ! a t o z a b 1 m X ..J 5 - n } ..E L H ",
"q s M M S ` s q ; : ' ' S A A ..F z Z D ! l > L l f - % b p r P , n J - % , G _ X.O._ ",
"h 8 s q 8 S C h w w ;.] ( S W S Z D B l ! } > D b u B > t / 6 ! G , ..a 7 X _ o.o.o.D ",
"q s S 8 8 & & & : d X.S ( ( W S b b D b Q S V k Q S S j w K 7 w u a m D m J | &...l # ",
"8 s C s & = 8 u 9 Z ;.( E S A A L Y F V S C k c T M U v S W c j u > > a L X.&.%.l 2 % ",
"h h h c e c u k : A @.[ ( E / W M F g z d S N H Q v U j K k X.;.D r r V _ | E p 5 6 y ",
"s M S S s e g Q j S ;.@.[ ( ' S C I z g h S S S S A Q S E - A / >.o._ ] } } ) E D P E ",
"M s h h S d k k Z S [ [ [ ..[ S R I C h U R ` R S S S [ { j Z k H V G L S K ] @.O.&.&.",
"s h S M k : k S w j j A W X...Q C M M h ] ] [ ' W W T X.O.( O.*.p a D ) [ [ @.*.&.&.=.",
"C S M M k d A A j S d k j S W S S M k V R U I I W ' [ #.X.( [ X.] H G W / | $.-.&.&.&."
};
