/* XPM */
static char *M11709484629[] = {
/* columns rows colors chars-per-pixel */
"32 64 19 1 ",
"  c #101010",
". c #151515",
"X c gray9",
"o c #181818",
"O c #191919",
"+ c gray11",
"@ c #1D1D1D",
"# c gray12",
"$ c gray14",
"% c #252525",
"& c gray15",
"* c #272727",
"= c #282828",
"- c gray16",
"; c #2A2A2A",
": c gray17",
"> c #2C2C2C",
", c #2D2D2D",
"< c gray18",
/* pixels */
"O======>====>=>===>=>===>=>===>=",
"O=>=>=*>===>=====>=====>=====>==",
"O===>==>>=>===>=====>=>===>=====",
"O=>===*>=====>===>=>=====>===>=>",
"O=>===*=====>=>===>=====>===>===",
"O==*>=*>=>=>=====>===>=>===>===>",
"O===>==>>=====>=====>===>=>=>=>=",
"O=>====>===>=>===>=>===>========",
"O==*===>>===>=>===>=>===========",
"O=>*>=*>===>=====>=====>=>=>=>=>",
"O=>===*=>=>===>=====>=>=>===>===",
"O=>==>*>=====>===>=>=======>===>",
"O=>====>====>=>===>=====>=>===>=",
"O==*>==>=>=>=====>===>=>=====>==",
"O=>=>==>>=====>=====>=====>=====",
"O======>===>=>===>=>===>=>===>=>",
"O=>====>==>=>===>===>=>===>=>===",
"O==*>=*>=>=====>===>=====>=====>",
"O=>*>=*=====>=>=>=>===>=====>=>=",
"O=>====>=>=>=========>===>=>====",
"O==*>==>==>=========>=>===>=====",
"O=>====>=>===>=>=>=>=====>===>=>",
"O=>===*>====>===>=====>=====>===",
"O===>=*>=>=>===>===>=>===>=>===>",
"O=>====>==>===>=>=>===>=>=>===>=",
"O==*>=*>=====>=======>=======>==",
"O=>=>==>==>=======>=======>=====",
"O=====*>=>===>=>=>===>=>=>===>=>",
"O=>===*=>===>===>===>===>===>===",
"O==*>=*>===>===>===>===>===>===>",
"O=>*>==>>=>=>=>=>=>=>=>=>=>=>=>=",
"O=>====>========================",
"O==*===>=>=>=>=>=>=>=>=>=>=>=>=>",
"O=>*>=*>========================",
"O=>===*==>===>===>===>===>===>==",
"O=>==>*>==>===>===>===>===>===>=",
"O=>====>===>=======>=======>====",
"O==*>==>>===>=>=>===>=>=>===>=>=",
"O=>=>==>=>=>===>=>=>===>=>=>===>",
"O=====*>====>=======>=======>===",
"O=>====>=====>===>=====>=====>==",
"O==*>=*>>=>===>===>=>===>=>===>=",
"O=>*>=*====>=========>=>===>====",
"O=>====>>===>=>=>=>=====>===>=>=",
"O==*>==>=====>=>=>=>===>=====>=>",
"O=>====>>=>=========>===>=>=====",
"O=>===*>===>=>===>===>=>===>=>==",
"O===>=*>>=====>===>=====>=====>=",
"O=>====>====>=>======>=====>====",
"O==*>=*>===>====>=>===>=>===>=>=",
"O=>=>==>>=>===>====>=====>=>===>",
"O=====*>=====>==>===>=>=====>===",
"O=>===*=====>=>======>=>=>===>==",
"O==*>=*>=>=>====>=>=======>===>=",
"O=>*>==>>=====>====>=>==========",
"O=>====>===>=>==>=====>=>=>=>=>=",
"O=>=>=*=>>>>=>>==>==>=>=>>=>>>=>",
"O*==>**=========>==>>===========",
"O*==>=*=>>=>=>>>>=>===>>=>=>=>=>",
"X*=*>>=>=============>====>=====",
"O*=*>==>========================",
"+>>=>==>>>>>>>>>>>>>>>>>>>>>>>>>",
"+>=****=**=*====********====**==",
".+OOOX.OOOOOOOOOOOOOOOOOOOOOOOO+"
};
