/* XPM */
static char *M31709484628[] = {
/* columns rows colors chars-per-pixel */
"64 64 34 1 ",
"  c #0A0A06",
". c #0D0D0D",
"X c #100D06",
"o c #110F0B",
"O c #0F100B",
"+ c #11110D",
"@ c #0F0E12",
"# c #110F12",
"$ c #111112",
"% c #161B15",
"& c #191A15",
"* c #191919",
"= c #201F1A",
"- c #23231D",
"; c #29261E",
": c #2C2A1E",
"> c #262626",
", c #292725",
"< c #262823",
"1 c #2A2A25",
"2 c #272729",
"3 c #2A272B",
"4 c #272928",
"5 c #292929",
"6 c #33332D",
"7 c #39362F",
"8 c #2C2631",
"9 c #353535",
"0 c #3A3732",
"q c #373832",
"w c #3A3A34",
"e c #37363A",
"r c #38373A",
"t c #39393A",
/* pixels */
"*25455,555555555525555555555455512555555455134555555555255555555",
"*45,55,555554555515555255545555555553445555555544531555155555255",
"*45455265555555455455515554455555515215555555553544545545,554555",
"*5545325555455555525255555444355552555555435545155555535554555,5",
"*255555525555535555555255555555555555553512555155334555555555555",
"*35255555555545452555555555455525455555455555525541555554,555552",
"*,54551555455555555555154555555151345455555555555555551555555555",
"*45455255555,555551255555555455543155555455543555554543455521555",
"*55254,95555555,552555254854558455555565554534545555553155125555",
"*55454>515525555555551555654554455555558555555553545454543555535",
"*5555545255555455551255545454444>,555455555555454545555555455445",
"*4535555555555555525555555485444>,555555555455555531555455555555",
"*254552555522555255555556556855444555555555555535545455545545125",
"*,5,55,5555155555555525544224444,24255>>455555455515355555535555",
"*555555552555455555255224455e4885559555>555425555534555255555255",
"*55455,55555555,5155552499eteeeetttttt09555555555555555155555155",
"*25555,55,55551,,514154< @@@@@*@$$$OOO  -44885854545455455125555",
"*354555555545555411115<>9eeeeereeeeett96-45285885355355555555543",
"*452552555555255411142>- @$$@*@@@$$OO$O -44648855455555255555455",
"*,545555554351555111422-9eteetrertettt96->4544533555555112555555",
"*555555555551555411155,- @@@@$$@@$$@.+O ->4455355555555554555255",
"*555555555543545141135>-69teettqrrreewq6->4115555445555553155155",
"*455555534554555155144,> .+$@$%$@**@#$O -<4131:35555355554455555",
"*155555515455543155,44>-6qttqtwwerrewqq6-:113:53555,455455555435",
"*2525525555554514,<,511=..++OOOO@@*#ooX ==3:13,15521435555345554",
"*,5,55,55555555551<,15<=6qwqwqwwrrtw0076=;:313335555555531155555",
"*55555265455555544<,55<- OOOOOO%@o++ooXX;;:3,;335555552545555534",
"*55452255555543552>,44<-6qwwwqqwtr0w0077;;6:33383155541555455555",
"*255552555555545541,451<-<<::<<<::::::=,:31338383555555554555513",
"*45,55265554545555541,11-<11:<:<:::::::::13338885435455535555454",
"*2545525555351355553,1111111<:<::::::::::33388883545,55555454555",
"*,5555,54555554555554,411161<:<::::::::3:11388835555555554315555",
"*53255452155555,55455445555514556;,,1111555133355555555255555455",
"*55455255555545535554444555545558311353554135555543555555555,555",
"*555552555555555455534225555444533335555244455555545455555155555",
"*455552655525555544,552>,544,,45111,552,,35524,545555,5555255255",
"*15255255555552551,2555>qetttewettetttt9>>254445553545552155555,",
"*45,55,55255555555,2552> .@oO.$.@O.@$o. >>442,551555555455555555",
"*55555555555555542,255>=8qttetetwe0tte96*,554,443554554355555545",
"*55455,55215521552,454>> .$$$++$$$$$$@@ >2552,454555555155525555",
"*255552555525555455555,>8eteeeteetttett9->2245545554555555555525",
"*354555555555555555555>> @%O.%$OO$$OO$O >>4455554553555252525555",
"*45,55,5455555,4455435>-6ettetttttteete8>45455525555125155515,55",
"*,5455555,5555553555232- .O@.+$..+$.@$O >45555555555555555555555",
"*5555555134555555554454>8ettett0tttett96=25525551555555555554555",
"*555555554555554555445>> .%O$$$$O$$OO$@ >25555553454544554555555",
"*455554555545455355435>-99weett0eteeett6=285555255555355553455,5",
"*355555555531555555,422- .++.O++O++OO$. =22541515435555521555545",
"*45,55255555555411:11::16677777wwq6qqq6<<<<:1<<15555455455555355",
"*,5455,5555455551:::1::1-;::1:1:1:<:<::-1:1:::111415551355554554",
"*55455265555555111111:11-:11;;,::<<:1<--1:1<11114534554355151555",
"*552522555555521111551115116115511<<66416<1111155555555554342555",
"*455552554555555445444945:555141<<115551<<6<44445555545555555555",
"*35,5526535434555554444431,,1,,34<442255444<484511555545,55555,5",
"*452554555553154555544445324355544444455444455542555534555255554",
"*,5455,555554555448484845222255554644445446455545534515554555555",
"*35455,455555555944944844485544864855594586555485556555555555555",
"*25252>455555555444444484645584648558544855555845555555555555555",
"*,5556255555555544444e449458555585555885555585865555555555555555",
"*>52552555555555446444444455554444555455555555545555555555555555",
"*45,552355445555444444444444514444414444445555445344554555545552",
"*554555655555565444644448464514556555954155555156585555555555655",
"=5522>>5542>,,5,<<<<44<<<444<<<<11<<1144<<1:111<,444,2,255,22,55",
"@-****&*********%%%%%%%%%%%%%%%%&&%%%%%%&&&&&&******************"
};
