/* XPM */
static char *M21709484628[] = {
/* columns rows colors chars-per-pixel */
"64 64 234 2 ",
"   c #020300",
".  c #0B0201",
"X  c #08050C",
"o  c #150000",
"O  c #1C0502",
"+  c #1C0A00",
"@  c #15050C",
"#  c #0E1108",
"$  c #1E170E",
"%  c #1B1B0C",
"&  c #161706",
"*  c #0A0D12",
"=  c #0F1515",
"-  c #151615",
";  c #191314",
":  c #1D1E13",
">  c #1B141B",
",  c #191919",
"<  c #111419",
"1  c #170F1A",
"2  c #250C00",
"3  c #220507",
"4  c #241502",
"5  c #2B1400",
"6  c #241C00",
"7  c #2B1C02",
"8  c #251A09",
"9  c #291A0A",
"0  c #24120D",
"q  c #331C01",
"w  c #371702",
"e  c #250D1D",
"r  c #241B15",
"t  c #2B1E14",
"y  c #241E1D",
"u  c #281819",
"i  c #341D13",
"p  c #321D1A",
"a  c #381917",
"s  c #1E221A",
"d  c #182011",
"f  c #1F3119",
"g  c #2F2404",
"h  c #23240F",
"j  c #29260A",
"k  c #342403",
"l  c #3A2302",
"z  c #352A07",
"x  c #3B2A01",
"c  c #34250B",
"v  c #352A0E",
"b  c #3A2C0C",
"n  c #3D250B",
"m  c #383305",
"M  c #242313",
"N  c #2A2414",
"B  c #252D16",
"V  c #2A2C15",
"C  c #24251D",
"Z  c #2C241B",
"A  c #242E1C",
"S  c #2B2A1C",
"D  c #342414",
"F  c #342C14",
"G  c #3C2B12",
"H  c #31251D",
"J  c #3B261C",
"K  c #322A1B",
"L  c #3A2B19",
"P  c #21301A",
"I  c #213116",
"U  c #3A3612",
"Y  c #1E0F22",
"T  c #191B25",
"R  c #241D24",
"E  c #291C22",
"W  c #281D2E",
"Q  c #331C24",
"!  c #2B1936",
"~  c #351D35",
"^  c #1F2224",
"/  c #1E212B",
"(  c #1D2F2D",
")  c #1D3024",
"_  c #1D2634",
"`  c #262626",
"'  c #2D2625",
"]  c #252C24",
"[  c #2A2A25",
"{  c #25242A",
"}  c #2C262C",
"|  c #252A2B",
" . c #292929",
".. c #322524",
"X. c #332B23",
"o. c #32242D",
"O. c #3D2429",
"+. c #332B2C",
"@. c #3D2C2C",
"#. c #3A2D22",
"$. c #2B3323",
"%. c #2C3329",
"&. c #263120",
"*. c #323423",
"=. c #32332D",
"-. c #3C3728",
";. c #272433",
":. c #2C2633",
">. c #252932",
",. c #2A2931",
"<. c #25253B",
"1. c #2C243B",
"2. c #252B3A",
"3. c #2C2B3A",
"4. c #322333",
"5. c #322B34",
"6. c #31223B",
"7. c #3B2A3D",
"8. c #392733",
"9. c #2D3035",
"0. c #343332",
"q. c #3D3532",
"w. c #35333B",
"e. c #3C3738",
"r. c #472B0C",
"t. c #512E0E",
"y. c #413502",
"u. c #4F3404",
"i. c #41320B",
"p. c #4B3709",
"a. c #4A2D11",
"s. c #452A15",
"d. c #532E11",
"f. c #453512",
"g. c #4A3517",
"h. c #553813",
"j. c #533708",
"k. c #402C23",
"l. c #423228",
"z. c #413736",
"x. c #5D410F",
"c. c #404117",
"v. c #56431F",
"b. c #7A611F",
"n. c #5C5026",
"m. c #7C5B2A",
"M. c #695532",
"N. c #5E6039",
"B. c #786724",
"V. c #686530",
"C. c #372942",
"Z. c #716E5B",
"A. c #73734C",
"S. c #886B2D",
"D. c #926D2A",
"F. c #8F7926",
"G. c #89742B",
"H. c #8D7D2A",
"J. c #867425",
"K. c #97752C",
"L. c #886C3A",
"P. c #8C743C",
"I. c #867034",
"U. c #957233",
"Y. c #997235",
"T. c #9D7B35",
"R. c #97753B",
"E. c #946B33",
"W. c #A17C35",
"Q. c #816A40",
"!. c #8E7147",
"~. c #987948",
"^. c #867851",
"/. c #BC921C",
"(. c #B9981A",
"). c #B49712",
"_. c #BEA419",
"`. c #968635",
"'. c #87833C",
"]. c #A2862B",
"[. c #B18D2D",
"{. c #BD9422",
"}. c #BC9B26",
"|. c #BE942F",
" X c #BC9C2F",
".X c #B49728",
"XX c #AC8A34",
"oX c #A38838",
"OX c #BA8F33",
"+X c #AE9B33",
"@X c #BC9834",
"#X c #B89939",
"$X c #BCA332",
"%X c #BDA83C",
"&X c #C39C1C",
"*X c #C49A17",
"=X c #C5A116",
"-X c #C8A30D",
";X c #CD9E28",
":X c #C49A36",
">X c #C89932",
",X c #C4A22C",
"<X c #CAA329",
"1X c #CAA334",
"2X c #C9A23D",
"3X c #CCAC3B",
"4X c #C6A834",
"5X c #D4AC32",
"6X c #8B8448",
"7X c #978448",
"8X c #AF8843",
"9X c #BA9B45",
"0X c #B59A46",
"qX c #A68C5A",
"wX c #B69D55",
"eX c #A69850",
"rX c #AAA047",
"tX c #BBA246",
"yX c #BAA04B",
"uX c #B5A556",
"iX c #938664",
"pX c #A9A569",
"aX c #BCA967",
"sX c #C79C47",
"dX c #CA9F50",
"fX c #C7A443",
"gX c #C9A444",
"hX c #C3AA4E",
"jX c #C7A149",
"kX c #D2A54D",
"lX c #CFB64F",
"zX c #CBA550",
"xX c #C3B15B",
"cX c #CCA665",
/* pixels */
", `  .`  . .`  . . . . . . . .} 6.6.:.[ S P S ] ,.:.6.1.:.,.&.] } ;.,.>.| ( | ] S S K [ ..:.;.;.} [ [ X.[ [ }  .,.,.,.|  .) A A ",
", `  .`  . .` 0.`  . . . . . . .1.4.} [ S A ] ` ,.1.1.1.:. .&.A  .,.>.>.( | | [ [ S S ..' } ,.,.} [ ' [ X.[  .} } ,.>.| | ] A f ",
",  . . . . .`  . . . . .`  . . .|  .[ [ ] ] | | 1.1.1.1. .[ P B [ [  .| | | |  . .[ ..[ [ [ [  .[ } [ [ [ [  .` } | >.|  .] ] A ",
",  . .`  . .`  . . . .`  . . . . .[ [ ] [ |  .| ,.:.:.:.` S A B S ] ] | >.>.>.>.:.}  . .[ [ S [ `  .}  .[  . . .| }  .}  .] ] ] ",
", `  .`  . . . . . . . . . . .`  . .| ] | ] [  . . . . .[ [ ` ] A A ] ` | ,.;.1.:.:.}  .] A A A ` ,.}  .` `  .` ` [  . . . . .[ ",
",  .=.`  . .`  . . . . . . . . .| | | | |  .|  .] ` ] [  . . . .&.P A [  .:.:.:.1.:.,. .[ ] f ]  .} ,. . .}  .[ [ [ [ [  .{  .| ",
",  . .`  . .` =. .[  .`  . . . .] ] | >.|  . .`  .] ] [ [  .|  .[ ] ] [ ' 4.4.4.4.1.>.>.| ) &.) ` } ,.} ,. . .[  .] [ [  .} ;.:.",
", `  . . . .` ,. . . . . . . . .] ]  . . .,.:. .[ [ [ ]  . .:.} | ] [ [ ......o.4.;.>.>.| ] ] `  .X. . . . . . .] [ ]  . .} 4.:.",
", `  . . . .`  . . . .%. . .` [ &.A [ ' } o.5.:.|  .| 9.` R z.E `  .' Z J H p @.5.` { >./ { ,. .+.X.' ` 3. . .` [ S [ [ [ } 4.:.",
", ` }  . . .`  . . . . . . . . .s C M Z #.p t @.` ^ 0., { e.e 8.+.q.#.i G s.n 4 $ %.>.} 3.5.{ Z t N N [ +. .3.| [ ] ] S [ } :.1.",
", ` %. . . . . . . . . .`  .`  .T 5.r + 7 w 4 4 6 & : ` > Y ! e 0 + O 5 w 2 2 F % s = * > ; @ i 7 v 8 Z } { ,.}  .[ &.[  .,.:.:.",
", `  . . . .`  . . . . . . . .{ X . o 5 h.J.B.B.V.N.    1 X @ 3 2 M.!.m.m.L.Q.M.Z.    *   . 2 O v.n.c Z ..{ >.}  .] ] ] [  .:.:.",
", `  . . . .` 0. . .} %. . .` } +.o n E.T.].XXH.7Xm d = ; u O w ~.T.W.T.W.R.~.iX. A = # N + w qX7X6Xb G +.:.3.,.| | ] ] [  . .,.",
",  . .`  . .`  . . . . . . .` [ 9 i.P.wX#XfXjXG.z F C ] -.L s.!.XXgX2XOXdXcXL.k K ] %.S 6 h.U.8XuXeXx G X.4.1.;.>.| ] &.`  .| ,.",
", ` 0. . . . . . . . . . . .` V m F.tX@X|.sXY.d.p C.;.,.& g `.$X5X&X/.<XsXD.u.c A [ %.B i.S.sXgXyXeXl c H } ;.1.>.( ] ] ]  . .,.",
", `  .`  .` { =. . . . . .` ` v `.$X X@XzXE.t.a 6.! C.p f.`.$X_.).-X<X:XK.u.w J X.[ h f.I.9X:X:X0XuXx b ..} ;.<.>.>.| ] ]  .` | ",
", ` =.{  . .`  .`  . . . . .` b @X&X>X9X~.g.u 7.! 7...g.U.sX,X=X-X=X XJ.f.Z o.W Q a d.E.dX:X/.2XuXqXi.c #.y w.{ 2.>.| | } ` ` [ ",
",  . .`  . .{ =. . . . .`  .` z @X;XsX7X7 r :.W e.8 r.S.XX1X5X=X).4XF.p.S | R ,.s.d.Y.dX>X{.<X.XwX^.i.v K r  .,.2.>.2.| | { ]  .",
",  . . . . .`  . . . . . . . .v 0XgXT.k l.X.5.@.j y.H.lX3X&X&X{.sXD.j.7 M =.*.U x U.@X{.>X,X}.hXL.h.k D K C  .3.>.2.| >.}  .[ [ ",
", `  .`  . .`  . . . .`  . . .F aXJ.l G $ e.S & m J.+X.X(.(.{.kX~.a.7 #.$.M j & `.+X4X;X.X4X+XJ.g.4 c K Z =.`  .| >.>.} }  .+. .",
",  . .`  . .` 0. . . . . . .` [ ^.m F M =.# *.c.'.tX%X).4XgX[.U.r.O.E ..0.M c.6XrX+X$X4X%X9XG.p.G 8 l.#.C =.[ s  .| ,. .| } } } ",
",  . .`  . . . . . . . . . . .[ N -.M %.%.$.F A.pXeXrXhXyX0XU.u.a ~ 4.W s =.A.pXuXaX+XoXwXP.m g #.Z q.Z y 0.[ ` | |  . .} } o.:.",
", ` %.}  . .`  .[ `  . . .`  . .0.< 0.%.d & -.U f.7 l r.l n G 9 ..` w.C.T  .q.N k 5 x p.k J e., ` ..} y [ [ [ %.[ ` ` } } :.:.o.",
",  . .`  . .`  . . . . . . . . .} 3.) %.*.A B S N l.O.Q @.o.' e.Z  .] ^ :.>.R +.p @.s.p ..} { 2.:.,.{  .=.` s  . . .[ } } } } 4.",
",  . .`  . .`  .}  . .`  . . . .,.,.` [  .S [  .o.4.6.6.6.1.>.>.A P ]  .>.<.1.4.~ o.o.4.4.1.<.C.;.:.,. .[ ` [ [ S  . .} ..:.4.:.",
", ` ,.`  . .` %. . . . .`  . .} } ' } ` `  . .:.4.6.6.1.<.<._ ( P B ] ] >.,.1.:.:.o.o.} :.;.<.<.3.;.>.,. .` ] ] ] ] [  .} } } } ",
",  . . . . .{ =. . . . . . .` X...H X.} ;.3.1.;.} } } ` ] ( ( ) ] &.] ` } ` } ..[ Z [ S [  .>.>.,.,.,. .| ` `  .[  .[  .} } } ,.",
",  . .`  .` `  .`  . . . . . .[ K K ' ,.,.<.,.,.} X.S S A f ) ) [  . . . .[ [ S S V V A S S `  .| ,.,.,.%. .=. .[ [ [ [  . . .} ",
", `  . . . .{  . . . . . . . .[ ' H `  .2.>.>.| [ S S V V V A ] } } ,.}  .[ S S B B B B B S [ [ ` [ ` ` `  .`  . .`  . .[ [ [ [ ",
",  . .`  . .[  . . . . . . . . ...'  . .| | | [ [ [ H K K S S [  .} :.o.+.} [ [ %.&.P &.S [ X.X. .[  . .` ` }  .,.|  . .[ [ [ ] ",
",  . .[  . .` 5. . . .`  . . . .:.:. .] P f P P [ ,.4.4.o.o.......} 4.} 4.:.;.>.2.2.( ^ { { E ' ' C [ [  .} ,.,. .,. . .[ ] ] A ",
", `  . . . .` %. . . . . .`  .} 3.;.| ] P I P ] ` :.6.6.6.4.O...} o.o.} :.:.3.<._ T T T T > > r - % : C C { }  .,. . .` [ ] ] ] ",
", `  . . . .`  . . . . .`  . . . . . . .] ] ]  . .} ,.} } }  .` ' `  .}  .} ,. .,.<  .>.{ 5.,.{ [  .[ -  .` =. . . . . . . .[ [ ",
", ` }  . . .`  . .`  . . . . . . . . . .[  . . . . . . . . . .`  . .`  . . . . . ., ` =. .=.=.` `  . ., } ` ,. . . . . . . . . .",
",  .%.`  . . . . . . . . . . . . . . .` `  . . . . . . . . . . .`  . . . . . . .` ,  .=.^  .`  .`  .=.,  .` =. . . .`  . . . . .",
", `  . . . .[ ,.[  .`  . . . . .`  . . . . .` [  . .`  . . . . .}  . . . . . . .` , ,. .- , , , , { 0.,  .`  . . . . . . . . . .",
",  . .`  . .`  . . . . . . . . . . . . . . . . .[  . . . .[  . . . . . . . . . . ., 0. .- , , , , `  .,  .`  . . .[  . . .`  . .",
", `  . . . .` %. . . . . . . .`  . . . . . . . .`  . . . . . . . . .`  . . . . .` ,  . .- - - , - ` ` , ` `  .`  . . . . . . . .",
", ` %.}  . .`  . . . . . . . . . . . .`  . . . . . . .`  . . . . . . . . . .`  . .,  . ., , , , , { ` ,  .` ,.{  . .`  . . . . .",
", `  . . . .`  . . . .`  .[  . . . . . .`  . . . . . . . . . .`  .`  .`  . . . . .,  . .` ` [ ` [ `  ., =.` =.`  . . . . . . .` ",
",  . . . . .[  . . . . . . . . . . . . .`  . . . .[ `  . . . . . . . .[  . . . .` s ` ` `  . . .` ` ` ` ^ `  . . .| `  . . . .[ ",
", ` ,.`  . . .%. . . .`  . .`  . . . . . . . . . . . . . . . . . . . . . . . .` ` ^ ` ` ` `  . . .` ` ` ` ]  . . .`  . . . . . .",
",  . .`  . .{ }  . . . . . . . .`  . . . . . . . . . . . . . . . . . . . .`  . .` ` ` `  . . . . . .` ` ` ` `  . .`  . . . . . .",
", `  . . . .`  . .[  . .`  . . . . . . . . .`  . . . .` `  . . . . . . . . . .`  . . . . . .`  .`  .`  .` `  .`  . . . . . . . .",
",  . . . . .` =. . . . . . .[  . . . . . . . . . . . . . . . . .`  .`  . . . . .`  .`  .`  . . . . . . . . . . . . . .[ `  . . .",
",  . .`  . .`  . . .`  . . . . .`  . . . . .` [  . . . .[  . . . . . . . . . . . . . . . . . . .`  . . . . . . . . . . . . .`  .",
", `  . . .` `  . . . . . . . . . . . . . . . . . . . . .`  . . . .`  . . . . . .`  . . . . . . . .`  . .`  . . . . . . .`  . . .",
",  . . . . .[ ,. . . . .` `  . . . . .`  . . . .`  . . . . . .`  . . . .[  . . .` `  . .`  . . . . . .` `  .` `  . . . . . . . .",
",  . .`  . .` %.}  . . . . .`  . .[ `  . . . . .`  . . . . . . . . . . . . . .`  . . . . . . .`  . . . . . . .[ `  . . . .`  . .",
", `  . . . .`  . .`  . . . . . . . . . . . . . . . . . . . . . .[  . . . . . . .[  . . . . . . . . . . . . . . . . . . . . . . .",
",  . . . . .[ ,. . . . . . . . . . . . . . . . . . . . . . . . .`  . . . . . . .`  . . . . . . . . .`  . . . . . . .`  . . . . .",
",  . .`  .`  . . . .`  .`  . . . . . .` `  . . . .` [  .`  . . . . . .`  . . . . . . .`  . . . . . . . . . .`  . . . . .[  . . .",
",  .} [  .` `  . . . .`  . . . . . . . .`  . . . . . . .`  . . . . . .`  .[ `  . . . .` `  . . . . . .[ `  . . . . . . .`  . . .",
", `  .`  . . . . . . . . . . . . . . . . . . . . . . . . . . .`  . . . . . . . . . . . . . . . . . . . . . . . . . . . . . . . .",
",  . . . . .` 0. . . . . . . . . . . . . . . . . . . . . . . .[  . . . . . . . . . . . . . . . .`  . . . . .`  . . . .`  . .`  .",
", ` %. . . .`  . . . . . . . .` `  . . . . . . .`  . . . . . . . . . . . . . .`  . . . . . . . . . . . . . . . .` [  . . . . . .",
",  . .` %. .`  . . . . . . . . . . . . .%.}  . . . . . . . . . . . . . . . . . . . . . . . . . . . .+. . . . . . . . . . .%.}  .",
", `  .` } ` `  . . . . .[  . . . . . . . . . . . . . . . . . . . . . . . . . . . . . . . . . . . . .`  . . . . . . . . . . . . .",
", ` } `  . .`  . . . . .%. . . . . . . . . . . . . . . . . . . . . . . . . . .%. . . . . . . . . . . . . . . . . . . . . . . . .",
", `  . .%. .`  . . . . . . . . .`  . .}  . . . . . . . . . . . . . . . . . .` `  . . . . . . . . . . . . . . . . . . . . . . . .",
", { ` [  .`  . . .` ` ` `  .`  . .`  . . .`  . . . . .` ` `  .` ` `  . . .` ` ` ` `  . .` ` ` `  .} `  .` `  . .` `  .`  .`  .` ",
"` `  .` 0. .` 5. .%.,. .+. .=. . . . .%.,. .} %.%.,. .+. .0. .0. .=. .,. .0. .0.,.=. .=. .0. . .%. .=. . . .%.,.%.5. .%. .%. .5.",
", `  .` ` ` ` ` `  .` ` `  . .{ ` `  .`  .[ `  .` ` ` ` ` ` ` ` `  .` ` ` ` ` ` ` ` ` `  .` ` `  .`  .{ `  .` `  . .` `  .` ` ` ",
"- ` , , , , - , , , , , , , , , , , , , , , , , , , , , , , , , , , , , , , , , , , , , , , , , , , , , , , , , , > , , , , , , "
};
