/* XPM */
static char *M41709484628[] = {
/* columns rows colors chars-per-pixel */
"64 64 216 2 ",
"   c #050101",
".  c #0B0301",
"X  c #0C0A04",
"o  c #02010A",
"O  c #0E0D0C",
"+  c #09030F",
"@  c #120600",
"#  c #140C03",
"$  c #190E02",
"%  c #130E0B",
"&  c #0F100B",
"*  c #1D1203",
"=  c #13120E",
"-  c #1C140C",
";  c #17180C",
":  c #000014",
">  c #01021C",
",  c #0C0F14",
"<  c #120F13",
"1  c #120F18",
"2  c #0E1213",
"3  c #0E1319",
"4  c #141414",
"5  c #1B1512",
"6  c #171813",
"7  c #1B1A15",
"8  c #14151B",
"9  c #19171C",
"0  c #16191B",
"q  c #1D1D1C",
"w  c #221505",
"e  c #261A02",
"r  c #22160D",
"t  c #231C0D",
"y  c #2B1D0D",
"u  c #2D1F02",
"i  c #211715",
"p  c #231C14",
"a  c #291D11",
"s  c #221E1B",
"d  c #281E1C",
"f  c #1D210B",
"g  c #1D2015",
"h  c #1D201C",
"j  c #2D2106",
"k  c #2C230C",
"l  c #262209",
"z  c #33270F",
"x  c #232314",
"c  c #2A2215",
"v  c #202813",
"b  c #22211E",
"n  c #2A231C",
"m  c #2B2918",
"M  c #322314",
"N  c #3A2514",
"B  c #352913",
"V  c #31251C",
"C  c #332A1D",
"Z  c #3B2E1B",
"A  c #2E331F",
"S  c #3B321B",
"D  c #3D3214",
"F  c #020224",
"G  c #02032B",
"H  c #04082E",
"J  c #0A072A",
"K  c #131626",
"L  c #141B21",
"P  c #1D1E22",
"I  c #15142B",
"U  c #1D1C2B",
"Y  c #010036",
"T  c #080632",
"R  c #0A0932",
"E  c #02023C",
"W  c #0B063C",
"Q  c #100B33",
"!  c #1B1B37",
"~  c #221E22",
"^  c #291F22",
"/  c #221E2A",
"(  c #221F31",
")  c #1E2123",
"_  c #1E232C",
"`  c #1E2132",
"'  c #212121",
"]  c #2B2523",
"[  c #272823",
"{  c #2C2B25",
"}  c #23232B",
"|  c #2B252A",
" . c #25292B",
".. c #2D2D2D",
"X. c #332C24",
"o. c #3A2F25",
"O. c #332D2A",
"+. c #392E2C",
"@. c #302722",
"#. c #2E312C",
"$. c #343327",
"%. c #3B3326",
"&. c #3F3826",
"*. c #34322D",
"=. c #3B322A",
"-. c #3C3B2D",
";. c #242331",
":. c #2C2D34",
">. c #2E2D3A",
",. c #292837",
"<. c #312F34",
"1. c #332E39",
"2. c #2E3235",
"3. c #2F333A",
"4. c #323232",
"5. c #3B3432",
"6. c #373833",
"7. c #3B3A33",
"8. c #32333B",
"9. c #39343C",
"0. c #37383A",
"q. c #3B3B3B",
"w. c #462D19",
"e. c #4D3216",
"r. c #4B321B",
"t. c #43391F",
"y. c #45301F",
"u. c #543316",
"i. c #5C3A1B",
"p. c #52361E",
"a. c #633F1F",
"s. c #402E20",
"d. c #443322",
"f. c #443A22",
"g. c #43372B",
"h. c #433B2C",
"j. c #4B3929",
"k. c #4B3824",
"l. c #5E3D21",
"z. c #513C2B",
"x. c #453C34",
"c. c #483F36",
"v. c #443C39",
"b. c #4A3E38",
"n. c #403636",
"m. c #4B422B",
"M. c #444228",
"N. c #55422D",
"B. c #5C4229",
"V. c #474030",
"C. c #4C4334",
"Z. c #4F4B3F",
"A. c #574331",
"S. c #504831",
"D. c #514B3B",
"F. c #5F4932",
"G. c #57503E",
"H. c #5D593C",
"J. c #624226",
"K. c #68472A",
"L. c #694A2D",
"P. c #714D2D",
"I. c #684A30",
"U. c #644C34",
"Y. c #6B543D",
"T. c #785738",
"R. c #70543E",
"E. c #020043",
"W. c #02004A",
"Q. c #171A45",
"!. c #181B46",
"~. c #1B1E49",
"^. c #050152",
"/. c #2E2C4B",
"(. c #2B2844",
"). c #312D48",
"_. c #3B3B40",
"`. c #3B374E",
"'. c #463D40",
"]. c #444444",
"[. c #4B4B4B",
"{. c #484848",
"}. c #574F42",
"|. c #5A5545",
" X c #5D5946",
".X c #4E4F51",
"XX c #4F5052",
"oX c #545454",
"OX c #5A5A5A",
"+X c #655C4B",
"@X c #745842",
"#X c #635852",
"$X c #6A624C",
"%X c #75634F",
"&X c #646254",
"*X c #6E6757",
"=X c #7B6959",
"-X c #575465",
";X c #646464",
":X c #6C6C6C",
">X c #737373",
",X c #7A7A7A",
"<X c #7C766A",
"1X c #856242",
"2X c #8A694C",
"3X c #806751",
"4X c #876C53",
"5X c #8A715D",
"6X c #937052",
"7X c #837262",
"8X c #977E68",
"9X c #947862",
"0X c #867E73",
"qX c #968069",
"wX c #988878",
"eX c #818181",
/* pixels */
"9 4.....*...4.O.O.:...O.4.4.4.4.<.*.:.*.2.*.4.:.*.2.O.2.4.*.:.*.2.O.4.2.*.2.O.2.4.:.*.2.O.2.4.*.:.<.<.<.:.<.<.<.<.8.<.<.4.:.:.0.",
"7 .. .'  .'  .q ' ' ) ' ' ' ' ' ' ' ' ' ' ' ' ' ' ' ' ' ' ' ' ' ' ' ' ' ' ' ' ' ' ' ' ' ' ' ' ' ' } } ' } ' ' } ' } } ~ } P ~ ..",
"q .. .s b 9 ~ 7 h q q q s b ) q q q q q q q q q q q q q q q q q q q q q q q q q q q q q q q q q P P q P P P q P q ~ P q P P P | ",
"q O. .q ' q  .' ' ' ' ' ' '  .' ' ' ' ' ' ' ' ' ' ' ' ' ' ' ' ' ' ' ' ' ' ' ' ' ' ' ' ' ' ' ' ' ' ' ~ ' ~ ' ' ' ~ ' ) P } ' ' 4.",
"9 ..' q ' q  .' ' ' h ' ' ' ' ' ) s ' ' q ' P b b ' ' ' s ) ' P s ' b ' ' b ) b ' P ' b P ' ) ' P ' ' ~ ) ' ' ) P ' ~ P ' ' ' 4.",
"q ..' q ' q ' q ' h ~ ~ '  .' ' ' P q ) ' ' q ' P q q P ' q ' q P ) q P q ~ P q h P q ' s b q P P P P P ~ P ~ P ' ' q P ' ' } <.",
"q 4.' ' ' q ' ' ' ' b ' b  . .b h s s ' b q ' q b b h b b b b ' b b b s b b b b ' s b ' b b b s b ) ' ' h ' ~ ' '  .) q ' ) ' 4.",
"6 ..' ) ' q ' ~ ' ' ~ b ' ' ' ~ ' h q h s h h s q b q b q q q h b q ) s q b q s b s q h s q b b P s q b q ' q h ' ' s q b q ' 4.",
"9 q.h 9 ' ] q  .q  .) q ' q q ' h q b b h q q h ' ' h h ' ' ) 6 b 7 s ' s ' ' 7 b  .7 ] 6 ' q ' q s ) ' ' ' ' h ' ' q b q '  .4.",
"4 q.q P ' ' 0 q 7 ' q q ' ' q ' ' h q b q b h ' b h q q h ' [ #. .s s b 7 q ' b s b 7  .7 b 7 ~  .'  .' ' ' ) P ' s ) ' ' '  .O.",
"  q O 4 6 4 O 4 4 6 < % 8 4 4 6 6 6 = = = & & & & = 6 6 = X X X = = = % % % = 4 % = % 5 % 5 = = % = & O % & & 4 % & 4 4 O X O % ",
"q 4.| 4.........4.0.<...4.4.....#.#.#.#.#.*.#.{ { #.*.6.6.*.*.6.] +.4.O.<.O.X.O.5.*.O.O.O.6.O.O.*.4.*.4.4.4.6.4.4.4.4.6.2.....6.",
"0 4.)  .7 ~ ' P 8 q 6 4 9 0 8 q 7 h h h h [ b b [ h 6 7 h h b [ q ] s s ] b 7 n b ] n 7 s b b s q ' ' ' h q q h q q h b b b | *.",
"9 *.h b 0 <.6...q.].q.q.V._.V.{.6 h b g ; 6 6 4 6 = = h h 7 = = 7 b 5 % 7 5 % 5 = 0 b = s 5 s 6 4 7 9 7 6 4 6 7 6 6 7 q 9 7 h ..",
"4 ..q q 6 _.[.6.'.].].6.0.0._.{.7 b [ & X X 6 6 & & 6 { $.{ [ [ % 5 # X s =   . . % n 5 s 7 s 5 b b b 7 6 4 g b q 7 b ' b b [ #.",
"7 4. .q 6 ].oX2.{..X].q.6.2.0.{.6 h ) 6 & g $.7.-.{ v 7 & X X p X p - 5 o.p       $ @.c @.a V p { n 7 X             X 6 g h [ { ",
"4 4.' h q oX:XoXOX>XV.OXoX4.{..X0  ._ = ;   &X-.C.t %.&.# X - p # p . h.+XZ z j e j f.f.$Xh.&.h.qX-.- # * . .   . @ # - p b b *.",
"~ q.| P 6 {.OXq.{.oX8.{.{.0.0.[.2 L h 2 = X &XD.G.c h.C.c - p d % - $ V j.z w j j e D * S.k m * 7.V V w $ . * w @ $ - p n b b { ",
"O ..q q ' oX:XXX.X>X4.OXOX4..X{._  . .h g X  XD.|.C V.D.V - - p - r p * y w @ e * D t.B t t r c 5 * - X $ w a @ r t r - p s b 6.",
"q 6.P q 9 ].oXq.oXOX_.{.].0.' 4.4 0 0 h g &  X X*XC. X+X-.p p n i s p - p a w a y w Z % V.c +.% c.C x * n o.%.# =.=.n p g h b $.",
"7 :.' ' ' oX:XoXoX,X4.;X;Xq.oX{.q _ ) [ [ g Z.|.}.%.V.V.p # # b % ^ @ % #   @ @ @ - r X.- i 5 | ] 7 p X .   @   . $ = 7 b q b ..",
"9 ..q 7 = 0.{.6.].{.4.'.q.4.' 0.0 L 8 6 ;   p x =.x @.n % . # s . ' % O.b.n.#Xb.b.r d i 9.| 1.^ O.b *.n p # 5 -   X # = q q b 2.",
"7 2.'  .' oX>X;X;XeX].;XOX4.{.[.0  .' [ { #.$.=.h.o.h.$.X.$.O.6.5.q.O.5.5.O.n.@.n.+.+.'.^ 1.1.9.6. .5...4.] O.n v.v.O.' ' h ) 2.",
"9 ..~ q 4 q.OX[..X;X4.].q.'  .6.4 _ h h ' n p 7 p p b 7 p { s g ] 7 b s p ^ c ] i i ] ^ 9 ' ,.9 ) P ..q s s X.b 7 b q ' [ ' ' 2.",
"9 4.q ' ) 4.6.4.4.O.2.4.6.4.:...) ) h h s s s p n n b b b b b b h h b x b s p s d s ~ ~ ~ ~ _ P P P _ ' ' s s s s b s ' ' ) P :.",
"h 6.' ' 9 ' q q  .b P s ' ' ' h h ) h ) ' ' b n s s s s h h b h h b h b h x b s s s s ~ ~ ~ P P ) _ ) P P s ~ s s n ~ ' | ' } 6.",
"4  .q  .q P q q ' b q q q ' q ) h ) h ) 7 7 s i b s b b h ) ) h h b h h b s s n s s P P ~ P P ) ) _ ) 0 q ~ s s s s s 7 ~ P ~ :.",
"  4 O 7 4 4 6 q 4 < 2 O O O 4 O 4 4 4 4 4 < % < < % < = 2 & 2 2 4 2 4 4 4 1 8 4 1 8 4 4 4 3 4 3 3 3 < < 4 4 4 = % 5 % % % O O 6 ",
"9 6...4. ...| ....4.4.4.4.*.2.4.#.2.2.*.4.4.1.+.<.+.4.8.4.2.2.:.2.,.:.:.:.>.>.>.1.1.>.>.2.2.2.:.3.:.:.4.0...| +.O.n.+.O.*.O...4.",
"6 4.' ' 7 ~ ' q 6 0 9 q 6 0 0 0 h h h q q q P s ~ ~ ' ' ' ) ) ) ` ` ` ` ` ( ( / ;.} / ;._ _ _ _ _ ) )  .' s p s i ^ ^ s d ] ] X.",
"6 4.' P 7 <.6..._.v.q.q.0.q.V.].h h q q q 9 9 ~ 9 9 9 9 0 8 2 3 K I I I I I I I I I K K K K K K 3 P ) 8 < i s s i d i - 5 s ' X.",
"8 0.' 7 q q._.q.{.]._.q.0.q.{..X0 0 h ' ] O.+.+.+.+.=.*.*..... .F G G G G G F J F F F F > F F > : U P +   s X.a c V p $ % s | 4.",
"6 *.' b 0 V.oXq.].oXq.].q.2.4._.L 0 | = x.7Xz.5Xe.3Xk.7XX.<Xc } H E E E E E E E E E E W W E Y Y W F /.o   x.$Xt.t.+Xg.  5 | P :.",
"4 2.' ' } OX:XOX.X,Xq.[.oX5.].oXL L ' . j.z.r.J.i.K.B.r.k.A.=.| F Y E E E Y Y Y Y E Y Y Y Y Y Y T G (.o @ c j.B k f.a   4 7 q 8.",
"P 4.q 9 4 ].oXq.oX[.{.oXq.].].[.) q +.n j.8Xl.6XP.1XL.4X@X*XM = > F H H H G H F H H G G H F H H J : (.+ o     . . .     7 g b -.",
"0  .q P ' OX:XOX].,X:.{.OX*.q.[.4 9 p @ z.r.J.a.a.i.u.e.B.N.s.O.! Q.!.!.!.!.!.!.~.~.~.!.Q.Q.!.Q./.(.-X1.+.d d V +.+.+.X.{ v f g ",
"q 4.' q 9 ].OXq.OX{.[.oXq.q...4.7 5 V M w.9XK.2XP.1XT.2XU.A.y ^ W W.W.W.W.W.W.W.W.W.W.W.W.W.W.E Y F ,.o           . .   = b [ #.",
"4 O.'  .b XX;X.X.X,X6.OX;Xq._..X0 p p @ s.w.I.u.J.i.e.p.F.A.Z ^ W ^.W.^.W.^.^.^.W.^.^.^.^.^.W.W.W Q `.o X c S l k &.c   O q } 2.",
"9 4.' 7 % 0..Xq.[.].6.{.q.6...q.s s @.V w.=XY.@XR.4XB.8X%XwXo.i G E E E.E.E E.E.E.E E E.E.E.E.E G F ).o X %.H.M.m.+X$.X 8 P P >.",
"4 <.]  .q oX>X;X:X,X{.OXoXq.0.{.1 s p - V g.k.N N y.d.M d.Z X.' F G T R R R G G G G G G G T H R J J `.o   7 M.l t &.7   q P K _.",
"4 #.q h ' q.[.oXOX{.].q.q.....4.P P ' ' @.O.o.o.=.o.d.+.=.$.$.6.4.8.3.8.3.3.3.3.3.3.3.3.3.3.).3.8.8.8.4.4.*.*.4.4.4.9.:.s 7 m #.",
"q 6.' ' q :.6.6.6.:...4.4.....q.P P U P ' | ] ] p s s s q s h h q q h h q h h h P h q h q h h h P P q h s s ~ ~ / / / ' ~ b m A ",
"+ ' 4 6 = 9 8 6 9 4 4 q 7 7 8 P 8 8 8 9 4 8 1 4 q 8 9 8 9 9 0 0 9 0 9 0 9 8 q 0 9 9 0 0 9 9 9 9 q 9 9 7 6 6 6 0 8 1 1 8 q 6 6 ; ",
"7 0...4...4.<...6.#.<.4.4.:.....>.>.8.8.3.8.8.4.4.4.2.3.2.2.2.2.8.4.4.2.8.4.4.4.4.4.8.4.4.4.8.4.1.>.4.4.$.$.$.$.5.6.<.8.8.2.2.#.",
"6 ..7  .q ' q q h ~ h ' ' ' ' ~ P ~ P ~ P } P } P P P P q P q q q q q g q q h 7 q q q h q 7 h q U U U 9 g f f f f 7 q } / / ;.>.",
"9 <.q ] q ' ' ' ' ' ' ' ' ' ~ ~ ^ ~ ~ ~ ~ P P P } ' ) ) ' ' ' b b b b b b b b b b b b b b b b b ( } } b b v l v g q ' ' P U ;.1.",
"9 ..9  .q ' '  .' ' ' b P q q q ~ d d ~ ^ ^ ~ ' P q q q s s s s h 7 h q b 7 b q h q s q b h q q b q q g g g q h '  .;.;.P q ' $.",
"q *.7  .q q q ' q P q q ' ' ] ' s s d ~ ~ ' ' } ~ ~ ' b s b s s b b b b b b b b b h b b b b b b b b g b h b ) U _ U U } ' h m { ",
"9 4.q ' 9 b h P ' b h ' ~ P b ) b b q ~ s P ~ h ' ' P b s ' b b ' ) ) s ' q P ' ) s s ) q ' q b h h ' q b P ' ' P ' P P ' q b *.",
"q #.q  .q ' ) b b P ~ ' ) b ) s ~ h ' ' ' ' ' ' P b q ' ' h P b q s ' ' ' ' b ' ' ) ' b ' ' ' ' s b ' ' h ~ ' P q ' b ) ' ~ b 2.",
"9 *.q  .9 ' q ' ) ' s h P b b ~ ~ ' h ' h b P q s ) ' ' ' ~ P ' ' ' ' P ) s ' q s ) ' P ' q ' P ) ' s ) h ' ~ ) P ' ' s ' q ' 2.",
"9 4.s ' q ' b P s ) ) ~ b ) s ) h ' ~ P ~ ) b ' ) ' ~ h h ~ b ' b P h ~ b ) b P h ~ s ) ' ' h ~ s ' q ' ~ ' h ' q ' ' ~ ' q ' O.",
"7 2.P  .7 ' ' b ) b b P ' ) s ' ) s ' b ) s P b s ) ' ' q ' ~ h ' ' ) s P ' b ' ' b P b ) s ) ) ) s b ' P b ) s q ' b P ' q ' 4.",
"0 *.s ' 9 ' q ' s P ' b P b s ) ' h P ' ' ) b ' ~ ' q ' ) ' ) s q ' P ' ' h P b P ' P ' ' s ' s ) ' P ' q ' s ) q ' ) b ' ) b 4.",
"9 *.q ' q ' b P ' ) P ' ' h ) ~ ' ~ P ' ~ h ' P h b ' ' s b ) ) ) s b ) ) ~ s ) ) b b ) b ) P b ~ ~ h h ' b ' ' s ' ' q ' q ' 2.",
"7 2.q  .9 b h ' ) s ' h ~ ~ ' h h ~ b h ~ ' s ' ' P q ' ' P s ' ' ) ' s s ' ) ' s P ' s P b ' ) h ' ' ~ ' P q ' q  .) ' ' q ' O.",
"9 ..' q ' q ] ' q ' s q ' ' ) s s q P ' b P s q h ' s q q s q s q ~ q s ) b ) s s P q s q s s s P ' s q P ' b ' q q ' ' q 9 ' ..",
"9 O. .) ' q  .' ' ' '  .' ' ' ' '  .' ' ' '  .' ' ' '  .'  .'  .' '  .' ' ' ' '  .' '  .' '  .' ' ' '  .' ' ' ' ' ' '  .' s  .4.",
"7 ..' q ' q ~ q s P q q s q ) q q q ' q b q h P ~ q q q q ~ q q h q ~ q P q ) s q q b q ) q P q b q q q b q h P q ~ q ' q q b ..",
"q 2.] b  .'  .' ' ' ' ' ' ' ' ' ' ' ' ' ' ' ' ' ' ' ' ' ' ' ' ' ' ' ' ' ' ' ' ' ' ' ' ' ' ' ' ' ' ' ' ' ' ' ' ' ' ' ' ' ' b | 4.",
"7 ..) q ' s ' q h q q q q P q q h P q q q q q q q q q q q q q ) q q q q q q q q h q q P q ) q q q P q q P q q q ) q q b h q ' ..",
"6 ..' ' ' '  .b ' ' ' ' ' ' ' ' ' ' ' ' '  .' ' ' ' ' ' ' ' ' ' ' ' ' ) ' ' ' ' ' ' ' ' ' ' ' ' ' ' ' ' ' ' ' '  .' ' '  .' | ..",
"P 6.:..... .2...:.#.......#.2...#.....#...........#.4...#.....#.#...#.....#.4.......#...#.........#.*.:.#...#...O...#.4.4.#.#.4.",
"X b 9 7 q 7 q 7 9 9 7 q 9 9 7 9 7 9 9 9 7 9 0 7 0 q 9 9 0 7 9 9 q 9 q 9 9 7 9 9 0 7 9 q 9 9 6 q 9 9 7 9 7 9 9 0 9 7 9 q 9 0 7 9 "
};
