/* XPM */
static char *cfe8fb4e0d394e94e1d06b0ff884bd27OwwXo2SAuT3wKv6e[] = {
/* columns rows colors chars-per-pixel */
"64 64 45 1 ",
"  c black",
". c #00001C",
"X c gray11",
"o c #28200C",
"O c #302410",
"+ c #382C14",
"@ c #202020",
"# c #282828",
"$ c #2C2C2C",
"% c gray19",
"& c #343434",
"* c gray22",
"= c #403018",
"- c #483818",
"; c #543C1C",
": c #044000",
"> c #044C00",
", c #045800",
"< c #046400",
"1 c #047000",
"2 c #047C00",
"3 c #5C4020",
"4 c #6C4824",
"5 c #744C28",
"6 c gray25",
"7 c #484848",
"8 c #4C4C4C",
"9 c gray33",
"0 c gray36",
"q c #646464",
"w c gray44",
"e c #7C7C7C",
"r c #80502C",
"t c #885830",
"y c #905C34",
"u c #9C6038",
"i c #A0643C",
"p c #A86840",
"a c #C87C4C",
"s c #048800",
"d c gray55",
"f c #989898",
"g c gray66",
"h c #B4B4B4",
"j c #C0C0C0",
/* pixels */
"uuytt5rrtrittuprutrrrryr5rtrrrr5r55trurtrrtyrrr4r5r5r5rturytrru5",
"4433;-;;;;3--35343;;-;3;--;;;;3;4;----;;;-;3-;3;4;3-;-;;3-;;;33;",
"+=+==-=+==-==+=+==-=++=====+=+=+==-++++==+===+=+==-+=+====+=+==-",
"*****66*6666666666***667*66**********66*6766**6666666666*66*****",
",,,,,1<,121,aaaaaaaaaaaaaaaaaaaaaaaaaaaaaaaaaaaaaaar><11,<1,,,,,",
",,,,,1<,<1<,aiiiiiiiiiiiiiiiiiiiiiiiiiiiiiiiiiiiiiir:,21,<1,,,,,",
",,,,,1<,<1<,airrrrrrrrrrrrrrrrrrrrrrrrrrrrrrrrrrrrir:,11,<1,,,,,",
",,,,,1<,<1<<air                                  air:<11,<1,,,,,",
",,,,,1<,<111air     qeeeeeee        qeeeeeee     air,111,<1,,,,,",
",,,,,1<,<11<air     eeeeeeeq        eeeeeeeq     air,111,<1,,,,,",
",,,,,1<,<21,air     eeeeeee         eeeeeee      air:<21,<1,,,,,",
",,,,,1<,<21,air    qeeeeeee  efffffe0eeeeee      air:<21,<1,,,,,",
",,,,,1<,11<<air    eeeeeeee effffffff0eeeee      air><12,<1,,,,,",
",,,,,1<,1211air    eeeeeeeqeffffffffffqeeeq      air,<11,<1,,,,,",
",,,,,1<,1221air    eeeeeee ffffffffffff0ee       air,222,<1,,,,,",
",,,,,1<,211<air   qeeeeeeeefffffffffffffee       air>122,<1,,,,,",
",,,,,1<,22<,air   eeeeeeeeffffffffffffde0e       air:<2s,<1,,,,,",
",,,,,1<,22<,air   eeeeeeeqffeffeeeedfew0dq       air:,22,<1,,,,,",
",,,,,1<,11<,air   eeeeeeee0&ff7fffffde0wdeeeeeee air:<12,<1,,,,,",
",,,,,1<,11<,air  qeeeeeeee&w  8wX  @d0wwdeeeeeee air:<12,<1,,,,,",
",,,,,1<,<1<<air  eeeeeeeeefX  Xf ...Xewedeeeeeeq air><11,<1,,,,,",
",,,,,1<,<111air  eeeeeeeeef  . f ..  few0eeeeee  air><11,<1,,,,,",
",,,,,1<,1221air  eeeeeeeeef   q8f   $fe0eeeeeee  air,121,<1,,,,,",
",,,,,1<,221,air qeeeeeefde&fffX eefff& Xf6eeeee  air:122,<1,,,,,",
",,,,,1<,22<,air eeeeeeeqdX09 X  qfX @w6Xg7eeeeq  air:<22,<1,,,,,",
",,,,,1<,12<,air eeeeeeefg*e*.f*0ff6 *9qfdheeee   air:<22,<1,,,,,",
",,,,,1<,12<,air       qeeee%#ffffff&7 qeeeeeee   air:,22,<1,,,,,",
",,,,,1<,111<air       eeeee% #$7*  %  eeeeeeee   air><21,<1,,,,,",
",,,,,1<,1111air       eeqgfd877w8%999eeeeeeeeq   air,121,<1,,,,,",
",,,,,1<,1111air       eeedffe      fgffd9eeee    air,211,<1,,,,,",
",,,,,1<,<11<air      qeeqddee        dfdddeee    air>111,<1,,,,,",
",,,,,1<,11<,air      eeeefeee        eef*weee    air:<11,<1,,,,,",
",,,,,1<,12<,air      eeeeeeeq        eejweeeq    air:<22,<1,,,,,",
",,,,,1<,121,air      eeeeeee         eeeeeee     air:<22,<1,,,,,",
",,,,,1<,121<air     qeeeeeee        qeeeeeee     air:<22,<1,,,,,",
",,,,,1<,121<air     eeeeeeeq        eeeeeeeq     air>122,<1,,,,,",
",,,,,1<,<11<air                                  air>121,<1,,,,,",
",,,,,1<,<11,airaaaaaaaaaaaaaaaaaaaaaaaaaaaaaaaaaaair><21,<1,,,,,",
",,,,,1<,<11,aiiiiiiiiiiiiiiiiiiiiiiiiiiiiiiiiiiiiiir:<21,<1,,,,,",
",,,,,1<,<1<,arrrrrrrrrrrrrrrrrrrrrrrrrrrrrrrrrrrrrrr:<11,<1,,,,,",
",,,,,1<,<1<,,><<<,>>,<<,:>,::::::::::,>:><<,,,,,<<<::<11,<1,,,,,",
"rrtyrrr4r5r5r5rturytrru55ruprutrrrryr5rtrrrr5r55trurtrrtyrrr4r5r",
";-;3-;3;4;3-;-;;3-;;;33;--35343;;-;3;--;;;;3;4;----;;;-;3-;3;4;3",
"=+===+=+==-+=+====+=+==-==+=+==-=++=====+=+=+==-++++==+===+=+==-",
";3;3O r;4;4;444O r4;4;;43;O r;;;43;;;O r;34;;;4O r4;;;;;;;O r;44",
"5t5t;op5y5y5yyy;opy5y55yr5;op55ryrr5r;oprryr55y;opy555rr55;opryy",
"5t5t;op5y5y5yyy;opy5y55yr5;op55ryr55r;op5ryr55y;opt555rtr5;opryt",
"5t5t;op5y5y5yyy;opy5y55y5r;op55ryr5rr;op5ryr55y;opt55rtytr;optyt",
"5t5t;op5y5y5tyy;opy5y55y5r;op55ryr5rt;op5ryr55y;opr55ryyyr;opyyr",
"5t5t;op5y5y5tyy;opy5y55y5r;op55ryr5rt;op5ryr55y;opr55tyyyt;opyyr",
"5t5t;op5y5y5ryy;opy5y55y5r;op55ty55ry;op55yt55y;op555yyyyy;opyyr",
"5t5t;op5y5y5ryy;opy5y55y5r;op55tt55ry;op55tt55y;op55ryyyyy;opyyr",
"5t5t;op5y5yr5yy;opy5y55t5r;op55yt55ty;op55ty55y;op55ryyyyy;opyt5",
"5t5t;op5y5yr5yy;opy5y55t5t;op55yr55ty;op55ry55y;op55tyyyyy;opyt5",
"5t5t;op5y5yr5yy;opy5y55t5t;op55yr5ryy;opr5ry55y;op55tyyyyy;opyt5",
"5t5t;op5y5yr5yy;opy5y55r5t;op55yr5ryy;opr5ry55y;op55yyyryy;opyr5",
"5t5t;op5y5yr5yy;opy5y55r5y;op55yr5ryy;opr5ry55y;op5ryyr5ry;opyr5",
"5t5t;op5y5yr5ty;opy5y5555y;op55yr5ryy;opr5ry55y;op5ryyr5rt;opyr5",
"rt5t;op5y5yt5ty;opy5y555ry;op55yr5ryy;opr5ry55y;op5ryrr55r;opyr5",
"rt5t;op5y5yt5tt;opy5y555ry;op55y55tyt;opt55y55y;op5tyr555r;opt55",
"rt5t;op5y5yt5rt;opy5y555ry;op55y55tyt;opt55y55y;op5tyr5555;opt55",
"rrrr5r55trurtrrtyrrr4r5r5r5rturytrru5uuytt5rrtrittuprutrrrryr5rt",
";;;3;4;----;;;-;3-;3;4;3-;-;;3-;;;33;4433;-;;;;3--35343;;-;3;--;",
"+=+=+==-++++==+===+=+==-+=+====+=+==-+=+==-=+==-==+=+==-=++====="
};
