/* XPM */
static char *W11709484269[] = {
/* columns rows colors chars-per-pixel */
"87 87 97 2 ",
"   c #060000",
".  c #0C0100",
"X  c #130300",
"o  c #180700",
"O  c #160A00",
"+  c #1C0C00",
"@  c #190E08",
"#  c #1E1101",
"$  c #1E150A",
"%  c #200F01",
"&  c #231303",
"*  c #281704",
"=  c #261806",
"-  c #2B1905",
";  c #23140A",
":  c #2C1709",
">  c #261A0B",
",  c #2C1C0B",
"<  c #321E06",
"1  c #301E0C",
"2  c #251D12",
"3  c #2B1E12",
"4  c #311E12",
"5  c #2D210E",
"6  c #352107",
"7  c #33220D",
"8  c #3A250E",
"9  c #272113",
"0  c #2E2213",
"q  c #2D251A",
"w  c #2E281A",
"e  c #342413",
"r  c #392613",
"t  c #352916",
"y  c #3C2A15",
"u  c #342619",
"i  c #3B2619",
"p  c #35291B",
"a  c #3D2C1B",
"s  c #3D301D",
"d  c #352C22",
"f  c #3D2E21",
"g  c #373024",
"h  c #3E3122",
"j  c #373028",
"k  c #412716",
"l  c #422D16",
"z  c #412E1B",
"x  c #482F1B",
"c  c #433117",
"v  c #44321D",
"b  c #4A351E",
"n  c #42381F",
"m  c #4A391F",
"M  c #51391F",
"N  c #422E20",
"B  c #453422",
"V  c #493623",
"C  c #463925",
"Z  c #4C3925",
"A  c #443629",
"S  c #4B3628",
"D  c #463929",
"F  c #4C3C2A",
"G  c #523C25",
"H  c #513E2B",
"J  c #4B3E31",
"K  c #513F33",
"L  c #4D422D",
"P  c #534027",
"I  c #594127",
"U  c #54412D",
"Y  c #59442D",
"T  c #4E4133",
"R  c #544433",
"E  c #594633",
"W  c #544933",
"Q  c #5C4935",
"!  c #544539",
"~  c #59463A",
"^  c #564A3C",
"/  c #5C4B3B",
"(  c #5E503E",
")  c #61492F",
"_  c #624C33",
"`  c #614D3A",
"'  c #64513D",
"]  c #6A563D",
"[  c #544A40",
"{  c #5C4D42",
"}  c #5E5144",
"|  c #614F41",
" . c #635343",
".. c #6A5642",
"X. c #6B5945",
"o. c #635649",
"O. c #6E5D4B",
/* pixels */
"- Z v U Z Z z v Z H U B z v Z U H H H Y H K H U H Z V S H H G V G V v c c a v F v a a y a a N z H G b x b b v l Z Y Y U H U Y Y Y H E ` ` Y Z U L Z F F F A F J J J K A A S Z ",
"- Q F V z Z c a v Z Z c a v F U Y U H H H G G Z G Z V V V b V v y y a c c y y c B S Z S V N N z N v b v v m b V k b G Z Z G Y H Z V G U H B y a a y a B B B A F } ! F a p v V ",
"o W V a a c e v a c v a s v Z Z V V V N x z k a r r k 8 r y z B c c v Z B a t z r y y u e e 4 e , 7 r r 8 6 8 y 7 r y r 8 r y k z l c V Z v a s i e 0 t t 4 3 , 3 ; + + 5 v U ",
"- ' Z B a & . - r a v C Z F B v V B V V V V V V V v V v v Z H H F Z n v c y c B z a a r e 4 y B z c z l a r r y a l l 8 7 8 8 8 6 7 8 7 8 7 e r a y e t e 4 = & + X . . O = 6 ",
"- ' Z B v - + a a a B F U U F F B v V B S S F S H F S S F H F V Z c a t t e y v F S C S C N B F H Z v v v v B v U U F v C F L U E Y G Z B b Z Z C z f N B C f y L L L n C F Z ",
"+ ~ B t s F L ' H Z C C Z C C C a z z z z z z N k i r a B S B a a s c v v a a B B N B H F B a a z r e 7 y c v v Z Z Z Z Z Y Q Q G Z v l a s v v B C C A S F S C t a s s c F W ",
"e  .F s t B B C h a s v h a a v B B C B B S C V a y a B Z F F F c v C L F v a s p e u B F A f B v a a a a v B C s v v v v F F Z v b v c c Z Z Z B V B N f f B p 0 t s t t n L ",
"a U s F a 7 = , O + - a B B z C a z a z s v N B v B C B z a z a s s v v s e 7 e , + + : e u i f z v v c a y a c v Z Z Z C B c r k c c y a a a t a B N a y f f y a s n s s c n ",
"t T B B B a B a B a h a C C u B B f N i S i a a C N B a N i A e s 7 t 8 t s t y t J a e B A A f a S a e a r = e a 7 V z z B t Z b c v c a y t 8 t a N N s a h B s L 5 n h e 5 ",
". : > , 3 = 0 > , & = & : , & , 1 : , = e + X + r : 3 = 3 = 1 + = = = = # 5 + & & e o . o + > : : 1 & + - = % - - # = , , : & 1 r y y k a a r t 1 u y e , > : e 5 8 = t t t # ",
"  : e p a e a u f u u 0 p f 0 f p u i u A + X % S e u 4 a e e + 7 s a t 5 p # = f D # . O , f h y a t t z f i f y p i p i 4 a B v m m Z G U F Z S S B p t e f F L s t n L ^ w ",
"  , B g A a h h D B h h D D p B B a p B ! & X , o.A F B ! F B 3 p L s h a C $ , F ! > . @ u J ! B h B S K F C A B D t B B t F R Z b v Z Z U Z v F v e , u B F F L L L n D o.d ",
". > D a D g C D B g h h B h > 9 B p u N ! % . e o.B S u B A a , p C s s h D & 0 A T ;   + u J T B d N C F A C B B r + 4 B C ! F Z Z v b Z B a y Z e + = y A h t t t s s g T 9 ",
"X > T a T B A F B h B h D B & & A B a f ^ % . r | B S = 3 N i , s C D s T h = h B T > . & p T J J y i B B S J H F 3 o e ^  ./ Z U P Z Z Z Z v c F y , t F R y # 5 s D L j j $ ",
"  # T u D 0 > = g a h s A f # O a h a p ~ + . 4  .D ! + & N f i t p L e L # O h h W ; . + p J F p ; : y p B F F B 0 t B / / F B Z b v v v v B B F B y f F C t # 5 L s L g $ . ",
". = ^ u D =     s p g s C s # # y S N N / = . t / S ! X X f B a e p T 5 D     B ! [ 2   @ f ! T , + , h C F T Z f a ' / ! F e B v v v B B Z F U E F S C B S B s t L t L 9 .   ",
". 9 T g C D O X A e a C B W & & B B z f ~ & . 3 o.h p e i B z i f v v = Z c t F A ! ;   O a Z C S & * v F Z B y r v F B v B v a a v C v F Y U m L L s n E m 8 Z y R A & q 9   ",
"  , F g B B & q S u a h z ^ a F v V N a ~ & . e o.A N p i B z k 1 a B P Z m 7 v S ~ ; X + s C C v , , z v z a y U U F v v Z Z v W m s v L L Z a U c Z b 5 c U 6 E Z , & d d   ",
". = D g h h e R F y B z y Z v ' x B z z ~ & X e { A A N z B z k : i B X.c Y 6 s S ~ ; . o f D F z a y r z y r l E U S v v H F v U a a m U P m C c F v , 7 c C v E 1 & 3 J d   ",
". , D s h D a ^ J a C C a a y E v V x N ~ & . q ! B A B z V z B N k s ] 8 Y t c A ! ; . + B F P c F c 8 a v c L v v c v Z H Z z 8 y m E U Z Z P e c 7 7 F C v R r & 3 J J q   ",
"  , F t h T a F Z a Z F B v v E V V B v ! % . e ! f A f i V B V ~ N N E 8 Z n v B K ; X o f D C Z U v 8 v Z Z E a v V v B b c a l M Y P Z m m v e & t F B L L t * - C R T w . ",
"  5 T p B W p B C v B a V v Z U V Z S v E + . 0 [ h B a i N k N ` 4 B H c m Z v S { ; . o a B B V B c a B F U E H U Z B a y z c P I P b m P Z 8 6 t B C C C u # k z F D J j . ",
". , D p B K t B Z B B 8 a r Z b b Z B B ! % . u [ N N a i B z z ~ i B H b m B V S { ; X o a B Z v z v Z Z Z F Z Y U Z B y y v Z I I M M G G n r y Y F h L w O # H Z B f T j   ",
". & B p B S t H B Z Z e c r H c x V S v ~ % . u ! f B a z V x N F k x H c Z z K A K ; . + B F L v a Z Q Z V Z B Z B B c z z V G I M ) _ Y b 6 7 L t D ( g # # > F Z B f ! q   ",
"X : A F F S y F a Z y Z k y b H G V G N ! & . u ! A N F & V k V S 4 N x Z G n G K K ; X X N L v 7 Y F c Y H r z Z v y y v H U G I M _ ) k 6 m c C F ( t O w w > ! Z a B T d   ",
". = C h Z B a F v Z a U l k v Y S V S z E ; . e J A f A % N z H K N x x c Z c Z A ! ; X o d C B F ~ Z c F Z z v Z a r v Z F U U M ) M 6 c b r y Y L e O p L > t S z t A [ d   ",
"X & S t F a c Z B G c Y l l b I Z b S z E & . 3 J A N B + k x K K S S S m m a B S { ; X o 4 z Z ~ P v B H F C B a y z Z U U U Y P m 6 6 M b y E W 5 & = s T h 5 S c p F [ q   ",
"X & H e L a v v V U b Y b l M H S V S B ! ; . e T B f f % x M K S S G H m P a B K { o . % f N R Z e a U Y Z Z v y c Z U U U U Z P - 8 P b c U _ 8 + 5 v s C C , U v r D ! 2   ",
". & R a ~ b Z v b U b Q b x M Y V b S a R =   u ! f f N 4 S S H S F F P c P a m J K X X u F C U a , c Q H v Z c a U E U F E Z a , y P P c U W 8 O v v v L v e 8 Z a p h J 2   ",
". & F a E U Z Z b H b Q m x V I V x S N ! &   e ! d A B i F H G S H B m 6 n a Z K K @ 4 A L a a Z c F E B y v v m E ~ U Z F B 8 5 Y E U Q P 5 & 7 F F F Z a t 7 y z a F ! q   ",
"X & V c F U C B l H b ) b b b I V x B a ! & . u ! f A B a F H H V K v Z 6 m y U S K d J J S t t Y U U F c t v Z U U U F Z c y e C E Y W W 7 # r W c b E c 8 Z - y b D T [ d   ",
". , B v v U l c l G b Y M c V H V x B z K & . e ! a F C i V H R 4 S C U 8 Y v W i N f ! J F Z U F Z Z Z v v Z U E B v U Z r 7 a C F / F # O y v Z U 8 Z U 6 < k z Z F D T d . ",
". $ F D B H b V l l b Y z c s Z S G z B | +   u ! f C f k S S H H F H ' y v V Z r Q R F R ~ ` t B B z a C F a e . a ~ y - a Z a B D W > : e v b G m c U U & v a k z x B J u   ",
". ; D D S F x V b b V Q v v S R H H B z / &   e ! f B B V S V V z Z v S 8 B v y U U V H H v B a v v a B Y ~ C 1 & S F 7 e U W a ! d 0 > e F b V G Z b S v & z < l c V C T d   ",
". > D D C Z x V m b V Q B Z F R H Q Z z / : . e ! A S S S H V Z B x r Z B y 8 F Z a C Z U Z c Z z B B F R F a = v e 7 a B C F R L = O a v ~ c Z I H b V v , S r b c b B T f   ",
". > A F F Z V b b b b E c V Z U H ` R B ~ ; . u [ f A C S H V V x V B H Z e y ' l a U Z H Q Z Z y C F U F B y 7 a , 1 B F a B ! e . $ D C Z k Z U G l l t 8 v e V b x C W f   ",
". 0 D T F Z F V b b b Y z Z Z F S ` _ V ~ & . u ! d z a z S x x e U H 7 c Z U F F B Q U H U z v B B C F F S B v - B S a z ! H 1 #   t B C k B x Y I b l r z v 7 Z c x B T d   ",
". 0 B L F V Z x c c b H a V v B x E ! S / % . u ! p N a z Z N B v Z v < B U E v Y B U U Z r e Z R B y v C Z a e t z v a C H a % e   e p a y S l G c r c a G Z z G b v B T d   ",
"  0 h T F B G l y l l G y B B a N G Z V | %   u ! N A B N S V V H r v C E Z U F Z Z Z F c , a G B a y a B a e 7 F t e C F 1 - i a . , h r a V l y < * k r Z a y Z V Z S T p   ",
". 0 h T F z Z l k l b H z Z B v B V z V  .& . 0 D p A A N Z x V a s Q U Z v Q Z e E U Z y < B a = 1 a S a r a S H a z F a = , R p . > F 4 a a b G 8 6 V z H a y G G H Z T d   ",
". p B g F B y V m b G H l y U S H S x S | & . p ! A a z B H F r a v Z Z Z F B a a Z y 7 v Z c v 4 r z a e 7 a Z r R ` = = 1 F ! a . p F p v z c G l x 8 r E y 8 l G l H / p   ",
". p h h F C k Z c c b H y z F C G V V S | & . i T N f A N a x x G Z Z Z Z B c v z z y a Z v a v v C B 1 1 B B a R F y % e x C S t   t A r z k x b b V l r E t t G U V F ^ q   ",
". u A B H Z c G y m b _ y V U F G V V Z { & . u J d B F N 4 z H Y Z Z Y Z c v F a 8 c F Z v v V R v e y v B B F ~ y + = x F a B t   p D i z v Z b c b r 7 U 7 r H Y Z F ^ w   ",
". e D C F Z V H k G V ] y F R U S S V V ~ + X d ! f f C N i V Y Z B B U U Z Z F a r Z U v B Z V D y e B F F F E e , o a C C t B u . p F t a V G G c r 7 = Y e r G Y S B W d   ",
". 0 D F J F Z G 8 Z b ' r V Z Z G Z B z K + X p ! f p a z S Y H c C Z Z U Y Z a z v U Z a c Z y e B B t B / R e & 7 & S B a y A u . t C e y k G G b 8 k 8 ' y e V H H z F d   ",
"  3 D T H F Z b y b b _ r a S S S Z B a K % X p ! h u i B Y E V v F U H F F c 6 Z E ' Z a Z Z e y N z a Z H a % e k = B S y N B p   u C e a v G b c 8 b t O.7 - H I U z F j   ",
". > D W F Z Z k l b G Q a y H H V Z z a ! + . u J f i C H K H V V F U Z v s a a G / E Z Z Z c y S a z R F 4 = t B B = z K e C B a   e C e z V H c k 7 b 8 X.5 = H U Q z F j . ",
"  = F ! H Z V k l v U E c r H S V V B k ~ & X , K a B ~ E S Z Z B V Z Z v 8 l U c F Z v Z v e v r B W ~ z = 1 F Z a = z Q , C F u   , h e B V G Z b 8 v 5 X.8 8 M I _ v T J . ",
"  2 B F I G x x N V B ! r v G Q V b V 8 R + o = z F F V Z H v , L L s y y n P P m 8 v E z y B N y F E - X v E H F v & B Z z a F t   = B p B B k S Y b k m W 8 7 m G ' a T A . ",
"  9 D L I G x N N B A T r v b U U V Z y R + + e S V Z H V y a v s 8 5 8 y m m y n Y n 6 B S a B  .B , X & R ^ F F z * B F B a F a   > C a B V i V H k r c Y 7 6 m Z _ v T f . ",
"  9 h Z G G x x N N A J y y c m Y v Z v Q < r U Z Z S V z y v L C a s m m P P m m P l c G a y / H e - & t H F S B a & C F B a F s   5 A a B B a V H k r y W 8 8 m P Y B T 2 . ",
"  2 a B V G M S N N S S a k l c U V Z z E v F Q Z U v r a G F c t t n m t 8 y s m 6 Z Q v y U / + & t e a Z a B B a * v Z B B F p . > D N B V k b H k r c W t y m P H F ! $   ",
"  9 h c Z P G G A f D D v y c c H Z b e B Z Z B v Z v r c Z B r P C Z H v c P P 8 c W P t Y ~ 7 & 7 r = a H B z v v * a B S B F p . 5 F N N V z z V k k Z E 8 y M P P Z ! $   ",
"  w v a b M V V S f F B C l m m b B v r v H U v v v v Z v t 8 z F t y c c s s r y L n y U U 7 & r F V = a R z t a v - a v C B C a . 5 D z N B z y x r y v U 6 8 M G I Z ! 2 . ",
"  w h s b M x k F p A h B z I G l a a Z Z H U U v v V Z z 7 8 l F x C H F B c a Z C y m U 5 # y a E F , z R r e a B , a B F B B p . 3 F a f B k k x r k v U 7 r G m Q v ! q   ",
"  w L L G Y G l F i B p Z c I P c r a U Z c v U Z F v r e v a , & , B R c 8 s C c y U W 5 # a F R E a + y F e e t v , v B F v s y . 3 F i a V k x B y a v P 7 c G c Q c T f   ",
"  g B e ) G G N H e A h C v H 6 8 Q O.U c B Z Z Z B r r k - * k - S H x B G S K z C H t + = n W Z E a + 1 F B t F U & B V a v y a   a D s F 1 k V V 7 k m U t c 8 G P v T d   ",
"  d B i I G I x i S f e S a 8 c Q E H Z v v V F c y 8 a l & & S Y k N S k F K 4 F S u o X p L L F / B & 7 S B i a D & B V a s a a . p A a F 4 N b Z r l s m r c y P U V R d   ",
"  d G k H M G x N B u A Z 8 6 _ Q H v Z Z B v c t r r z a - 1 Y _ G k z S S N B ! e X   & a L L C / S & e B B z a B - C C v v s s   t D B F i V k G a l 8 a 8 c c G P m T d   ",
"  w S N G x G G A a N T 5 C I I b Z U v v V v e < v V y e c H H B K G N S N N | u : . X & 0 C W v E v * e F Z C B S , v B B z a a   0 D B C a V y S z v 8 c y c l m G m J d   ",
"  9 L B M l G V i F F f & ' ] l G Z V a r a c r y S Z y r H K V x k K I x S ~ N + B = . O s W C s R y # t F F C B v & r a B y y t   , D B B r i r v x S y Z c l c m Z v ! d   ",
"  2 A C M k G G f ! f p F E m P U z r v b r 7 e U v v v z z V V x k k S K K i % u ! &   # t W s B U t & e Z Z B B B - e a F a B u   : F C S k i k l k Z a G n y b G M V ! p   ",
"  $ h L V k G V N p a F  .c l _ b y a H Z e 7 a Y a a Z k N S N x Y k k ~ S % % T ^ # . > 9 L L B H r & 7 S Z F B B u a a F B F p X > F S A V N a z v H t Z m k m m V B ! d   ",
"  $ s F V r G b : : F F v c ) G 8 v Z v 7 7 c ~ Z v B c k M H x K x K ~ 4 % 4 N A } #   # 5 L T y F y & 7 B L ~ z S B B y C y C t   & C B B V x k x V G 8 m Z 8 b m b v ! p   ",
"O O T ( p B v t , Z H r l _ ) M Y Y N 1 e H K V k ! S 1 z H F H 4 B ` i % i f A A ! ;   O p ^ T a E v o r Z E E v v 7 Z c B V B e   , D B N x N b b Z V B S z & x x b V K p   ",
"  9 T w L D p : b v c b G G M M S V k a z Z V N H r S S a H / i | a : X + C S B B ! &   O p } T a E Z + y Z U Z Z F r Z v c a v u . > T A C V H k b V B x B i o x M V V J p   ",
"  w D ^ p a = F F z r b G b k M B z B S S B z B z B N N S F S V F , ; % , B A A B ~ = . # f } K v E Z & a Z H v Z Z y U B c B F u . & / N F N K S S G k z V z o G M G V J a   ",
"  O o.! p # F U c V l l M G x l V Z Z S Z B B x e H B k F S z H + : z B a a B N A ~ >   O p [ A B E F = a V F v Z Z e F B B V H p X @ ^ f B k Y H H V k i H F 4 G V V V J d   ",
"  > h B O } ~ r v U Z c G I m k H E R N k S S a S i V Z k F H , 1 i N z i B F a B ! &   o u ! f Z U Z - 8 B U v U Z 7 Z V B v S a X + { a B y Q G V l r i F H r x x B f F d   ",
". & f O D W L 7 Z Z Z G H b l b G ~ H a r B S i S N z S H K y o N F V z e N J i B R :   + f { B Z H Z - 8 v E v Y v - Z Z Z Z F p . ; W N S x ` V x V V B S C r x x N N J j   ",
"  & 0 C C F 7 F Z Z b G H k l E S F S a a B V N v Z i N E r % 4 V H V Z a e F f A / , X # B } C F F Z , e v U v F v - Z Z Z Z R u . , J N V Z Q V l V U H V B t z a N f J j   ",
".   D ! a B L v Z H Z Z b l Z ..B x z B V V V B S e V Q i o , H H V 4 N V a S z S ^ , . O h ^ p L Z F 7 8 c U a E Z e F Z c v F t . 3 C a k V H G l b U Z v B B z z f f J j   ",
"& S F a y C a e Z Z S a r Z U Z H S B k N S S N e E ` 1 : < S F G S B B x N N z N O.+ X + i ! C S H Z v 7 Z a c Z v 7 v Z c C R g . y h B B H Y c b b Y v Z B B i B 4 p [ w   ",
"R ! f y F F t % z v c r a H U a a z a a z z z e Z z i = k i N N V S V k z k a z a  .& X & t ^ B F Z B < - Z v B S c , v Z a v H s   p D z B b U b l z Y v F v s z S p B [ d   ",
"F C t r a 7 % % C a y t B R Z & i S H H H H G S Q i , r Q S B Z H G V x k a a z a ` , . = e  .C a v Z - 7 B b r U B e Z U a v R a . e L B v l Y b l k E F P v c r z u a T q   ",
"t a B S v 7 , a C r r a z z e & , r S S N N S F z : 1 N ~ r r F ) H V x k z z a z ! : . % r  .Z a c U , c F U y U Z r Z E z v U e   = L c m l Y m l y Y U U v s y z p h T p   ",
"r v l a V Z v s 1 & t F Z r e , a S H H V S K ` * 1 V H Q r k R ` G x k a k r r i H & X X i ! S z z V + < B F v Z v 8 B U a z Z 0 X # C v C c U m c y Y P P v s r y r B J u . ",
"k Z a 7 r Z c t & % z ` / S C U S H H S B V H _ % 1 N N K y a v ` H x x v b x k S H 1 1 & B R S B S H 7 y F F Z Z Z a B U c B C h 5 5 C Z Z m P M c c Y m Z v c z k r B F p @ ",
"y U E B v Z Z F y y F / R J ! R R ~ ^ E K ~ Q ` K E / R ..Q / ` ` ) H G V V S H U U V S B F R Z F U Q H Z E H E Z Y B Z E F U F C h B B n c m P b M M P y Z m v G H H E ! J A ",
": B R Y ~ U Z U ~ H F B a C F B a a x v B F F Z H V V r Z y B G Y Y H G G S H E R Z R K ~ C H z y y r 7 % r 7 b v E Z Z U U Y C a h C t a 5 m M m I Y U y Z P P z V G H F F R ",
": e z Z F B t e a F S B F F B F B v v s n C v a a v P Z n m Z G b a y y a B h B B R W F Z Z V b U H L G U Z Z Z F Z v Z Z H Z C v B F U E Z v y c v V Z Z Z B v x B 1 a r W ~ ",
"y A F S B a N N a N f N S A B S v a a s v n v c v P U P P P U G / E H H ! W ^ ^ ^ ^ ^ E U G m b V Z V Z Z Z V Z B v c v Z V v a v n Z Z Z Z V v r 8 a c v Z Z Z a a * , - C Z ",
": A / ! B a i e A a N F F C S A C B B C Z Z F C v Z P Z m m m b B c a y u a B C B h z v v v l l v v v V v B v v a c v B B B v c z c v c a y z v v v c v v V Z C - : % 1 7 Z R ",
"+ C / K e & X . t + % e , = , = 5 - = : 5 - - - 5 6 7 5 - < - * & & % + + & ; & # o + = < - - < * - - - - - - - , 7 8 r e 8 8 r y a a r r r a v a a a a y e 7 8 a B a x v C B ",
"% a K F F ! / ! ! a N K Z B B a s t t v v v s v n c c a l c c l l c B v B C B h h h B F H V b G Z Z H Z Z Z C Z Z Z F Z S V Z U z c v B C b v c Z Z U U U U Z Z C B C S Z B v ",
"y C S f y B B N H N B F C B f N 5 7 t s B v c Z c c y 8 l b m m 8 b V b z C B a h a v V V B b G U U E E U Z Z U H H Z Z v v B Z Z V Z Z U U Z B v Z Z Z F Z Z v z a z z Z Z E ",
"y z B B B B B z N C v a v a e r & & - a n s a v C v v b Z U Y G G E _ U H U F D a p t e y V Z Z Z H Y L Z F F P E ~ E Y H U U R F H F F F F F Z E Y U U U U Z U R C F B F v U "
};
