/* XPM */
static char *W41709484269[] = {
/* columns rows colors chars-per-pixel */
"81 87 246 2 ",
"   c #040000",
".  c #0B0300",
"X  c #0D0901",
"o  c #140100",
"O  c #1C0100",
"+  c #140C01",
"@  c #1A0D00",
"#  c #160F09",
"$  c #161204",
"%  c #1C1303",
"&  c #161309",
"*  c #1C150B",
"=  c #1D1A0C",
"-  c #1F1A06",
";  c #1E1A13",
":  c #1E1B19",
">  c #1C1613",
",  c #230200",
"<  c #230B00",
"1  c #2B0C00",
"2  c #290100",
"3  c #340A00",
"4  c #231403",
"5  c #2B1501",
"6  c #241A06",
"7  c #2C1B04",
"8  c #21160A",
"9  c #231C0C",
"0  c #2B1D0B",
"q  c #321301",
"w  c #3A1400",
"e  c #341C02",
"r  c #3B1C01",
"t  c #311E0A",
"y  c #3D1C09",
"u  c #241E12",
"i  c #2A1E12",
"p  c #221D1A",
"a  c #291F1D",
"s  c #1F201A",
"d  c #25210E",
"f  c #2C210D",
"g  c #2A2007",
"h  c #3B2406",
"j  c #33230E",
"k  c #3C250C",
"l  c #372608",
"z  c #252114",
"x  c #2B2314",
"c  c #2C2816",
"v  c #25231A",
"b  c #2C261B",
"n  c #2E291C",
"m  c #272914",
"M  c #332514",
"N  c #3A2712",
"B  c #332916",
"V  c #3B2B14",
"C  c #31271B",
"Z  c #332B1C",
"A  c #3B2D1B",
"S  c #3A2718",
"D  c #3D311D",
"F  c #37301B",
"G  c #2E301B",
"H  c #2B2621",
"J  c #2D2A22",
"K  c #272823",
"L  c #332D22",
"P  c #392E22",
"I  c #322E29",
"U  c #342B26",
"Y  c #363124",
"T  c #3C3223",
"R  c #35322B",
"E  c #3B342A",
"W  c #3A382A",
"Q  c #35332D",
"!  c #421600",
"~  c #471A00",
"^  c #432302",
"/  c #4C2403",
"(  c #43260B",
")  c #442B0D",
"_  c #4B290A",
"`  c #512B0A",
"'  c #58320E",
"]  c #432C14",
"[  c #4B2D13",
"{  c #422E1B",
"}  c #462B17",
"|  c #532C16",
" . c #443215",
".. c #4B3116",
"X. c #44331C",
"o. c #4B351D",
"O. c #4D391E",
"+. c #47391B",
"@. c #533314",
"#. c #5C3414",
"$. c #5B3917",
"%. c #53351C",
"&. c #533A1D",
"*. c #5B3B1D",
"=. c #5A361C",
"-. c #663A18",
";. c #433523",
":. c #4A3622",
">. c #443924",
",. c #4C3A23",
"<. c #433628",
"1. c #453B2B",
"2. c #4C3D2B",
"3. c #533C24",
"4. c #5B3E24",
"5. c #523E2A",
"6. c #593F29",
"7. c #513422",
"8. c #433C32",
"9. c #4A3F30",
"0. c #633E25",
"q. c #57401F",
"w. c #67421D",
"e. c #73441C",
"r. c #4E422C",
"t. c #4E4026",
"y. c #544026",
"u. c #5C4226",
"i. c #55422B",
"p. c #5B442C",
"a. c #5D492D",
"s. c #594826",
"d. c #4E4231",
"f. c #544532",
"g. c #5B4631",
"h. c #5D4933",
"j. c #554939",
"k. c #5C4D3B",
"l. c #554836",
"z. c #5E513E",
"x. c #624225",
"c. c #694625",
"v. c #62452B",
"b. c #69462B",
"n. c #64492D",
"m. c #6B4B2D",
"M. c #684923",
"N. c #724C2D",
"B. c #784926",
"V. c #74502E",
"C. c #614731",
"Z. c #634C34",
"A. c #6A4E33",
"S. c #634D39",
"D. c #6A4F3A",
"F. c #724C32",
"G. c #7A4831",
"H. c #655137",
"J. c #6C5135",
"K. c #65513A",
"L. c #6B533B",
"P. c #6D5A3B",
"I. c #6B5936",
"U. c #725235",
"Y. c #7C5432",
"T. c #73563A",
"R. c #74593D",
"E. c #7B5A3D",
"W. c #7B5738",
"Q. c #7B613E",
"!. c #5D5443",
"~. c #564940",
"^. c #645442",
"/. c #6A5641",
"(. c #6D5943",
"). c #6D5C4A",
"_. c #665945",
"`. c #745B42",
"'. c #7A5E43",
"]. c #725E4A",
"[. c #715742",
"{. c #766243",
"}. c #7B6145",
"|. c #74614C",
" X c #7C644B",
".X c #7D6A4A",
"XX c #7D6954",
"oX c #7A6653",
"OX c #6B6253",
"+X c #87532C",
"@X c #885A36",
"#X c #90582F",
"$X c #87623E",
"%X c #95643B",
"&X c #87481D",
"*X c #846344",
"=X c #82684D",
"-X c #896748",
";X c #966847",
":X c #846B54",
">X c #8B6C54",
",X c #946C55",
"<X c #8B735D",
"1X c #887257",
"2X c #9A7658",
"3X c #A7754C",
"4X c #A57959",
"5X c #B6784D",
"6X c #917863",
"7X c #A17B68",
"8X c #8A5F4E",
"9X c #A9815C",
"0X c #B4835C",
"qX c #BC875E",
"wX c #918160",
"eX c #A58465",
"rX c #B98A69",
"tX c #BA967C",
"yX c #B39274",
"uX c #C68758",
"iX c #DA8D59",
"pX c #C58D68",
"aX c #C7956A",
"sX c #C89977",
"dX c #D69B6D",
"fX c #E19B69",
"gX c #D7A57C",
"hX c #E7A778",
"jX c #F0A873",
"kX c #B5A28C",
"lX c #C19A89",
"zX c #CBA689",
"xX c #D8AA88",
"cX c #DEB796",
"vX c #D2AC92",
"bX c #E5AD85",
"nX c #E6B189",
"mX c #F9B789",
"MX c #F9BA91",
"NX c #E7BB96",
"BX c #DCBCA3",
"VX c #E6BEA9",
"CX c #FEC597",
"ZX c #FFC189",
"AX c #FFCAA3",
"SX c #EDC4AC",
/* pixels */
"Y K v m Y G n c n Y U Z J L H H v b J G J L n x Z Z z i x Z A C C H C u a K I K K : K K K R U P U M M A Z x C U x z z v J b K I p c Y n m b C b L C H b H H U S C ",
"K n n J n n n n n n b b L U H b J Y R Y J n J b Z n c z C L Z c P P U a b H K : J v J J I U a U S C C x c x x Z b b n L J J J Y z J L J n J L H b L U H b b a U x ",
"v v J G m v c n G m z z U E U p v J J n z v b m L b z c c x x i { } S i x M Z x c u Z Z C S 0 S A Z x i x b m z z z n J n z v n b C c c c L Z b u C E U a i x U C ",
"> v n n z z m c G n z z C U a u v b n v z z b n b i u b c i 9 i S S i 1 6 j M Z 0 4 j x M S 0 i L L z u z L L v * ; m J v ; = z b x z x b b b b u C U U a a b L L ",
"z v v m b m c c Z Z Z z C U C u b J J b v n L R c u x n Z c x c M S x d 0 x C Z d 8 c M M S 0 M Z L n z v Y Y b u x Z L n x v c Z x x x C c C c H L U C x C C U C ",
"J n n n L L G n c Z L Z H L U H L I I J n n L L L b n L L L Z L n Z L I Z Z c c Z m Z Z C L u n J H K b J Y Y n v c L Y G c Z L C c x c L L C c P U H H U H L L U ",
"J J b v n n n n x c Z Z C C C C J n m v v n b z z Z C C M c Z n H K J I J v b K n s J n H K v K H b K J J n b J b c C Z C x x M c x x Z C C M C Z C c C C H Z L E ",
"b K z z z z x c c c C x i x a i z z z v n Y n x u x x u 8 x i 8 K K K s s v b J s > z v z K s n v v v G n z z n Z c x x f f 0 x x 0 f M M x i x i x z x x i z z v ",
"& & * * * = 9 d 9 9 6 6 $ + % u u + 9 u c 8 c 9 0 % M - x 0 0 c J ; = z + M 4 0 8 4 M @ M 0 = = * & z = L = $ c u 4 0 c f 9 0 0 0 6 S % 0 . + + . + . + $ $ z = & ",
"J J n b b c Z F B B c x f 0 x Z c x L F 1.Z Z B P x M 0 ;.D T B 4 <.V 2.5 } } r [ r 1 ( ..7 j N i u c Z !.d.Z T x M D B M V A N <.X.d.0 x 4 x 0 9 x 8 d d z Z G x ",
"H H b p x x n F T Z c B M M M C A T 1.>.~.>.T 1.<.;.T A ;.A ,.:.I...^ x.b.B.@X3X4XdX0X0X%Xw.M.[  .E x x j.P Z T S ;.2.X.V ;.2.V 2.2.^.0 j 6 B x x M d x x x Y Y c ",
"a H L Z n n T <.D B B c M M x M Z 1.2.>.^.>.A :.;.,.{ X.X.] :.o.$./ @X+X5XbXmXfXhXmXhXdXhXbXgX+Xe B B 2.oXk.t.,.A ;.2.,.A ;.,.X.;.2.).0 0 0 j 6 6 d % - 9 8 Y F L ",
"p a U U b x Z T T F V V B f x N Z ;.,.>.K.X.N X.X. .N X.o.o.:...$.#.@XrXbXmXmXfXZXmXMXfXhXbXnX0X'.p. .{ Z.5.2.o. .D ,.i.:.V :.,.;.5.|.7 7 f f 6 6 d - 6 - - G E c ",
"# u H z 8 - 0 Z D F F F B M B A  .X.,.:.k.X.] o.N o.a.p.o.y.3.P.v.! , $X3X%X5XpXMXmXCXpX3X3X%Xc.1 < y.H.P.p.,.o.o. .i.k.5.{ >.i.,.2.|.6 4 f j f 0 c 9 9 d 6 G F x ",
"a H U b z d c D D G B B B V A X.2.X.,.,.h.O.o. .V ) Z.u.] n.%. Xp.:.3.v.F.;X4X4XpXaXpXsX,X4X-X@.n.r '.L.%.o.o.o.]  .i.H.i.X.,.i.5.:.).< < f f j g B 9 g 6 - Z G c ",
"U H z x x c F D T V j B D T ;.>.i. .o.:.p.o.,. .3.7 N l ] |.V r.OX1.kX7 O , 3 +X-.&X0.4Xw O o e kXO.P.3.] a.,.V j { f.a.:.+.t.,.,. .|.6 7 N 9 f 6 f 9 d 9 9 G E x ",
"Y c d d m V D D ;.g M 0 V r.D >.;.,.6.5.:.f.l.2.9.l.. 0 + U + X Q   j.i.O ~ +XbX3X$X2XcXeX&.o p.>.+ T . 4 d . f . f.>.i.t. .H.3.7.3.oX0 x B 6 x 6 j g B 6 9 G W z ",
"m c m m d f F D X.V V Z T 1.D D 3.o.,.i.5.,.2.2.9.8.. o $ b * X & = X 7 e ! %XpXaXaXaXcX-X .4 B % . * + m 8   . . f.2.g.y.] n.&.3.6.oX6 x c = x g f g g B 6 Y G J ",
"$ - m d % $ d N A A B D +.F D B g. .X.k.S.:.;.f.2.P @ . * * u +   n c - 4 7 M.9X%XhX;XnXJ.O.$ % $ 6   $ d * * o o d.r.f.i. .a.&.6.i.].6 x b 9 m j 6 g g T = G n J ",
"= m m m d d M F M X.N T T B D j i.X.{ Z.^.2.{ f.2.;.M % i 0 C 4 0 x r.j % l *.*X~ V.~ ,XJ.l $ Z V A o @ M 6 B 6 6 d.:.i.p.,.a.3.6.6.).6 x c z 9 d 6 g g r.9 W I L ",
"G m m c B B T T B ;.S ;.D N >.D ,.{ { 6.Z.,.V 2.:.f.:.2.A X.X.N B r.,.+.1 O 5.[.x.( 4.[.Z.. 0 X.:.V k 7 f.A >.f ;.f.;.,.i.3.a.&.3.6._.0 Z c m d g g l B t.- W Y R ",
"m d = d c F T D C D A D D F D D ,.5.:.5.k.3.] ,.o.i.6.|.5.i.5.3.N h.a.N ( 2 2 [./.t K.<X7 5 ..1 y...6.N (.h.g.;.g.H.,.,.p.3.3.o.o.6./.0 Z x c d d j t.D t.- Y I J ",
"m m b c Z Z T T M M D V V D B X.i.i.3.5.K.3.N 6.o.3.3. Xn.p.y.u.a.O.[ | 8X8X| o.o . + ^.7 <X>X%.4.*.&...T.H.L.a.Z.H.i.y.p.3.3.y.o.a.^.0 Z x c d f D t.D G d F n K ",
"$ = m c d 8 z B Z x >.F D >.B +.2.i.,.i.K.o.N n.6.o.o.'.n.4.u.q.$.-./ 4XzXlXlX7.O o . t 2XBXVX4X_ $._ *.J.J.A.o.p.k.p.p.h.3.4.n.3.Z.^.0 c u n d g D F D B G E m b ",
"d x m m b n n c C C A S >.t.F +.i.5.,.6.K.o.3.3.&.%.&.x.R.Q.x.-.e.#Xe.-.*XT. .1 7XlX6X| 2 ,XN.w.m.W.@.$.F.b.Z.o.Z.Z.p.C.7.p.3.n.6.C._.M 9 x = f g F +.F D f W J p ",
"G G Y U Y Y E E L C Z V +.+.N  .i.3.,.,.K.o.6.4.&.&.u.x.T.}.U.Y.mX5X%XB.M.h &.:XVXSXvX7X@X` / c.$X9XSX>XE.R.v.7.L.H.a.D.p.n.u.Z.3.p./.0 u Z x m g F +.D T z Y J K ",
"b b c b Z L L L C Z T Z D +.l +.i.2.,.3.S.O.p.u.%.4.m.v.T.-X=X;XqX5X+X%X~ | [ U.0.F.G.! -./ -.B.$X;XNX*Xb.T.v.n.C.C.p.L.p.n.6.A.3.a.(.0 x Y z d d j +.>.t.m Y J v ",
"c c L L J H J I b Z T D +.t.V +.p.6.3.3.L.o.6.u.3.u.A.n.T.*XR.E.w.e.e.e.sXvX4X_ 0., v.W.4XcXsX8X$.N.b.U.v.u.4.D.a.3.3.A.p.4.&.n.3.Z.].i 0 L z d d j D r.d.f L G H ",
"8 z P L b p v H H C T A >.,. .t.Z.p.3.i.L.%.y.y.a.6.x.u.L.'.m.m.^ M.' Y.rXlX+X=.=.P.q.o >XcX;X-.q m.r x.'.'.D.C.g.6.3.L.v.0.3.C.4.Z.|.x d Z m f g g D s.l.x n I J ",
"* i H J p ; p H L L T B +.O.)  .Z.k.3.i.L.o.6.3.n.&.3.y.R.}.L.}.yX-X-.w rX8X0./ 1 o < l -X0.-X' N.vXzX*XT.p.Z.[.C.v.6.T.v.x.=.v.y.Z.].M x Z x G d j >.d.l.f Z G H ",
"x Z U U J H J I I H Z S W t.V  .H.a.3.6.L.o.6.p.p.3.i.a.L.h.6.[.wX=X@.[ o.6.=.0.7XlX>X0.6.1 P.e E.A.} < ] L./.6.C.C.u.D.4.x.=.4.Z.C.^.M c Z x c d l t.t.d.m Y J J ",
"C b c b b H H J L b Z Z t.s. .+.n.p.3.3.Z.o.3.p.Z.p.L.H.3.e < ( $X-.' c.r 3 [ [.<XzX,X0.[ | M.` N.! O r O , ..C.C.D.Z.D.6.v.3.4.[.Z.H.M Z L 9 m m G >.r.d.x Y J n ",
"b m L U n n J L b c x Z A k.X.] L.y.i.p.H.,.O.y.3.o.}.) 1 7X| ' &XuXjXiX%XqX_ q.5.q ,.7.~ xX3XuXbXpX&X! / >Xe ..L.`.6.7.C.X.3.p.'.a.[.M L L U Z M <.r.1.f.8 8.L z ",
"8 0 b b z = ; b x c B A A l.,.o.L.3.y.i.H.y.y.u...=XL.[ 3 4.yXrXjXZXjXfXhXgXY.&.^.+ ).] +X#XjXiXmXAXMX;XzX$XO 5 A.`.D.4.D.3.i.3.'.u.(.j Z C L x M 2.2.;.;.i E b n ",
"= z c n v ; p n z C Z T A f.;.:.(.3.,.y.L.i.y.i.y.A.A.q O O >XsXMXCXjXdXuXw.q.W.. o . 3.U.B.#XjXmXAXnXzXsXh o k C.`.L.4.A.3.a.3.[.a.L.j C x H a L f.;.<.M C E v 9 ",
"z c n J n z m Z L Z A T A i.{  .L.y.y.y.H.y.y.y.H.o.'.( , O 0.sXnXAXCXpXqX;XM.m.N o O :XF.G.5XfXhXAXbXsXc., @ h n.'.D.7.a.3.C.p.R.n.(.0 A b b C <.f.V Z C a W b c ",
"L c z b n v n J U Z Z T A f.{ { K.3.i.a.H.o.,.y...p.k [ 3 , >XlXxXrX4XxXCXrXU.R.V . N p.F.2XnXsXsXsXsXsX,Xe h h 3.E.A.%.v.4.Z.n.H.v.[.0 P C z L <.;.S M <.* W L u ",
"Z c b b b b n J Y B Z ;.<.f.X.:.H.,.6.6.H.O.3.i.y.{.5 ..) =.eX`.*.7XG.#.h V.9Xu.( < k D.'.E.#.-.@X+X-.*X2XJ.h $.( v.b.=.C.4.n.x.n.n./.0 P C a L <.Z M M 2.$ E L Z ",
"x x H L b v v L L B B >.<.i.{ ,.[.5.,.3.k.3.t.y.3.a.h e e 4.u.3 ..C.@.1 O r $X@.w o e u.4.w 3 , 0.0.| w e Q.l g [ x.v.*.c...3.u.u.C./.0 T b 8 C P P S S 2.u E L 0 ",
"* u Z Z z * u m L Z E 1.{ 2.{ 3.XXi.o.o.H.y.y.O.X.h.3.&.h r C.C.C.) >XT.c.$.-.^ N.4X-.~ @.0.=.E.,X! G.0.s...k &.x.U.N.4.b.[ &.v.x.v./.0 <.x > b C ,.V T A x P z m ",
"b x b b n J L Y H Z T ;.9.g.:.5.L.6.6.f.D.{ K.X.t.a.p.a.%.6.o...7.u.%.b.b./ ~ $XnXxXxX9X$.1 *.u.c.[ M.q.l l I.I.Z.U.*.U.F.%.n.v.m.L.XX0 <.u a x P ;.S A ;.8 E L Z ",
"Z n Z c b b n n c C T T 2.i.;.5. X6.C.5.(.,.K.3.>.s.3.i...6.%.%.>X%.*Xn.w 3 ;X3XsXnXaX9X-X$.( u.'.&.}.h V a.P.P.A.R.0.F.T.4.A.v.v.Z. X0 T u b x P P S A T - E Z Z ",
"n Z L L n b v J c c T A 1.2.;.3.:X7.S.:.].3.k.p.,.i.y.i.O.p.3.&.*.T.J.u., m.rXsX0X;X3XaXrX-X5 ] A.T.s.h I.+.Q.q.n.T.c.A.b.3.n.3.n.n.:X0 T a x x P V M A ;.% L Y f ",
"u c Z J v v b n c Z L A 2.5.;.3.oX{ S.7.].:.i.i.i.g.y.a.O.3.o.%.[ V.4.}.o A.v.-.sX$XgX%X' T.< :X4.'. .q.wX ..XI.m.T.v.b.x.6.a.,.Z.a.<Xj P x H Z P A M P <.% U L B ",
"* 0 b z v z v m c Z L B <.5.;.7.[.} S.:.(.o.:.g.r.g.t.a.,.3.....e $.O.3.O.k , r ` Y./ w ^ e i.V 7.6.e e P.s.s.I.A.R.F.b.C.C.h.3.L.u.<Xf C z b L P A S A <.* E T Z ",
"z b b b v x z J b C Z M <.2.{ ;.^.5.C.5.L.>.>.g.:.t.,.g.O.,.} .._ eX}.5 _.S o 7.T.q Y.b.O < z.f :X>Xl h I.I..XI.A.F.D.C.p.g.f.5.R.3.<X0 i i x Z P ;.C A <.8 E L x ",
"n Z L Z n J L J b Z L M ;.5.{ 7.^.0.5.6.K.,.,.g.t.t.o.i.+.3.o.3.^ Q.P. .x ~.^.^.e q ( x..Xk.x 1.].=Xh ) I.t.1Xu.x.x.C.0.6.6.5.5.L.%.<X0 8 a z L Z T V S P 0 W L B ",
"L m z b b b n n b Z A M ;.f.{ 7.^.[.{ 6.S.y.r.g.i.i.o.i.o.3.o.u...q. .D 8 i p <.].L.m.C.0 A T f 3.l s.q.{.q.Q.}.v.u.b.6.C.f.5.f.D.o.<X0 0 C Z Z M <.S C A u 8.b c ",
"* U U E v * J J Y Z B 1.X.i.V O.K.C.3.g.D.o.Z.i.3.6.i.3.p.o.u.3.b.y.o.S A i a f._.<XL.].V l.C E X.] i. .`.u.T.I.A.@.v.Z.6.6.i.C.] a.].N 0 M f x f T ;.x M 8 E A Z ",
"* b z c z * z z x n T >.B X.V y.L.Z.3.a.L.o.Z.n.a.p.p.p.3.,.3.p.m.E.`.g.1.P x 1.E f.,.5.S !.P 9.5.X.n.o.}.u.T.J.m.4.J.u.6.u.p.3.o.p.].j 0 t 9 B B B B x C i T M B ",
"Z U b U J n J b x c T >.V +.V p.L.Z.p.C.L.3.L.Z.C.p.a.C.o.6.} C.&.Q.<XZ.P A i Z 0 5 j 5 t !.L 9.i.,.H.O..Xa.T.n.J.x.T.u.C.p.C.3.,.i.(.j t f 7 V B c c f Z c E M M ",
"L U z C Y n Y b n c M T F y.X.y.S.Z.6.C.L.7.L.Z.Z.7.Z.Z.&.p.] A.*.R.<Xk.S C c <.0 4 { < t 9.C 9.i.o.H.,.=Xv.P.J.J.4.J.v.D.6.6.C.3.p.(.N t 0 6 B Z B c f Z i <.M M ",
"b L x L J z L n L x B D D y.X.y.a.a.3.u.Z.o.L.Z.A. .L.i.n.3.{ A.x.b.:Xp.0 i 8 <.S N S.M M ;.x l.l.,.H.O.=Xn.T.m.A.A.R.u.Z.C.g.6.6.i./.N j f 6 F c B Z c L 9 P C V ",
"z U L U n p J L z c F >.j X.V i.p.C.6.p.L.3.[.Z.C.o.A.6.Z.3.3.n.b.q. Xp.0 4 o M C X.L.{ t V i f.k.,.H.O.=Xn.R.A.b.}.}.&.4.[.C.7.3.f./.j f j g Z c F F Z L 8 L A Z ",
"* z a c u & p u b c D T j  .V y.3.Z.u.C.L.3.`.L.C.p.y.3.6.3.6.u.R.n.<XK.M M @ Z M ,.Z.,.j M i 1.g.,.k.o..XA.'.I.A.-XJ.v.7.[.3.u.3.g.(.j 0 N f B Z G F Z P 0 U Z Z ",
"u b b L b u m b Y Z B D F t.V O.3.i.p.p.L.3.L.Z.Z.L.o.p.o.6.p.4.N.c.<XZ.0 S 8 A { g.g.g.A S i <.r. .p. . XZ.}.T.'.T.6.T.n.Z.} /.7.h.).f f V f c Z c Z Z E i E L H ",
"U Z b z n n L J z T x r.N t.V  .Z.p.3.o.R.3.L.Z.a.6.6.o.o.3.o.u.b.U.`.h.0 A B t X.6.Z.i.V 0 C 2.i.t.,.O.=Xn.P.m.m.v.u.J.A.3.6.i.h.^.oXM 0 0 x f x Z T E E u L x z ",
"Z L U L J n J L L Z T F D V o.p.3.6.3.} Z.{ 3.n.p.p.p.o.%.3.o.u.A.V.'.Z.t Z M C S ,.i.6.] j S <.i.p.o.O.`.J.P.R.m.A.u.n.C.3.6.g.6.j.|.i t i B x z c Z L E u P L R ",
"u z U L b z v m z x Z A N g V a.N p.o.o.A.o.3.L.C.p.p.%.%.6.,.v.E.m.H.Z.N ;.S S ;.3.h.g.,.{ { 1.r.i. .y.P.J.J.R.m.A.v.v.6.3.p.i.5.5._.0 M B Z x d z m J E i E J K ",
"* p J b z = ; z Z E A z.D +.V a.3.`.u.p.L.o.] C.n.p.a.o.,.3.7.u.W.V.m.Z.V l.;.A ,.y.Z.Z.h.9.9.f.o.,.o.i.{.v.m.T.v.T.n.v.6.4.C.5.6.2.].i C B B z m x b b E u U b K ",
"x c H C v v v n Z T G z.>.,.N y.o.L.3.3.L.3...L.g.C.C.&.3.6.3.x.c.U.T.L.M K.9.:.X.o.6.g.S.f.f.f.i.,.i.&.>X&.n.J.x.T.A.n.C.6.C.7.2.2.|.S V c c x m b b b E u L b b ",
"C H C H b n n n n x Z D X.V N  .] u.o.7.[.p.a.[.C.Z.Z.3.3.C.3.v.( U.*X`.7 f.9.f.,.,.3.p.i.5.2.;.K.r.a.+.1X..J.J.v.U.A.Z.C.6.p.,.:.2.).M c f x x c b m b L p E L U ",
"b b b H b b n n Z Z T >.,.+.+.o.3.a.n.y.[.o.3.a.a.Z.Z.3.3.a.3.v.` N.E.`.7 l.5.l.i.p.3.6.3.:.;.T K.3.i.O.>X..n.J.v.U.C.A.0.3.6.:.f.,.^.0 x f x x n n J b L = P U z ",
"b Z L L J b n n u Y B d.F i.F O.j { 6.3.[.o.k.C.p.C.C.o.3.u.&.y.*.v.4./.t S.2.5.,.,.o.7.5.,.>.,.r.X.X.y.:X3.n.J.Z.A.u.C.g.%.3.,.K.f.^.6 x f x x G Y L b b * L L C ",
"+ = c m u + ; C i E L Z >.r.t.F g V i.f.6.{ S.i.Z.S.p.X.3.6.,.o.3.u.L.H.k 3.i.2. .X.o.o. .A ;.,.;.2.5.,.<Xo.g.n.H.n.p.L.3.k.5.:.K.k.^.6 M f Z c Z - c Z x 8 1.Z S ",
"d m c n z z z L b c P c >.>.t.B F  .i.k.k.2.S.i.p.k.3.o.3.i.3.3.&.&.K.Z.k 3.p.3.:.:.,.,.:.X.:.5.f.2.2.;.XX5.i.Z.Z.a.3.K.p.h.5.5.2.f.^.6 M 0 V Z F d B Z c 8 <.C j ",
"Z m d x Z J b H L i Z Z T >.t.j ;.] ,.f.S.,.C.g.i.h.3.o.3.i.3.a.o.o.a.a.j y.p.3.y.:.>.o.:.X.;.,.2.;.:.A ].S.i.A.C.Z.6.a.a.C.6.i.S 5.).6 f 0 Z Z T c L F M 8 <.M V ",
"Z m x m b Z C b Z x L 1.G T W j { M V i.S.,.f.6.p.Z.3.,.7.p.6.a.%.o.3.a.e i.i.y.y.o.X.+.;.X. .;.;.A 2.{ (.L.o.p.A.A.p.p.C.i.,.f.V f.).0 0 g G f T B T Y Z 9 T M 7 ",
"m c n Z L u z L H c P !.B T D F { V V 5./.,.i.i.i.Z.:.3.&.C.3.C.3.&.3.a.7 p.3.3.y.:.o.o.X.X. .X.;.;.2.;./.h.] 3.Z.A.6.3.S.6.,.f.;.k.).4 x f B 9 G B T c Z 0 <.S X.",
"= z n n x u u b b C E !.F D B >.{ ;.X.5./.,.5.5.3.p.] 3.o.Z.3.C.p.%.o.n.e p.,.o.,.+.X. . .{ A ] ;.A ;. .(.i.%.Z.u.6.3.7.g.5.5.5.<.f._.4 x 0 c 0 f n Z c L x E S B ",
"u z z b z u u b c c E d.1.c Z 1.S ,.,.2.S.;.3.2.i.g.V p.3.K.3.i.a.3. .Z.7 n.o.o.o. . .X.X.V N V { S S A XX3.p.Z.u.,.3.%.i.7.g.,.{ 2.!.0 Z g c z u Z Z z Z x P C f ",
"n z u v L b n Z Z 9 W F l.8 B 1.M ,.2.2.^.:.5.5.k.S.{ a.6.L.3.y.a.O. .H.7 a.o. .o.X.;.>.:.{ A A ;.Z S ;.<X{ ,.o.p.o.i.,.6.:.6.{ P 2.^.M F d x x 8 c c 8 Z u Z C x ",
"J L L n b b Z b u C Z E E A Z <.C X.<.f.k.2.>.S 3.5.2.:.i.S.S.3.p.X.X.h.7 i.k.X.{ ;.:.;.X.;.D M ;.C S ;.).<.] 5.D.3.3.:.:.5.:.2.2.<.).8 g 0 = 9 m z z 0 i b L U Z ",
"v J J n c b Z L x c Z Z 1.T P <.M A P f.l.2.9.,.2.r.5.2.g.k.k.,.i.6.3.k.0 i.i.;.,.2.>.D P ;.;.A T P P ;.).5.{ 5.l.,.,.;.<.,.{ <.<.;.).i x 9 m c b b z u u i b L J ",
"b J J n z b n Z c B x Z <.T L ;.L <.U 2.2.T <.;.<.1.2.:.2.f.2.;.;.2.;.5.0 ;.D X.<.>.;.D S D T T L P P L l.;.A ;.f.,.2.2.,.9.;.;.;.C l.x Z Z m Y m n J m z z Z U L ",
"H H J v z b Z Z Z Z x x C U C L C L L P P c L C Z A Z C C A A M 0 D C A f A x Z x Z T L L c n Z z U L x U C M j M 0 C M C C i x P 0 P x W T n m J n L L n n Z U Y ",
"J J H v b U L Z Z Z C x H C a C u b b L L b Y Z b C C a i M x C x A M C Z Z x Z u x L L J c n L H R L H z L x M A i P A L P C E S i C M T Y n c m n b n J L C C L ",
"J I H b L T L c x Z c x U C C U v L L L J b L J L Z C b b C C C Z L x x C n i b c z n n n n L R K I K J v U L C i 8 x x u b u L i C T P Z x n F v b m n L b H Z c ",
"H H U J b c n c f Z x u C L C H H Q I J b v J z H b H b U H b z L Z n z z z b m m v b J J J J I K K v K u L J H x p P L H L H E i U S Z x x n n v n G L z b H Z M ",
": H J H u 9 u x c n z 9 C L a 8 p J K K p p L H u u i z C x u u L c n b u u n L p z v J I m s s R K : K * J c b u 8 H b i v > z C C 9 u x Z n s z n R n u 8 a Z M ",
"= c c c c u z b U n u z L c c * x L v J 9 b b Z z u 8 x U i i u i E z u 8 z F b x $ n c n Y X n L n p = b n c L * u b c L * z u C x u z n b E p z b L c u u z Z B ",
"f Z c c Z c n n E U z C L Z Z m c P c Y z Y Z L C C C L U M C C c Y b c b x L c c d n x Z L 9 L L U c z n L L L x b L b Y p P b U H a H L Z E b Z n U Z c m x Z Z ",
"1.Y Z Z E 1.E Y Y E E E U Y E W Y R L E n W E Y E E E <.E U E 1.U E L E 1.Z Y F Y 1.Y G Y U E U L E E E R E U E E P E L E L 8.E P R L 8.U R W L 8.U U Y E 8.Y Y E ",
"c X .   X + .     . & . .   . &       .   &       . @ . . . . * . .   X z . .   . c   . .   ;       . +   .     & .   . .   *   . .   * .   .   * . . . . u . .   ",
"Y X     . > .       > .       >           s       . * .   . . ; .     X L .     . Y         a         ;   .     >           ;     .   :         ; .     . Y       ",
"E         > .       ; .       >           s         >     .   ;         R         R         v         p   .     :           :     .   :         ;         R       ",
"R   .     : .       : .   X   :     X     s         : .   .   p         Q .       L         p   .     v   .     p           p     .   p         ;         W       "
};
