/* XPM */
static char *W31709484269[] = {
/* columns rows colors chars-per-pixel */
"87 87 166 2 ",
"   c #0B0800",
".  c #120E02",
"X  c #1B0D00",
"o  c #131001",
"O  c #1E1405",
"+  c #1E1906",
"@  c #17140B",
"#  c #1C160A",
"$  c #1D190C",
"%  c #1E1C11",
"&  c #241502",
"*  c #2B1600",
"=  c #241B05",
"-  c #2C1B03",
";  c #241D0C",
":  c #2A1E0B",
">  c #311700",
",  c #331D03",
"<  c #391E05",
"1  c #311E09",
"2  c #381F09",
"3  c #241E12",
"4  c #2A1F11",
"5  c #272105",
"6  c #2A2106",
"7  c #26210C",
"8  c #2A220D",
"9  c #2F290F",
"0  c #352006",
"q  c #3A2206",
"w  c #33220C",
"e  c #3A240C",
"r  c #37290E",
"t  c #3B290E",
"y  c #262113",
"u  c #2C2413",
"i  c #2F2815",
"p  c #25241A",
"a  c #2C261A",
"s  c #2E291C",
"d  c #332513",
"f  c #392712",
"g  c #342916",
"h  c #3B2B14",
"j  c #332719",
"k  c #342B1B",
"l  c #3B2D1B",
"z  c #3B3017",
"x  c #37301D",
"c  c #3C311D",
"v  c #342E22",
"b  c #3C2E22",
"n  c #363022",
"m  c #3D3322",
"M  c #3B3529",
"N  c #3C392D",
"B  c #3E3C32",
"V  c #42290E",
"C  c #422712",
"Z  c #422D15",
"A  c #422F19",
"S  c #443017",
"D  c #4A3217",
"F  c #44331C",
"G  c #4B351D",
"H  c #44391F",
"J  c #4D391E",
"K  c #513317",
"L  c #51361C",
"P  c #52391E",
"I  c #583A1E",
"U  c #443522",
"Y  c #4A3621",
"T  c #453925",
"R  c #4D3A23",
"E  c #413529",
"W  c #443C2A",
"Q  c #4C3D2A",
"!  c #513721",
"~  c #533D24",
"^  c #593E24",
"/  c #523E29",
"(  c #593F29",
")  c #413F33",
"_  c #483F30",
"`  c #4A4027",
"'  c #47402D",
"]  c #4C412C",
"[  c #554126",
"{  c #5A4126",
"}  c #55422B",
"|  c #5B442B",
" . c #52482F",
".. c #5D492E",
"X. c #434135",
"o. c #4C4332",
"O. c #4F4836",
"+. c #45433A",
"@. c #4A463B",
"#. c #4C493E",
"$. c #554532",
"%. c #5A4632",
"&. c #544935",
"*. c #5D4A33",
"=. c #594739",
"-. c #554A39",
";. c #5C4D3A",
":. c #5F5137",
">. c #5E513D",
",. c #604027",
"<. c #62462C",
"1. c #63492E",
"2. c #694B2E",
"3. c #614731",
"4. c #634C33",
"5. c #694E34",
"6. c #624E3A",
"7. c #694F38",
"8. c #645036",
"9. c #6B5136",
"0. c #64523B",
"q. c #6C543B",
"w. c #6D593E",
"e. c #705236",
"r. c #71563B",
"t. c #72593D",
"y. c #785B3D",
"u. c #4A4A40",
"i. c #5A4E40",
"p. c #535145",
"a. c #5E5240",
"s. c #5E574B",
"d. c #645442",
"f. c #6B5641",
"g. c #665943",
"h. c #6C5A43",
"j. c #6D5D4A",
"k. c #725740",
"l. c #735C43",
"z. c #795E44",
"x. c #705F4B",
"c. c #795F48",
"v. c #6F614C",
"b. c #746146",
"n. c #7B6146",
"m. c #74634B",
"M. c #7B644B",
"N. c #6E6351",
"B. c #726552",
"V. c #796654",
"C. c #766A54",
"Z. c #7B6A54",
"A. c #766A59",
"S. c #7C6D5B",
"D. c #7D715C",
"F. c #81664C",
"G. c #83694E",
"H. c #816750",
"J. c #846C53",
"K. c #896E52",
"L. c #867156",
"P. c #82715C",
"I. c #8C745A",
"U. c #88785E",
"Y. c #817261",
"T. c #857864",
/* pixels */
"B.A.d.D.N.T.j.g.m.D.l.v.h.C.h.Z.Z.M.S.w.m.h.m.h.A.j.C.m.j.;.j.j.j.s.d.j.f.f.M.6.x.x.f.A.u.E B B B B +.u.+.X.B p.s.s.d.i.h.f.%.x.Z.L.h.m.m.b.J.m.g.m.D.0.m.Z.Z.h.M.J.m.L.l.m.h.",
";.a.O.a.;.g.=.$.>.0.&.&.:.8.*.0.w.w.b.&.0.} %.} d.:.>.*.Q Q $.$.O.Q Q $./ ( 7.! %./ / O.v 3 % 3 3 @ p p p p % v +.N E j $.;.%.7.~ *...4...} h.m.} 0.:.R &. .*.R q.h.9.h.*.*.[ ",
"Q W Q U Q Q Q H R U F F R H G R R R } G F f h e h c l h d l m U l k w d f A ! 1 A 2 l j 3 3 @ @ 3 @ % % % p $ a n u j X b F A C } | R R R F R H F %.H A ` S } G R } ~ ~ A F t ",
"/ } Q T Q } } R *.R G ..[ } ~ } [ [ } R R U H F l Y U T T $.} $.=.i./ $.3.q.f.! 6./ d.O._ _ @.) u.B ) +.X.@.) #.#.W i.Q 6.$.( ( | [ R R } } [ R Y *.Y R $.R *.| [ } ^ ~ ~ ^ G ",
"j.m.;.h.*.Z.q.6.0.w.| l.7.t.4.h.q.0.*.8.*.;.:.*.*.f.d.:.d.d.=.*.$.d.=.$.d.q.k.%.3.%.;.$.M M v s v s N N M N M X.@.v _ / a.%.( *.4.0.b.h.6.4.d.k.0.m.*.8.6.&.4.&.9.0.6.*.4.0.4.",
"Y $.A R t *.G Z f J e C Z D q L S Z w h f h w h h l F f Q u : 1 ; l d h F A G D e F f E O   @   . . 7 $ # % @ y v . & d l U A A F F R R A Y f E S R Z Z Z ~ Z h G Z C e S e r ",
"Z } ~ } D | ~ Y L 9.3.V 5.^ ~ 5.~ } [ &.Y Y H } Y U } l h.l l U d T U U ~ Z D / A 0.U B.j 3 p p 3 + y ; 7 p ; y b k b Q d %./ ~ F h U Y %.0.( ( G R } R { M.~ ~ *.J [ ^ *.D R ",
"f ~ 4./ ~ / | ^ G q.r.> z.L | 5.G } } 8.G U F ..Q A ] d j.4 h U l Q Y / ~ e Z ( D x.Y Y.v @ p y s ; 8 + 7 u ; y O b O.*.& %.| %.Y G ;.} / } E ( ~ ~ 3.~ | I.~ } | F ~ } 4.F G ",
"/ %.( / ! ( C 3.~ r.r.< 5.( 9.^ R } F 8.l | d &.Y U U U ;.l $.l : $.= } G 0 J S { G R D.s $ 3 y 7 5 9 + s ; 7 u 4 ; ; >.& 0.H R / E =./ ( Y ! A F 3.! k.~ F.,.3.| ~ ~ G ..R } ",
"G ~ ( ( ! 3.G ( | r.r.< 7.,.9.( ~ | F *.F } h *.] } Q Y d.A $.l l $.h } | t ~ D [ H R D.k $ 3 y 8 6 8 + i ; 7 ; i k c 0.1 0.R G / Y ( / ( Q ( / ! 6.3.l.( J.3.r.( ~ | G } G [ ",
"A Y ( =.Q 3.( ( | 7.9.2 r.^ 5.( | | H } U R H :.} } Q Q d.l Q f c R U R ..J J D ~ G ] D.k y y 7 ; 6 9 & 8 8 i 7 8 g T -.w 9.} H =.E Q _ ( / ( 7.( ( 4.r.L H.,.z.( } | G } G R ",
"Y ! 3.4.! %.( ! | 3.7.2 q.^ %.,.| | F | } R R 0.} $.Q T j.f U d m x R F ..J D D ~ H } D.x y y y = : 5 = 5 h m x ; 8 l ] : &.} R ( E ! / i.Q / =.( ! 4.3.L H.^ k.~ | | A | ~ / ",
"Y Y =.3./ / 3.A %.%.f.2 k.3.| 3.[ } h | %.R R 4.Q $.Q Q x.l T j U h H h ..[ L J [ J [ C.g y p 8 - - 6 6 : x ] ` g = d ` - } } *./ / E =.i.( Q ( | G 3.2.,.K.,.e.~ | ~ f %.| } ",
"Y Q ( =.=./ 6.( ( ( k., f.3.( ( / } 0 &. .R R &.U / U U x.l U A c z F S [ ~ D J { `  .C.g 7 p u 6 6 w z 5 x ` ] x 5 : ] - } R $.E _ Q ( f.d./ 3.3.! ,.3.,.F.,.5.I | ~ q ..| } ",
"/ _ _ ( d.Y 6.d./ / k.- f.6.( Q %.4.- :./ R Y &.U } F c j.j l l c H z R [ [ D G { [  .D.s y u 7 6 - r ` 8 z ` ] x 9 : %.* &.F H E ( E Q =.f./ 3.3.^ ( 3.,.k.<.5.~ 0.^ , *...~ ",
"/ / Y _ i.A ( d./ ( x.> 7.k.( ! 9.h.1 q.~ } R *./ *.R H x.d f j F &.H *.| { J P [ } ..D.x 7 y + 6 = r :.r x T O.g k u 0.- w.H Z Q d.! Y ! 6.Y ( 3.3.( 3.,.e.2.e.~ t.*.t ..| ~ ",
"( / / ^ ~ R ~ ^ | | 9., q.9.9.G | 6.A q.| ! ,.( ~ ~ | ~ h.F Q F l Q $.%.( G D ! [ } } P.x 5 9 + 5 5 r ` b i _ E d d j / 1 6.~ G R } | R G ~ } | G | 3.| ! k.4.3.[ ....t w.{ [ ",
"( ( ~ Y R ~ ~ R [ { 9., 9.4.2.D 1.0.D 5.| ~ ,.( ,.| %.Y 0.F Q U Q Q U Q ( ~ G ! | |  .P.x 7 i 7 5 6 9 ' l k W M b b A =.1 f.| } S } ..R J } | R L | | ( ^ c.7.3.I ..8.D w.I [ ",
"i.=./ G R | [ P { { 9., r.4.2.D 7.q.G 3.| { 1.,.1.<.| G 6.A Q F R Y U R %.( ! ! | | } P.x 7 s 7 5 9 5  .k M E v b b b i.= :.} ..J | *.R G ~ ~ D ~ ( ~ ( ( F.7.3.[ ..9.D 8.[ [ ",
"( ( / Y ^ ....[ { { 5., 9.9.5.~ 9.0.~ %.2.{ 9.<.{ | | J f.A Y l b Q / ( | ! G ( ( } ` D.z + i 5 5 7 5 O.k W U u j b A / = ..[ [ ....[ G G ~ } | ( | ( ( ( c.7.2...8.8.P 8.[ ..",
"R [ [ ~ ~ | | | ..{ 8., 9.4.9.<.3.%.( | 4.| 5.<.| { | R f.A Q j U } $.%.%.! L | / | } S.g ; s 7 + 5 + O.x O.E 4 j k U 0., *.[ J *.~ J ~ ~ ~ 3.l.| <.| | ^ l.4.4.1...<.I 2.....",
"R R [ [ / | ..4.<.| 9., 9.2.9.| | | | | 1.{ <.^ 5.<.| G f.Y / U } $.} ~ ( ^ ! 3.( | } D.l 7 x 7 5 5 5  .T O.W 8 4 j U 0.0 :.P ` *.[ R ..| } | 0.3.3.| | ^ k.3.4.1...{ [ <...<.",
"../ ~ [ | | ..8...{ 9.q t.2.9.| | ( 4.( <.~ { ^ q.3.| Y f.U / U Q  .} / / ~ ( 5./ } } D.c y s 7 5 + 7 ' W ' O.u 4 d l ;.- *.` [ ....| } | } } ^ 8.3.| { ( c.4.5.9...<.{ { ..{ ",
"0.~ G R | [ | 8.{ { q.t z.9.r.4.3.| q.| <.I { ^ 5.3.3.~ f.G Q f l  .4.*./ D ~ q.~ / / Y.c 7 s 7 5 5 9 n W ' -.x j j h %.- :.[ [ G | } G ~ *.4.} 9.%.~ ( ( c.7.4.e.2.2.8.{ I { ",
"F 0.| 0.J h.[ J 1.| 2., 9.t.2.4.| 3.M.| <.{ L { ( q.~ | 6.Y d.f G } ` | ..P ^ } ! d.=.Y.E ; s ; $ u 5 x o.T v.g d w F $.1 / ~ / J [ m.[ 8.R | G ^ ^ 3.( ( F.1.( e.{ I n.{ 9.{ ",
"[ 4.| 8.[ q.{ [ | | 9.q r.t.9.w.| 3.M.| <.( I { ( 9.^ [ 6.U d.A R  .[ [ { G G ~ ! ( ( Y.E u n a 5 5 9 W O.N >.x : j R $.- =.} R ~ R | G 7.1.8.} / | 3.( ( H.5.5.w.2.1.K.<.8.<.",
"*.| } ....3.{ ..{ | 9.q 9.t.9.l.4.0.M.| <.~ I ^ [ q.| } 4.A a.F H  .[ [ { L ( ( ! / / Y.E k v s 7 7 c ' -.'  .m : l R $.* &.} R G R } } } } 3.4.| | 3.^ ! H.7.7.2...{ n.I <.J ",
"&.} | [ | [ ....| { 9.0 8.9.<.9.9.l.c.| 2.~ ~ ^ <.9.3.~ 6.A ;.U S  .J [ { ~ | | ( / Q S.E 4 a y y $ ' ' O.` m ` : d F Q * | ] R J [ } 8.^ } ~ | | | 3./ ^ c.3.5.e.w.e.n...1.{ ",
"~ [ *.G [ R ..[ <.{ 1., 9.r.<.4.q.x.l.| 3.( <.{ 5.7.3.~ 0.F *.l H :.} } [ P { } / / =.S.v 4 ; y u + ' x ' c g ] l 8 h $.w %.R R &.{ G ..^ 3.R R | | <.( ~ F.3.3.e.r.r.y.1.2.{ ",
"G ~ ..S ~ R ..P 1.| 1.< 9.n.9.q.3.f.9.| 5.| 5.<.9.1.0.J q.A %.l S ..[ [ | ~ | | ( / 6.S.k a 3 p i i ' x c c z  .U d h *.h =.Q } } } S ~ H | | | ( / <.| ( F.4.3.1.2.2.2.{ { P ",
"} R J G ~ ~ { ~ | | 8.0 9.t.9.w.<.f.4.( 5.{ 5.,.7.| w.R h.A $.U r  .J P { [ ,.| ! ( ;.V.k M s p i c ' g N z m %.z w F } 1 } / Q R | ^ R Z ~ | 4.^ ( %.( ( F.4.4.9.e.2.2.2.1.{ ",
"4.R S G | | [ } { { 5., 2.9.<.9.%.r.3.( 3.^ 3.^ 3.| l.~ f.l %.Y z [ [ ~ [ I ( ~ / / ;.N.j E s y + c N i c g m ` : 9 l Q & R R Y | | R D Y | | F ^ ( | ~ ~ n.1.<.2.2.1.{ 2.1.{ ",
"4.*.*.} P [ | 4.4.~ 9., 2...| 9.{ 1.{ I ( | ^ | 3.Q r.F j.Y Q A H ..q./ ~ Z ~ / [ Y *.j.l s g ; ; x g ; i m ' ' 5 ; d 0.0 ` Z G [ ~ *.8.~ } 1.[ | 1...{ J n.{ { { r.,.K 2.,.K ",
"R ~ [ [ [ [ } | <.J 9., 4.2.2.t.<.2.<.<.2.,.~ | 3.! f.F h.Q / A J  .6.R } F R ^ } R &.v.l x u ; g W l u x x W x l l F 8.0 :.~ P G R } ..~ G [ ..{ [ ..I I y.1.2.2.y.2.I 2.2.I ",
"G G ~ [ [ | | { { P 9., 5.2.9.t.2.2.{ <.2.{ ~ | 7.3.f.Y j.Q $.Q *.;.4.R *.R ^ } ~ R } C.l m u ; ; ] i g m x ' k x c F &.6 h...[ G G R | *.^ G [ | L { P { y.8.e.e.y.2.K <.2.{ ",
"} } [ } [ } [ [ | | w.0 9.1.r.9.e.2.( { 2.{ / 4.q.6.f./ x.R $.Y 0.:.;.~ 3.^ | } ~ ` $.D.c W ; ; & W ; i x s O.k u g c -.0 w.1.| ~ } J R 3.*.G J 1.P | { ..t.1.e.e.y.<.I 2.2.1.",
"4.| } R ~ ~ ~ [ { 3.t.0 9.<.q.<.e.e.,.2.9.1.| 9.| 4.*.( f.U / A *.=.%.Y | Y ~ } [ ` } D.l m ; u 8 $.6 i k u o.i 8 d U 0.0 ..P [ [ 8.} S P } [ | 1.[ { 9.| n.{ r.e.e.2.<.2.2.2.",
"*...[ ~ ~ ~ [ | ~ 2.9.0 9.<.t.{ 2.5.9.5.9.2.| 3.R 3.( $.0.Y $.U %.%.%.R | G ~ | [ R $.D.l c ; i i O.u u i i ' k 8 g U h.: ` V S h | 7.[ R J [ ..{ { { r.{ F.{ t.e.2.e.e.2.,.1.",
"R R [ } [ ~ [ { ~ 9.t.q 9.1.t.{ <.r.9.{ { <.( ( / 6.$.%.d.U =.U %./ } R | R R | } R ;.C.l u u g u T d 7 i x W m : g F ;.- ..P J F F } 4.| J J P { ~ <.1.{ n.<.r.2.e.e.e.<.I { ",
"h G R [ ~ J J J { t.t.q 9.2.n.{ e.n.r.I L ^ | 3.| f.( %.6.l / F $.Q ~ G %.G R ~ } R :.N.l ; u k d m k ; u x m n ; l H &.6 b.w.8.m.Z e ~ [ J J [ | [ 5.~ { y.1.9.e.2.y.e.{ I { ",
"| q.h D *.| | [ P 4.9.q ,.2.z.t.2.<.r.1.^ 1.| { F k.Y %.3.A / Q A / =.4.^ Y R | ~ R U A.U u ; u l 9 i m i M 8 N u 6 ] *.: ..G [ } ~ ..G G [ 9.P D ..{ ..[ y.{ n.e.2.2.e.2.I <.",
"} ~ *.D S 4.[ ~ 1...4., 9.P r.4.,.,.2.<.I { | { A q.Y %.;.A _ Y Y $.6.6.} ~ ~ | R } R C.U 8 ; u l ; x g c k 8 k : : Y *.0 *.~ [ [ [ J *., ~ J [ [ 2.{ ..I y.I n.2.2.I 2.<.K I ",
"[ F 8.{ h | [ P 3.~ <.* t.I t.9.,.I 2.{ P { { | R 6.Y *.f.U / Y Q =.4.*.| / } | ~  .$.A.m u ; u g ; x i M i 7 7 : : Y &.6 ..G J [ h | J 4.A 1.| I ..[ I [ n.{ n.2.2.,.2.<.K I ",
"R G R h.8.D | J { P <., t...n.q.2.,.2.<.P { { ..! 3.R ( f.U Q F / / %.%.| } | | J ..-.Z.F u ; ; d u x g m 8 9 y u 8 Q &.,  .D D ` G G :.0.w.| ~ P ..I [ I G...b.e.e.2.e.2.I <.",
"[ | G 4.b.[ [ [ { 9.4., <.2.t.<.9.,.9.2.^ { | | Q | R R f.l F h / =.3.*.( | | ~ [ *.-.Z.c u ; ; 8 k d c u u u i : 8 / &.0 8.[ [ [  .J ....w.[ J { ....I [ n.I y.e.2.2.2.2.I { ",
"} *. .S 4.b.~ 4.~ 9.9.0 { 9.9.[ e.<.9.5.{ { ^ | ( | ( Q f.A U F $.6.d.*.%.} / ~ } ..%.Z.c u ; 7 : k 7 x ; u i k : d ]  .* ..J J ~ [ 8.D ..J ....[ 2...{ I n.{ y.2.e.2.e.e.<.<.",
"} } 4.G ~ h.1.8.~ ..1., 9.8.y.{ e.,.9.9.<.<.^ | | | *./ j.U T Q } 6.d.4.( } / R .. .} C.U 8 ; u u l 7 g g u k i u g &. .& [ G J D :.[ 8.D ..[ n.{ ..{ I I K...y.2.e.2.e.e.2.2.",
"G ^ | 9.[ J z...4.{ 1., n.2.n.,.9.,.r.r.3.3.| *./ ~ %.Y f.A Y / Y %.6.*.( | | ~ &.} R C.U 7 + u k l i u M d m 8 u h %.*.* *.[ ..[ [ [ [ w.P [ w.w.y.{ [ I G...y.2.e.2.2.2.<.2.",
"~ 4.I 1.q.P { <.9.9.1.< t.5.n.,.4.c.z.r.7.3.3.Y / | ;.R 0.d Y c Q / V.( G *.G 4.[ U *.T.U 7 + k u k k g k l g - l f } R * } } | ~ 4.{ { ..<.8.<.9.P 9.^ K K.9.2.5.t.r.q.w.9.<.",
"| 9.{ 4.t.2.9.n.2.1.9.< t.9.n.9.7.c.7.4.%.( 4.| / | *./ d.l U f =./ 0.} | q.[ } } } 0.T.m 8 ; l g k b k b T U l d f / ~ 0 *.^ } ( 9.| { 2.8.9.2.y.{ 2.2.I K.2.y.9.k.q.9.9.<.{ ",
"{ <.P { 9.4.t.n...{ t.< 9.9.t.9.k.k.3.3.( / 3.%./ | *./ h.T Y w Q / ( $.%.%.^ R } } 0.D.j 8 ; k 4 u u : d b l l - f Y Q q h.R } [ 8.| [ ..1.9.4.y.1.I r.P y.1.e.r.r.9.<.4.{ [ ",
"{ ^ P { 2.2.8.9.4.{ t., 9.t.9.9.3.5.( 7.,.| | | } =.6./ h.U Q w l } | 6.| Z [ | [  .d.S.g u ; g u a d d l m U l : f h Y 0 m.[ | ~ 8.[ ~ [ { 2.4.q.r.P e.P n.2.w.q.9.4.~ 1.{ | ",
"t.<.{ { 2.8.8.2.9.~ w., 9.t.9.8.3.4.! r.| | ^ } } *.*.} d.l R d A *.*.d.} Z | 4.~ } 0.D.l u 8 u u a a d b m U l & w d R - m.| } | w.| ^ [ ~ 8.q.1.z.^ e.P G.e.y.9.5.3.I 4.{ ..",
"M.<.{ ~ [ 9.2...<.^ 9., 9.t.t.9.3.7.! 7.^ | / | =.( %./ 0.d F l A $.R ( ^ Z / R G R %.A.l u ; u 3 : 4 u l m U c 8 - A %.w m.| [ [ 0.| } [ { 4.5.{ r.{ ..K K.2.t.q.3.7.L 2.[ ..",
"t.J I P ~ 8.{ P | <.8., 9.4.b.4.3.r.! 7.~ %./ ( 4./ / / h.d l l A Y Y R G Y J V R S T B.l u ; u j a u j b U E W Q - T *.w 0.*.` G ..G ~ | ..1.~ { ..1.I I G.I y.w.3.7.D 9.[ ..",
"..V [ { <.t...D | 8.9.q 9.[ z.1.3.k.~ r.( 4./ ! f.R Q } m.h l A U %.6.%.} | [ J  .S U C.m g u n a 4 ; ; u i k l d.: R $.- } 0.} F [ S R 4.7.| D ..[ 2.{ 1.n.P y.q.1.5.L r.[ ..",
"1...| ~ 8.[ 8.0.{ 8.w.* w.[ 9.| 3.F.! 7.3.| %.! 0.4.F &.h.$.F H U Y A H.( 3.%.( R R  .D.k u i ; ; y @ 4 ; m l m ;.l 1 Q 0 d.R 0.} 3.R q.[ q.} } 4.8.{ t.D K.D 1.3.{ q.| 5.3.3.",
"{ ~ [ | 9.[ | q.1.8.n.* q.[ 9...| k.( 5.q.( 4.G } / Y ~ x.Q U c / Q Y 4./ / %.| ~ } } m.g u 8 u ; a 4 a O a 4 d -.Q : Q : } } *.Q } J *.} h.| [ 8.q.1.n.I I.J 2.r.1.<.<.<.9.| ",
"[ S ~ | w.J ~ q...*.b., w.| w.q.%.7.3.( k.~ 4.Y Y ~ } U m.U R c / Y Q Q | ! | D } :.} g.d u : y y v k v ; 4 u j m ] : } & U *.&.R Y G } ..0...~ 8.q.| M.| I.P ..k.5.| 3.{ q.G ",
"~ G J ~ 0.~ [ 4.[ | n.- q.} 0.q.7.k.,.( 4.! %.~ Y %.$.Y f.Y Y c Y A / A 7.Y | f R 0.] >.k u ; 8 3 a s a 4 u g n k Q d $.* / $.$.R R R G } ..| } } 4.[ t.{ L.I I 5.7.7.5.~ | G ",
"[ [ R S ..} } | | } M.1 q.} | *.7.r.( ( ( ( ~ } Y 3./ Q =.Q U U A U F 2 | G *.Z R 8.} d.k u = y y y u 3 4 3 j g U W W -.: *.T Y R / R H H G } } ~ ..~ q.| F.{ ~ 5.<.r.| | { ^ ",
"} } ~ t [ ~ | } [ J M., h.*.| 8.| 4./ 5.| | G } R %.G Q $.Y U } w A f f %.~ | F G  .} N.l 8 ; y v p a y s 4 a u m m Q ;.8 f.U Q / } Q R h F R [ [ *.~ 0...G.4.[ 9.( 5.P 5.<.| ",
"| [ ~ h R D [ ..~ F m.- h.4...q.| 3.%.,.| | G / / ( F Y ;.U U Q 1 U e R | | F Z G R  .S.l : ; s v p v s M a k j d n l ;.d 0.} $.]  .Y R e R G R | 8.~ 4...M.7.~ 9.| 1.^ | 1.} ",
"} ~ R S ~ h R 0.*.R m.* w.| R %.7.3.4.~ 3.G Y ( %./ / U f.f Y R f Q - R F | C ~ R U } Y.l ; u g 4 % v s W s b k u W j a.d Q $.$.R %.H } f / Z G | 0.J *.[ l.1.J 3.4.4.4.G | G ",
"R F R *.} S G &.~ ~ l.1 q.{ G | 4.8.&.| | R Y $.$.$.;.Q 6.d U c ` z w d [ ..R ~ / A U S.b 4 4 4 3 3 ; 3 3 a s k a j ; $.: / =.=.$.Y A R *.| G l ~ ..G w.~ n.~ [ P 9.8.[ J | [ ",
"f F Q *.*.} ^ [ } } w., q.[ D 4...%.~ } Q Y Y >.Q } $.Q a.d c l h H F U G F G | ( / / S.j 3 4 3 4 3 ; 3 3 y y p j a j _ 4 / / / Y A F } &...[ ~ ~ | ~ | { b.| D I } ..P | P J ",
"f R } } | -.| R | | w., 9.~ P 8.R } H &.R R z 0.U Y Q T 0.g c g 5 ` R } G w G [ ( ( i.P.4 # 4 3 a 7 4 ; 3 4 3 y v u E $.4 =./ / A l G } | } } | J | { [ { M.1.D [ D J J 0.F D ",
"R } &.R J } } G | 4.t., 8.{ { 4.R [ F 9.R R w } U H Y T d.l U h 8 ` h [ ` 0 G F Q / =.A.4 ; 3 3 4 4 7 y y u y u i 8 M -.& f.Y ( Y R R $.[ H R ~ ~ } 1.| | F...~ ..J [ J q.Z R ",
"Q } } Q G H ~ [ ~ w.l.- 9...1.| ~ } S 0.R G d  .Q U R F d.m Q l h ` h ` ~ e G Z / ! Q Y.j # 3 a 5 8 7 7 7 7 7 7 7 8 g >.X v.t [ } ] } } Q G G R Y [ | w.~ J.| w.[ P 3.Z 4.A / ",
"F R } | } R R ..~ h.l.- 9.1.8.[ | | G } H R F 0.} Q ] U d.l Q F z ` c ` R h G ! ( Y _ Y.A % 3 4 8 7 5 7 7 ; 7 7 8 d k 0.O w.G J } R Y } } } [ } ~ [ 4.b.L J.^ n.[ | %.A } G / ",
"F H }  .} } } } } q.8., l.| 4.{ | } G R [ [ R *.} } } Q d.c U x c T H R } Y G Y / Y / Y.b 4 3 4 8 7 5 5 7 7 8 i 8 x c :.6 8.} J ~ R R $...} | :.~ } q.8.G J.| z.[ | / G / ( / ",
"R } } } } } } R 7.8.| 0 n.{ 1.| ~ } ~ ~ *.} ~ [ } Q %.Q 0.h F f G x A U | *.D A A Y ( S.j 4 a 3 8 6 7 5 6 i g x = w x [ t ~ 8.J ~ R ] } } R } 4.~ ~ t.[ G F...9.| } R ~ %.%./ ",
"A F %.&.R R | G [ ~ w.0 9.| [ 1.} | q } } G } 4.R 0.H U h.F f h H c H c ..J R Y / ( / Y.j 3 j 3 9 6 = 6 5 g O.M g 6 = R 0 | D ..R R R } &.[ Z &.| h 1...| F.{ q.3./ ( C / *.%.",
"} Y } 6.} } *...} } t.0 q...{ | G / q ....G R ^ F } F R v.H H U z z z G } R G D / ( _ S.b ; a 3 5 8 5 c 5 x ` ` z 9 : [ - | J ..R U R } :.4.[ q.1.G ..1.{ n.| q.( / ( C ( ( / ",
"-.Y ~ *.} } *.0.~ { w.- 9.7.| ~ | 1.t { } J [ &.F | G G q.h h l c H F ` } [ G R / / / Y.j ; s 3 = r 5  .5 m T o.m 6 0  .* ..P L [ Q } Y &.4.} ..4.[ | *.~ w.4.0.! 3.3.2 ( 3.! ",
"} Y Y } [ R } *.~ [ q.- 9.q.<.P 9.9.V | [ R } 4.R *.G R 6.w h e c ` S %.} ..F ~ ( =./ Y.j 3 4 ; : 6 6 &.i l W O.g = f 0.1 3.~ Z } ] %.R ~ | R R | | [ 1.~ 9.9.7.( 7.4.C 4.4.! ",
"/ } } R R R [ } ^ } w.- q.t.1.P | 5.D 4...[ ~ ^ ~ *.[ } 0.F R F S ` H  ./ ( A ! ( =./ Y.j ; a ; : = d ] c g W Q l : l 6.- 4.( G R R *./ R ..} } ~ } [ ..~ q.9.1.( 7.7.C 5.4.~ ",
"~ &./ H R R ~ [ | } q.* q.9.| D *.q.D 3.1.~ [ | [ ..~ | 0.S ] F c ` U } / Q C ! =.( / Y.b ; j 3 6 : g W m f Q b l l A *.* 6.3.%.R R &./ F } } } J R { [ ~ n.5...! 3.7.C 3...! ",
"} %.R F } } G } | R 8.* q.4.{ ~ 9.t.D 1.| { *.*.....R } 8.h G f F T R R %.R ! / ( =./ T.j 3 v 3 ; : d ] m M T w j m U %.* 6.( 3.*.Y } R Z R ~ ~ ^ G ..~ P F.1.<.( ,.e.! 2.4.| ",
"0.} l G *...R *.| ~ 9.0 z.w.8.9...q.P w.9.| | ^ *.| R } 0.G ` z F H Q Y | Y Q / ( ( _ Y.b 3 v 4 = d : =.l o.m ; : U T =.- 6.! %.w.R } R H } | | | G 4.R G L...| 3.2.k.,.8.9.8.",
"~ J *.[ J ` q. .&.~ q.> 7.3.k.! 7.G | | | ( 9.I ....[ R h.x -.h Q / / } } Y G %.7.( 3.A.l 4 n 3 4 & 4 $.b Q U 4 d l U >.- ;.Q R :.[ ~ | ( Y %.c.~ 1.| ..P 8...1.q.^ %.( 4.} ..",
"G S } [ ..[ .. .[ ~ f.e 7.3.r.( 0./ 4.| 3.{ 5.^ 1.1.| Q g.c -.h / %.4.4.3.! / q.( Q i.S.b 4 n 4 j : d o.E =.Q d d g l ;.u d.] ` J [ [ | | / ( | 6...[ 8.:.w.8.w.r.| 4.| 8.| *.",
"1.~ J J ..[ :.w.} } q.Z 7.7.k.7.%.%.6.| | ~ ( I 8.8... .g.m &.x H } 3.*.| G ~ q.Y Q i.H.v ; s 4 : ; ; U m ;._ w d g U =.d d.} %.` | | J Y %.3./ 6.%.J [ ..w.8...7.| 3.| *.[ | ",
"4.4.J J  . .[ ..8.[ | C f.c.r.3.%.6.q.| 7.~ { | ..4...} :.T o.h R &.*.&.( Y R 6./ / d.Y.m 4 s u ; : u m U a.$.l 8 g l } w =.Q ..P ..} D ! | %./ } 9...[ [ b.b.[ 9.3.4.7.3.| *.",
"~ 7.| } 8.0.` z :. .[ G 6.l.4.3.%.6.f.| 4./ | } | ..$.} -.` O.m ` } %.} [ R G } ( / &.N.v y a y ; d j m F O._ E d l U Q d ] U &.~ [ [ ....*.} ~ R 6.6.! } w.l.P 7.3.4.q.3.%.&.",
"h.Z.m.b.m.U.b.:.m.m.m.l.n.J.c.J.M.M.P.l.x.r.l.w.m.Z.m.m.m.B.B.g.g.b.h.g.v.0.:.0.g.d.;.N.o.m N N M _ _ -._ $._ $.;.d.d.g.*.v.d.Z.M.b.b.M.Z.n.m.V.f.x.n.h.b.b.M.l.H.c.M.I.l.x.h.",
"} } R [ G :. .J ` [ ~ [ G <.G 7.4.%.f.| ^ R | F R } } T T o.] T ]  .` J ` ` H U W U k W y # $ $ # 3 # i ; ; O d M k f l x } F [ ..[ [ J R R &.0.} Q | R } P | { 3.4.3.k.^ } R "
};
