/* XPM */
static char *W21709484269[] = {
/* columns rows colors chars-per-pixel */
"87 87 145 2 ",
"   c #150F01",
".  c #1B0C00",
"X  c #171405",
"o  c #1D1303",
"O  c #1D1509",
"+  c #1E1A0A",
"@  c #231603",
"#  c #2A1500",
"$  c #241A04",
"%  c #2B1C05",
"&  c #231509",
"*  c #241C0B",
"=  c #2B1D0A",
"-  c #311C03",
";  c #351F08",
":  c #241D11",
">  c #2A1F13",
",  c #2D2000",
"<  c #2C210D",
"1  c #322006",
"2  c #33230D",
"3  c #39240C",
"4  c #36280E",
"5  c #3A290F",
"6  c #2D2312",
"7  c #2E251A",
"8  c #2E281A",
"9  c #332612",
"0  c #392712",
"q  c #342915",
"w  c #3C2B15",
"e  c #30261B",
"r  c #352B1B",
"t  c #3B2D1A",
"y  c #3C3017",
"u  c #3D311C",
"i  c #352C21",
"p  c #3A2E23",
"a  c #3D3321",
"s  c #3B332B",
"d  c #422C0E",
"f  c #422E15",
"g  c #482E15",
"h  c #412F1A",
"j  c #433117",
"k  c #4B3216",
"l  c #44331C",
"z  c #4B351D",
"x  c #46381D",
"c  c #4B391E",
"v  c #51361C",
"b  c #52391E",
"n  c #5C3F1F",
"m  c #443522",
"M  c #4A3622",
"N  c #453925",
"B  c #4D3B23",
"V  c #453B2A",
"C  c #4D3D2A",
"Z  c #513721",
"A  c #533D24",
"S  c #593E23",
"D  c #523E29",
"F  c #593F29",
"G  c #433C33",
"H  c #4E4026",
"J  c #4D412C",
"K  c #544026",
"L  c #5A4126",
"P  c #55422B",
"I  c #5B442C",
"U  c #56492E",
"Y  c #5C482E",
"T  c #4D4333",
"R  c #4C4439",
"E  c #544532",
"W  c #5B4631",
"Q  c #554935",
"!  c #5D4A32",
"~  c #53473A",
"^  c #544A3A",
"/  c #5B4D3A",
"(  c #5F5033",
")  c #5D513D",
"_  c #614327",
"`  c #61462B",
"'  c #63492E",
"]  c #694B2F",
"[  c #624631",
"{  c #634C33",
"}  c #694E33",
"|  c #624E39",
" . c #694E39",
".. c #635136",
"X. c #6A5135",
"o. c #65523B",
"O. c #6B543C",
"+. c #6C593E",
"@. c #715337",
"#. c #71563C",
"$. c #72593E",
"%. c #785A3E",
"&. c #564D40",
"*. c #5C4E42",
"=. c #535041",
"-. c #5D5342",
";. c #5D5449",
":. c #635542",
">. c #6B5641",
",. c #645845",
"<. c #6C5B42",
"1. c #665B4A",
"2. c #6B5D4A",
"3. c #715740",
"4. c #735C43",
"5. c #7A5E43",
"6. c #735E4A",
"7. c #635C55",
"8. c #6D614C",
"9. c #736045",
"0. c #7C6245",
"q. c #74624B",
"w. c #7B644B",
"e. c #77684B",
"r. c #7E694F",
"t. c #6B6353",
"y. c #746551",
"u. c #7B6652",
"i. c #776A57",
"p. c #7D6A52",
"a. c #7F7363",
"s. c #81664B",
"d. c #856C4E",
"f. c #8A6D4F",
"g. c #816651",
"h. c #826B53",
"j. c #8B6C52",
"k. c #846F5C",
"l. c #877257",
"z. c #84715A",
"x. c #8D745B",
"c. c #8A795F",
"v. c #94765A",
"b. c #957A5D",
"n. c #947A63",
/* pixels */
"o.<.:.o.) ) -.t.1.R R R 7.;.7.;.t.~ *.E -.-.2.,./ i./ 2.y.2.o.2.2.1.-.2.o.8.<.:.4.4.<.e.w.9.0.9.1.a.T Q R *.:.:.1.2./ 6.2.2.:.2./ y.,.:.:.,.y.| :.2.6.>.<.u.q.o.o.e.+...+.9.r.",
"y l U E E E V C V r 7 7 G s s s T t a e a m C V 6 C p D / P C ! J C N J V o.! P U P A P I P I P ) ,.a r 9 h t C h m t C D ! D ! C ^ C G D D :.E D E P B C E U A ( +.U I Y I O.",
"2 % y q 9 t 9 e r * : : e : 8 7 i < = = 6 > t 9 @ 0 2 9 B 2 0 l t t 9 t 2 B y < y 5 2 4 5 5 f y q r < = @ = @ 9 r m 9 h l P m C m C h t t q m m M M m h j j j B w y w z j l Y ",
"^ B -.Q C :.~ *.-.R T T =.R R =.*.Q T T E Q :.E ! / / E ,.U E W ! ( ! / J :.o.K ..P U U ! o.| +.Q -.Q Q ~ E / / m D h M N P N B D E C C m h D E B C B B l j M D P K B U c j P ",
"N C :.*./ ,.D ~ ~ J s V G V V T ~ E p m m E / m E C E B o./ ! W K Y U ! P <.<.( / K / W o.o./ :./ 1.V m p l ,.C B E B P P o.W / E E / Q E ! :.y./ ! ! { ! U Y { |  .| >.o.U | ",
". 9 r q p t r t 6 < + 6 * * + < q q . = $ < l % w % 2 2 f h w w 5 w 3 j 4 c l w y 2 j t t j < t < r = = = @ h = 2 9 @ 2 2 h 2 w = 9 h 9 < t j C w w 5 w g g f f = t ; t l t h ",
"& E e 0 m r m G a u q H N H r a C / t m 0 m / M P m D A z F z A ..L j K l F x j B w J m l C 6 u m 9 ,.,.:.E C E E D t D B B f K m D :.D m P C W M z f j B Y P j W 6.D M ! D l ",
". *.i p C 7 r h p y q J V J q t C o.t D 0 l ( P F B P ! j U M { $.K d K A U l h H w J a a H q m E @ i.2./ D 9 | ! D j E K B j P t C o.C t K B P c l w w B | Y z F u.F h / E l ",
"& *.6 p t p 6 t N r q Q y B J , B :.B B j l A o.z Y Y ..n K x Y $.b b b B K l j C P m N m N r N M 6 2.,.E C B J E t P B D B B z m D { C l W U A z L f K B o.{ j ! 6.F D C B C ",
". ~ > V C E q q N y t K l H U 4 l o.J K N B P O.| { ..' L K K L ..x c H K ! K K B J l N m C u N C = 2./ E P B B P f K B A j B D m D o.C l P W W P U z P F O.O.F | k.F *.B C C ",
"@ ~ > m G / p w m m w y B H E c l o.A P A A F o.w.Y X.....n ' I +.B c K K P B B B J u B m C u l C = :.W D Q B D P t F B B f z Y t B o.P j P W ! P U z I A X.$.I [ k.D C K B l ",
"> :.* 9 p C l p u m t 1 J c E P l o.A P B B B ' 9.S ` X.Y K X.' 9.J K K B J x l C U l B B U y y P =  .E C P B D P j K P z f z { w B O.! M P P P A I z K z { ..K W u.D 0 | l B ",
"9 2.> = = N l m h M 0 = J l D K z O.Z A c B S { { c S O.v n _ _ +.H B H B J B B x K x B B W j j C % | D l m l B I l P ! z z j Y B C o.U B U P A Z I z Y b ' { F W p.B l ! U A ",
"9 2.9 = > C m t m D h 3 B l B B B o.c Z z B L X.L n S } k b b K +.N C B B J B C y H l B H ( c c D = :.P l B z C A c I ! z Z j I P K / Z j A K A Z P k Y b Y { L W c.j Y c ..c ",
"< 8.9 < 9 C h 9 h D h m M D D C M } c b z S K X.n _ L L v v b n :.N H C V K J U w D B B A Y z l P = / P B U C K B z L P f A z I B B | K j Z Z A z A k I v L [ Y P l.x K j K A ",
"q 8.9 < 9 D t = t V r D M W W W c ..z c z z b ` K ' ' k L b L K +.V N N N U P o.j U F L A I k j P $ ! K B W K L z z Z Z 3 I Z P l K <.o.A P B A B L k L b L O...K <.Y j c f { ",
"u ) r 8 u J u y M r h h W F / h M  .l D z c ` ` X._ ] n L ( z Y o.B H W E L U | z W I I [ A Y z B % o.P K ( I Y K d k L z z A F z M >.D D F W A z [ S Z F S } } I q.L I b z b ",
"8 -.a r u T N u D t h h D D { M m :.M K c b I L ] X.n n L c A K o.B B W A Z Y ! A { I / W A U A ! < ( B c Y ' ] _ k b K M P { U M B >.F F W W A Z { Z c A S [ } ] w.Z L L A S ",
"< ) u r u T a u M t h t M C W M M o.B P H b L L X.0.L n L x L K +.l L o.z l Y Y I [ I { I A P I U % ( U K ..I I ] L b z M [ | F D C :.F D F U A Z { S c A S } X.+.r.b L I I L ",
"< ^ r r u ^ a u M 0 m M F D W B m o.B W K n ' _ $.d.X.L L b Y K <.z / 4.B z | I P W F | F B B P B $ o.P U X._ L ` ' K k z W / M F C  .M M F I F F ! S S ` Y X.%.5.d.c S L I I ",
"* ) 8 r u -.a r M r M B W D W B B o.B U A L ] ' $.0.s.] I ' Z I O.z o.q.A z / P F U I o.P P z P W < ( H K ..' ` L ' I b A { W A W B | M A A I F A Y S I ' ' #.6.w.l.A K K L U ",
"< ) q a a 8.H u D t M M W D W D B <.B U K K X.' X.$.d.] I X.c P o.z | 4.D z U F P W Y >.I ..z A P % o.U I ..L K k S S Z W W D F W A  .D F I W P Z Y A L [ L X.3.w.l.K K L P Y ",
"* -.q u r 8.V r D r h M ! F ! C m ,.H ! K n ' ' ` 5.0.] I ' P F | A U O.F z F F Y / ! O.B :.j c B % <.o.....L k k k g F >.[ B W W D o.F W I U F S ` Z L ' S { #.9.z.A L A K U ",
"+ -.8 a q -.m u M 9 m D >.D F h M <.K ! K K Y n n s.$.} Y S | K | A F { P M A Y { } ! o.c <.w y J < <...I Y K n S k f L 6.| M ! W C  .E W I I F ` | A F I Z ' O.3.r.z A L F F ",
"< 1.+ u 8 ) N y Q 4 l P W F / h C | P U ..L K K L _ d.] L I I F 3.F  .>. .Z D A } { D P D B K w U $ 9.c ( K ' L S S Y { O.O.D W F B >.D | F { { F { { L L Z F ' 4.z.l j A P P ",
"* ) < a u Q N r U q m J W D W m l / D P ..L n n L _ d.' I S I F 6.Z F [ W z W [ U Y B K B B K y U % ) B b K L L { S I L I Y D I D l >.D O.F W Y Z I I L S S I X.O.h.z z D P Z ",
"4 ) 8 r N V a u E t M C D D ! M B o.P K Y K K k n n 0.' L S Y U w.Z F F ` Z [ / P P B K N x B w P % U K x Y L I X.b L F M I W P F M  .E o.F I | I I F Z S b Z [ o.h.z z A K z ",
"a =.8 < a u N x D w M C F B W C C <./ B Y L n k n _ %.' Y S [ ` g.S F [  .A Y Z U P B B c l H 4 P < ..H K ..X.X.' k L ` Z W | D / F :.F / Z F | { L F L L z Z { o.h.z l B A B ",
"V =.y + V y V V m w M C ! D W D M :.W B ! { ] L n L +.] ( n ..Y g.F [ [  .D F z Y I c J H H H 4 U % <.B Y { $.] S f I ` M W { F W F | W Y B A { S L F U { L F X./ p.M M B D K ",
"a -.a 6 V a V y m w M C { D F D B o.P B Y Y _ L n L ] } X.K O.I g.F Z F [ Z F M I P B K K J U y U % 9.x ! L ..L S k I Z z F E D M B | ! I F M F F F L L ` I S { P q.M B P E E ",
"a ,.y 6 a V V r M h M M { D D D P o.P H ' K L L K n L ] +.L O.A j.F F [ [ A W A K U P Q H H U x J , 8.B U Y ` b S b Y b M F A D z F  .E Z I A I F L L F L F Z S A q.M B C P P ",
"a 1.8 + 8 J H y D m m l / D D D C | D K { L L ` K n n ( $.L X.b j.F [  .3.F I Z K ! Y ( K x P B B 2 <.! K X.` S b S ` S F W M D P / >.F h I I / A U L Z L ` Y { P q.l h m B P ",
"r &.6 8 r ) u y J j m M 6.F W h z O.z ` F A ' S } X.} n b.%._ b v._ } X.@._ L b L L I L L I I L B 3 <.O.#.} k v n n L $.Y z g.F P K q.j ! Y c A I K B A F I ! | U e.B j w B K ",
"i &.7 r a / N N B j z l >.M W h z O.Z I F S ` I S } %.L j.] S _ j.n X.] } n L n ` ` I L S c c L A 1 4.5.X.` S @.S ` [ S Y Z } P ! B r.c I A A B P L A A L U U L W w.B B B z l ",
"i &.8 a V T a H B x D B *.Z { D M { { M F F I L z } 4.` s.` F ] s.v @._ @.v ` L L L F W K b K { F - 3.O.S _ _ } ` @.%.v O.{ h F o.L h.P A z A B K K A K I U P A / w.A ../ B l ",
"s &.8 a J H a H J B I A >.B | F Z / <.z A K I I A ` } L w.} _ L #.v s._ @.k ' I F S F { { I Y O.U - O.L g ` ] n n ` } S 4.W f A +.L r.! A l I c P L B K I P K c U 6.B | ..W P ",
"i ~ 7 m T m H J B x B B >.B W M A | 6.M D F P D F F I F 4. .I Z #.Z g.] $.k ` L | F [ | >.F D D { %  .' Z ' ] _ n k b { 4.A I I <.F 9.{ Y z ! B U P B A P P A B K 9.B B B K P ",
"7 R > p ~ a J H c j B x O.M W h D :.:.B F D E F B F F I { ` F S  .Z 5.} O.b Y S F F F | | [ D M [ # O.3.` S _ s.%.L ` #.X.z | W o.A +.! ..c ! A I P K K A L A L B 9.l f w c B ",
"e &.6 r T y H l B l B l >.M ! M M ,.D E E C Q D B A A P I W I I  .Z 3. .[ A I A M F F F W | F D W ;  .} L S S 5.s.` 5.O.} F F F U A O.Y O.z P I A L K K K B P I B <.c B B B B ",
"p ;.7 r T q N 2 B l B l | h W M M :.h W D C W E F A c P / O.{ P #.A  .[ [ F W F M F *.F F | ~ D | M 4.b Z { n S n n s.L !  .j F A L o.U O.f S Y B A P I K K P U C <.H o.o.! P ",
"e ;.e r m *.9 u B 4 K t o.U C M D *.C / D C M C D M F K ! } q.F  .F  .Z 3.F F W F C F F M | C D { - 3.X.` @.] v n v b S S z A [ z P +.| A A z U S Y U B B A L B B o.B K B K B ",
"> ;.7 9 a / q u B y P j >.W D F C :.D W C D C D F M K D U | h.F  .Z [ z >.D D F M D ~ F D / h F F # O.O.[ 5.@._ S n S S F F P { f B ..! L I P { U Y U K B B K K K <.K B B B l ",
": &.7 > a / l x B j K j O.W E W M *.W W D F F C F M I F F  .x.W  .v F Z | Z D P M ~ F F D W t I / - #.O.L  .] n v n S S Z F W W B L } I K P K U [ U I L L B A P B <.J B l z l ",
"O ;.7 * a ^ H u l w B j | F F P M >.| W W I / F W Z ` F S O.n.} 3.M F F { A A K Z D F ;.C F m B >.; 3.O.S ' _ n v n _ Z Z L { W P W O.I B K c K Y I I U P A B L P <.P P B B l ",
"* ;.8 * V J N m y j N B  .W F F B >.O.W W I | L F Z _ S F  .j. .4.Z Y ' { P A K F M B :.M P W t >.; 3.X.L } ] ` S ' [ S I [ o.{ z I +.U B A A Y I I I Y Y F A B K <.K P B K A ",
"O ;.8 6 V u x u l B B P :.Q W W A O.>.[ { A { F Z v Z Z _ _ s. .5.Z ' O.{ I L P D m l o.M P / j 3.3 6.O.L { } ] _ } ' S I { | I j P +.U z L P { I U [ U Y U L B B o.c B B K B ",
"O ;.r 6 J q u u l K l E  .W [ ! A O.O.{ O.S [ ` S S v S @._ @.@.$.z ' $.Y L B P A ! l W K P U H 3.3 6.#.S ` _ _ ] ] L S I ` U Z z I +.U c P F P U | { P I { Y B B | j l N K B ",
"& &.8 r T < u H u K j D / F W U Z { >.} 3.F O.O.F _ S S 5._ ] s.O.c ..9.I A B L F w.A D / P c W o.- O.} b L ` _ #.] L S I { I A z P O.I Z Y I U [ O.} P P ....K P +.B B K / P ",
"& *.a 6 m > 9 r M M t o.W C ! D S ' 6.[ O.{ W W I Z F F _ _ @.] { B Y | P U A U W B B A B B P P O.1 $.Y F b { } @.S I b L ..z z L z 4.Y S I [ 3.F 3.[ I I A I { K +.B j [ U P ",
"= / t q m p m D 9 w m | K ! E o.L } 0.{ O.Y ! W F D F Z [ [ s. .O.B { / W K K E W B B J B H K B | - 9.' { ` X.O.[ I [ ' Y Y A b ! B q.P F A _  .[ 5. .W Y A A P P <.A Z Y U L ",
"e *.6 q p h p D t = m E C ( B Y b ..4.' } F P F C F F Z [ ] j.3.O.c ! K / B K P ( B B K K K K x ..1 9.' ' ` [ { Z ' } $...Y I K +.K w.F I Z F ` [ 3.` F I B B K H +.F Y Z U P ",
"9 :.= q q h r C B 9 0 D P >.B j z X.X.] W A D B M F S Z [ ] j.3.O.j U z ! c P K o.P C U P K K c ..1 $.Y Y ` { S g I ` 6.$.K Y b o.L h.I { A F F [ O.F A I A K L c o.U O.z { ! ",
"6 ,.= r t V h C m l 2 E E ( ! l b O.] { / D F D z F z k F [ j.[ <.l W x o.B W E U B A K B B P P ..# X.K L Y [ ` g F n $.4.L Y x Y B e.Y | F S F [ 5.[ I W A B H H <.Y 4.A ..{ ",
"6 1.r q p C m m 9 M t / C B P h z +.L ..W F W A M D M Z [ _ j.] O.j P B ! K U P B l l B x B P U { # ..c z S L b z b K X.+.I b k H l 9.| Y F Z A F >.` F ! F H K K <.I | F U A ",
"6 2.N > h m m i w m B ! N B M l k X.z ! W Y / A D W z F 3._ j. .O.z P K P K B K P N B B B H P K ..- X.c k z b k S S ..O...L c K c B <.O.A ` k F z  .I I ! K H P B +.A B P K x ",
"$ 2.V = m V D m w 9 C E A :.D I z $.z } | } o.K M F h F 3.F j.[ O.A U / P P B P o.K K P P P P c ..1 9.L S L I Z I L 0.+.' K x ..A P <.4.M [ z I S 3.| { ..K B A A O.B j | P x ",
"> ,.C 6 q E V E m M B C l >.E ..x X.c +.Y ( o.A A C F ` [ } @.4.<.B / K P B c j E +.P B P W W B { 1 r.5.X.Y S b ` [ O.5.+.K c { c K 9.o.L W ` { F w.I Y +.c P c W q.F M W >.F ",
"6 :.G m 9 p E m P 9 C h B :.P P K $.n +.Y U | J B F W Y W ` } X.<.M P K W H K B K ( B l c B K H O.- <.Y [ } [ f S X.$.3.+.L z U l H ..( K / ' I I w.Y Y o.H U H W 4.z z D | D ",
"6 :.m ~ 6 6 / t E % K t B P D B K 4.L ' U I W U m F W F S I ' [ 4.B K P U A B P B W c l l j K U ..# $.Y { 4.5.z z #.3.O.+.K k U B B o.( Y O.Y P Y O.I K U U H K W 3.l h D / D ",
"= :.h ~ r 0 M m m q C m y 0 D B c X.Y ( P U P E h D U Z b F { } r.B B P P B N P A P l l B l B W Y # r.O.' } 4.S k 4.#.` Y b 5 c H H o.( Y { I A W I K K P ..l P F 2.M z F W M ",
"& ,.m m m V 6 E m D 9 D 0 < U B j X.L Y P U H ! m D P B k Z ' } e.A B U K B j C B B f l K z B H ..# w.+.L Z Y S b #.O.K b k y c x c o.( L P Z Z { F P Y P 8.l P M 6.M M M D M ",
"& 1.t p V / % W C o.= B j l / A x X.U Y ! ! N W A D F A z b S ` 6.B l P B K j B l F j B K B B c o.# { L L Z S [ L } ..K k k k c y x o.( K L P U Y F P ..K <.x K D y.F D M D M ",
"o 1.9 m V *.w m B / t 9 m D P P c +.U K U ! l E J B A P F z b L O.M j P B Y l B l U B x B B B x { 1 Y c ` Y L } L S L L j j H c l x +.+.P U P { L A c o.A | m Z F u.*.F F ~ C ",
"+ 1.& T m Q V = e B K . y B w P c +.U c P ! j W B z A ! { Z b L o.B z I B / m z w P N j j y B y K 5 5.c { S k L L k K L d k K c l x o.o.P I A I P I z O.B [ M G F u.D D F F D ",
"o -.8 a s T ) r 6 t y t t y l E B o.B B B U Z g c b j P [ A B A 6.Z D D M D D Z M D h h N y u r U , $.( L d v n n k b b b n x L c j +.H U x K l P F f } A f z B B i.l m / W M ",
"+ ;.i 6 r 8 ^ T q q q y j m x N m o.m y j F b z L S b b L A A W 3.h M Z M D Z M G M m m V a y y J , 9.o...x n _ _ k c k x H x H c x 9.x H j K A F z 5 Y A F F Z K y.B m W C m ",
"X =.i + V : a a a q q a m B N 2 C 2.C c j P L I L b ` z z F B | >.M M F M F M p C m G h H J q y H < e.+.X.b L L _ k b z H H x c j c +.x l k U L B f f Z Z  .L B E 6.F C D m B ",
"+ =.8 8 R r < 8 C 6 y H B J B % m :.B j w z n Y Z g X.S z Y z ! 6.M D F C D G h B h E m x J < u N , e.+...x H n I x b B K H j H y c $.x x B ! K Z f z k z O.F z P y.D Q M C C ",
": =.: 8 V V + a N q l P B J J 2 m o.C z h B S { L k O.' z U z I >.M Z D M D B l C l ! u u J < H N , 8...U k c c L z K K H H l H j H +.c x P { K A z A M z 3.I A E p.B o.l E C ",
"X =.6 T u T : V N t m J B B K j N 2.Q P A P ` O.#.S O.X.A I F W >.z D D B W P B B M P l l N 4 H H < +.U U x K b K l H c B B u J B c ) B l U { U A A P I b 3.{ W W z.B | x E B ",
"X T 8 G a Q q u N u y u l B J B l ) B B z A S { 0.L ' +.I F ! ! >.D D W F W P B C C B l H N y l H * ) U U B U H H x K B x m a E c H ( P l K I Y A I M I A  .X.I ! k.D B P B B ",
"a T < : r R a y m u w 0 x H B U m o.C B B A L ..5.S F 5...I o.! 6.B F F C D M h C K l m J B x t J * ) H U B L x H x P H N m u ) y x ..( B K K I F ` h I A [ O.A W i.P 2 / j C ",
"8 ,.+ < 6 V V u a y q % B 5 ..B m :.J B z c S ..Z ` L ' c A B I } P D B F P z F C K l K K P j B J < ) x c x H x L x b ( U u V T c c o.H B K U K U A c A z I O.Z ! h.B c P W P ",
"8 t.8 6 < a u y H H j y l j K c B o.C K B B L X.S L K ` z I B I O.P A M A P z U l K l K B U l B J < ) H H x K x H H U U m x H J B B o.H c c L B F F A I F Y O.z U p.K A I W P ",
"6 t.a 6 < J u < y H t K y P L P C / m H B A F X.L I S L c P Z P o.A c l B K B Y f K B A D W z m K < E U x K K H c K U x w l J H B H +.b c x A c z A Z P F S O.A F p.F B A K K ",
"y ,.8 6 q ) u < w N 4 K l ( P E C / l B Z c b X.` ' K I b P Z P O.c c B B L A / f P A P A ! z l J 2 P U x ( L L k c c x t x P H l c +.U H K P A z F B Z z F O. .I p.B l z B A ",
"a =.6 8 y =.y q l l j z A ! L B B / m A B B Z { ' ] L ` M I B P O.c L I L P I | z W I Y F U k M H 2 U U c ..Y n z k k c c H K H j x <.U P U Y K A U Z A F L X.3.I p.Z Z Z Z F ",
"y =.r a y U q x B w c w I U K x B :.C K A A L { ] { L I z I Z I ..l P | B B L { A ! I { F I z F K 1 U L K ] ' Y n v x b b U ( H x H +.U P K I B B ` A A I A { | Y g.F U Y Y A ",
"8 =.x a y ^ y x N 5 l 5 A Y L L l :.E K B I I ' O.$.[ { z A A U ..z ! o.B c F | F [ I { I A k { K % Y K L ` ] L L _ n c x U ..K H B ..H K K U A Z { B A Y I ` X.O.h.Z P { W F ",
"$ Q a y u 1.a u B w B w z U Z P w >.E D c I I ' 0.w.O.O.b F Z I +.A O.+.A c Y O.P U D } I A M o.P % ( b Y I X.n L ( L k d L ..B K K ..c K Y { K ` O.Z F } | >.w.6.h.z z P W P ",
"< -.* N r y.9 l D t m M W D W D M { M I A Y [ } 3.w.j.[ F [ b Z o.A ! 9.z Z U F P W Z O.B ! z K ( $ X.H L _ L n b ` L n b X.c c E P | K z Y n K L S L ` ' ..O.O.w.h.L / A A O.",
"* -.< a q y.t p D t M D *.[ *.D F <.D I F Y [ 3.F 3.s.` S ` S L <.B ! q.K A ! ! U { A <.K ..B K x , ( x +.{ z ` v k v b Y ..b K ! P o.P F ' L L S L L L L I } O.r.z.L { P P ..",
"< ) 9 u 9 2.m m M 9 h M | W W M l >.A D F A B } F 3.s.[ I _ S } ..j P o.K j P B W o.P o.P o.B x c 4 $.( 4...z L S f b L $.( A ( P C o.K P L ' K S ` ' I I I ..4.4.p.B B B A L ",
"< Q r t 9 :.l t D 0 m B | E D h l >.I I O.U B I Y 6.w.O.L I I ` +.B W o.! l P J U o.P W B ! l 0 U , +.o.A K ! k ` g K K $.Y B U E C ,.K o.P X.K L I Y I Z F Y ..9.z.A A L I c ",
"q E u u t E u u ~ t m M / D ~ M B | K K o.E H B I +.o...{ L A L +.B / ! ( N U H ! ..P U P / B j U , U U w B ! B Y M I Z O.! B H C C ) H ( H ..K L L U L K K U U o.q.A B L U c ",
"/ 2.,.-.-.1.:.:.2.C E E :.:.2.| :.:.E E o.o.+.( ( <.+.<.q.$.<.<.<...O.+.<.+.9.o.9.<.<.8.4.w.9.+.8.,.,.J ( o.W 9.>.o.9.o.q.p.<.8.-.-.8.) 9.( e.o.$.$.9.8.e.8.8.9.9.p.o.O.O.e.3.",
"q y u m m t t m m * = ; t t m y m q 2 , 9 4 H q % w 2 j B j c x j l y j l H x y l y j j l x c N H U y X 9 2 @ l 0 t l u l U N J a J H N x x ( H c x x x B H H c A I B F Z { Y "
};
